<svg xmlns="http://www.w3.org/2000/svg" xmlns:xlink="http://www.w3.org/1999/xlink" width="1920" height="1080" viewBox="0 0 1920 1080"><defs><style>.cls-1{fill:none;}.cls-2{clip-path:url(#clip-path);}.cls-3{fill:#84d5d6;}.cls-4{fill:#ea1819;}.cls-5{fill:#f9cb51;}.cls-6{fill:#fb8dc0;}</style><clipPath id="clip-path"><rect class="cls-1" x="-1" y="-1.5" width="1920" height="1082"/></clipPath></defs><g id="hjerte"><g class="cls-2"><path class="cls-3" d="M943.64,2061.16-305.49,812C-1544.57-427-296.24-1675.38,942.84-436.3,2235.92-1729.39,3485.06-480.26,2192,812.83Z"/><path class="cls-4" d="M944.27,2003-257.12,801.63C-1448.83-390.09-248.22-1590.7,943.49-399,2187.15-1642.64,3388.54-441.26,2144.88,802.4Z"/><path class="cls-5" d="M946.23,1764.86-59.15,759.48C-1056.44-237.81-51.06-1243.19,946.23-245.9,1987.66-1287.33,2993-281.95,1951.61,759.48Z"/><path class="cls-6" d="M948,1605.38,73.55,730.9C-793.89-136.54,80.58-1011,948-143.58c905.83-905.83,1780.31-31.35,874.48,874.48Z"/><path class="cls-3" d="M950,1434.08,216.08,700.21C-511.89-27.76,222-761.63,950-33.67,1710.14-793.85,2444-60,1683.82,700.21Z"/><path class="cls-4" d="M951.44,1302,326,676.54C-294.43,56.12,331-569.33,951.44,51.09c647.87-647.88,1273.32-22.43,625.44,625.45Z"/><path class="cls-5" d="M952.68,1191.4,418,656.72c-530.38-530.37,4.3-1065,534.68-534.68,553.85-553.85,1088.53-19.17,534.68,534.68Z"/><path class="cls-6" d="M953.43,1124.49,473.67,644.73C-2.23,168.84,477.53-310.92,953.43,165c497-497,976.72-17.2,479.76,479.76Z"/><path class="cls-3" d="M954.2,1056,530.7,632.45C110.61,212.36,534.11-211.14,954.2,209c438.68-438.68,862.18-15.18,423.5,423.5Z"/><path class="cls-4" d="M955,989.11,586.32,620.47c-365.67-365.66,3-734.3,368.63-368.63C1336.8-130,1705.44,238.62,1323.59,620.47Z"/><path class="cls-5" d="M956.28,916,647.67,607.37C341.53,301.24,650.15-7.38,956.28,298.75,1276-20.93,1584.58,287.69,1264.9,607.37Z"/><path class="cls-6" d="M956.32,867,684.86,595.56C415.58,326.28,687,54.82,956.32,324.1c281.2-281.2,552.67-9.74,271.47,271.46Z"/><path class="cls-3" d="M956.75,828.79l-237-237c-235.13-235.14,1.91-472.18,237-237,245.54-245.54,482.59-8.5,237,237Z"/><path class="cls-4" d="M957.23,786.05l-202-202c-200.33-200.34,1.63-402.3,202-202,209.21-209.21,411.17-7.24,202,202Z"/><path class="cls-5" d="M957.67,748.46,787.51,578.3c-168.8-168.8,1.37-339,170.16-170.17,176.26-176.26,346.43-6.1,170.16,170.17Z"/><path class="cls-6" d="M958.16,703.47,824,569.29C690.88,436.19,825.06,302,958.16,435.11c139-139,273.17-4.81,134.18,134.18Z"/><path class="cls-3" d="M958.57,667.55,853.87,562.86C750,459,854.71,354.3,958.57,458.16c108.45-108.45,213.15-3.76,104.69,104.7Z"/><path class="cls-4" d="M958.83,644.45,873.1,558.72c-85.05-85.05.69-170.78,85.73-85.74,88.8-88.8,174.53-3.07,85.73,85.74Z"/><path class="cls-5" d="M959.07,622.43l-67.66-67.66C824.3,487.65,892,420,959.07,487.11c70.09-70.09,137.75-2.43,67.66,67.66Z"/><path class="cls-6" d="M959.3,602.64l-51.42-51.42c-51-51,.42-102.41,51.42-51.41,53.25-53.26,104.66-1.84,51.41,51.41Z"/><path class="cls-3" d="M959.47,587.18l-38.73-38.73c-38.41-38.41.32-77.13,38.73-38.72,40.11-40.12,78.84-1.39,38.72,38.72Z"/><path class="cls-4" d="M959.61,575l-28.73-28.73c-28.49-28.49.23-57.22,28.73-28.72,29.75-29.76,58.48-1,28.72,28.72Z"/><path class="cls-5" d="M959.72,564.92l-20.45-20.46c-20.29-20.28.16-40.74,20.45-20.45,21.19-21.18,41.64-.73,20.45,20.45Z"/><path class="cls-6" d="M959.8,557.81l-14.62-14.62c-14.5-14.5.12-29.12,14.62-14.62,15.14-15.14,29.76-.52,14.62,14.62Z"/></g></g></svg>