<svg xmlns="http://www.w3.org/2000/svg" xmlns:xlink="http://www.w3.org/1999/xlink" width="1920" height="1080" viewBox="0 0 1920 1080"><defs><style>.cls-1{fill:url(#linear-gradient);}.cls-2{fill:#ffecb4;}.cls-3{fill:#bfb187;}.cls-4{fill:#ffdaab;}.cls-5{fill:#fcd3a5;}.cls-6{fill:#0d060c;}.cls-7{fill:#592547;}.cls-8{fill:#431c35;}.cls-9{fill:#2d1324;}.cls-10{fill:#334958;}.cls-11{fill:#26384e;}.cls-12{fill:#102037;}.cls-13{fill:#f3f5f4;}.cls-14{fill:#fff;}.cls-15{fill:#d15615;}.cls-16{fill:#ffabab;}.cls-17{fill:#fc9143;}.cls-18{fill:#401e37;}.cls-19{fill:#8f8854;}.cls-20{fill:#474932;}.cls-21{fill:#f2f2f2;}.cls-22{fill:#497d8b;}.cls-23{fill:#abe4ff;}.cls-24{fill:#f7921e;}.cls-25{fill:#bc660a;}.cls-26{fill:#db832c;}.cls-27{fill:#1e1d1d;}.cls-28{fill:#a63921;}.cls-29{fill:#873527;}.cls-30{fill:#7c7447;}.cls-31{fill:#ddffab;}.cls-32{fill:#ffc158;}.cls-33{fill:#f4dfc9;}.cls-34{fill:#d9abff;}</style><linearGradient id="linear-gradient" x1="959.88" y1="1078.5" x2="959.88" y2="-1.5" gradientUnits="userSpaceOnUse"><stop offset="0" stop-color="#497d8b"/><stop offset="0.13" stop-color="#407988"/><stop offset="0.34" stop-color="#266d7f"/><stop offset="0.46" stop-color="#146578"/><stop offset="0.75" stop-color="#334958"/><stop offset="1" stop-color="#26384e"/></linearGradient></defs><g id="bagg._m._ting" data-name="bagg. m. ting"><g id="baggrund-2" data-name="baggrund"><rect id="baggrund-3" data-name="baggrund" class="cls-1" x="-0.12" y="-1.5" width="1920" height="1080"/><g id="måne"><g id="måne-2" data-name="måne"><path class="cls-2" d="M-62.12,82.5c-40,133,78.68,273.71,258,258,137-12,245-96,243-250-1.63-124.94-68-250-242.5-250C53.61-159.5-23.63-45.49-62.12,82.5Z"/><path class="cls-3" d="M242.12,62.28c2.87,13.61-15.53,23.38-26.56,16.77S195,61.59,193.27,50.55s13.52-17.95,23.58-14.78S239.25,48.66,242.12,62.28Z"/><path class="cls-3" d="M69.78,67.14c13,11.28,0,32.14-12.05,32.1s-39.94,5.61-44.91-2.1S18.41,37.41,37.39,43.4,56.83,55.86,69.78,67.14Z"/><path class="cls-3" d="M243.43,233.73c19,28.73-8.28,63.2-31.21,58.93s-63.23-8.53-85.64-25.75,17.17-103.58,66.59-101.86S224.44,205,243.43,233.73Z"/></g><g id="stjerner"><polygon class="cls-4" points="580.77 223.58 567.56 215.93 563.38 230.62 563.4 215.35 548.6 219.09 561.83 211.46 551.19 200.51 564.41 208.16 568.58 193.47 568.56 208.74 583.37 205 570.13 212.63 580.77 223.58"/><polygon class="cls-4" points="1103.79 47.35 1090.57 39.7 1086.4 54.39 1086.42 39.12 1071.61 42.85 1084.84 35.23 1074.21 24.27 1087.42 31.92 1091.59 17.23 1091.58 32.5 1106.38 28.77 1093.15 36.39 1103.79 47.35"/><polygon class="cls-4" points="155.79 406.35 142.57 398.7 138.4 413.39 138.42 398.12 123.61 401.85 136.84 394.23 126.21 383.27 139.42 390.92 143.59 376.23 143.58 391.5 158.38 387.77 145.15 395.39 155.79 406.35"/><polygon class="cls-4" points="381.79 43.63 368.57 35.98 364.4 50.66 364.42 35.4 349.61 39.13 362.84 31.51 352.21 20.55 365.42 28.2 369.59 13.51 369.58 28.78 384.38 25.05 371.15 32.67 381.79 43.63"/><polygon class="cls-5" points="1700.56 84.18 1687.34 76.53 1683.17 91.22 1683.19 75.95 1668.38 79.68 1681.62 72.06 1670.98 61.1 1684.2 68.75 1688.37 54.06 1688.35 69.33 1703.16 65.6 1689.92 73.22 1700.56 84.18"/></g></g><g id="hus"><path class="cls-6" d="M217.05,290.84c-9.12,2.14-18.34,4-27.4,6.45a7.16,7.16,0,0,0-4.41,2.71c-1.08,1.65-.94,3.75-.64,5.62.65,4.07,2.8,7.73,4.91,11.21l8.28,13.59c1,1.65,3.6.14,2.59-1.51L193.75,318c-2-3.3-4.29-6.6-5.54-10.28a11.41,11.41,0,0,1-.78-5.16c.27-1.75,2.08-2.16,3.55-2.52l.56-.13,0,.19a57.34,57.34,0,0,0,12.6,23.44c1.29,1.44,3.4-.69,2.12-2.13a53.78,53.78,0,0,1-11.82-22.11l0-.08,8.7-2a236.37,236.37,0,0,1,10.32,23.46c.68,1.79,3.58,1,2.89-.8a242.16,242.16,0,0,0-10.22-23.36l11.72-2.76C219.73,293.29,218.93,290.4,217.05,290.84Z"/><path class="cls-6" d="M370,270.66a8.55,8.55,0,0,0-1.44-5.33c-2.4-3.07-6.83-2.39-10.23-2.18L344,264l-16.35,1c-1.92.13-1.93,3.13,0,3l6.84-.43q3.81,12.28,7.61,24.56c.57,1.84,3.47,1.06,2.9-.79q-3.72-12-7.43-24l14.26-.9a1.08,1.08,0,0,0,0,.18l3.21,23a1.51,1.51,0,0,0,1.85,1.05,1.55,1.55,0,0,0,1-1.85l-3.15-22.54,5.82-.36a9.94,9.94,0,0,1,4.63.38c1.66.75,1.79,2.66,1.81,4.27,0,2.06,0,4.13,0,6.2l0,14.9a1.5,1.5,0,0,0,3,0l0-14.17C370,275.28,370.07,273,370,270.66Z"/><rect class="cls-7" x="210.21" y="209.75" width="118" height="115.81" rx="12" transform="translate(-41.95 50.19) rotate(-9.89)"/><path class="cls-8" d="M349.88,507.5h-110c-6.6,0-3-12.4-3-19l-42-148c0-6.6,1.4-17,8-17l148-35c6.6,0,20-1.6,20,5l-4,180C366.88,480.1,356.48,507.5,349.88,507.5Z"/><rect class="cls-9" x="240.5" y="474.56" width="143" height="164.09" rx="12" transform="translate(-110.24 78.2) rotate(-12.16)"/><path class="cls-9" d="M144.88,222.5l106-186c6.18-13,23-64,32-8l75.17,161.21c8.14,11.84,12.83,15.79-24.17,16.79l-152,24C151.88,243.5,138.69,235.46,144.88,222.5Z"/><path class="cls-4" d="M278,234.07l13.87,34.43c4.77,8.43,12.54,17.34,3,19l-33,4.09c-23,5.91-17.62-6.54-16-16.09L252,238.58C254.26,225.61,271.52,222.62,278,234.07Z"/><path class="cls-4" d="M262.37,360.81l18.12,58.92c5.84,14.58,14.8,30.32,5.25,32l-33.22,3c-22.75,7.19-23.23-57.5-22.64-73.2l4-25C237.38,336.68,254.43,341,262.37,360.81Z"/><path class="cls-4" d="M335.61,356.15,342.78,383c5.77,15.44,25.45,67.59,16.56,69.13l-31,2.46c-21.12,7.08-24.51-50.13-24.67-64.09l-.37-31.9C311.48,338.75,321.7,334.88,335.61,356.15Z"/><path class="cls-4" d="M301.55,533.35l14.91,40.46c5,9.94,4,22-5.58,23.69l-17,1c-22.92,6.23-24.39-6.94-23-18l4.68-42.64C277.44,522.84,294.71,519.84,301.55,533.35Z"/><path class="cls-6" d="M284.47,253l-15.6.79c-.83-3.93-1.61-7.86-2.23-11.82a100.86,100.86,0,0,1-1.28-13.54c-.05-1.93-3.05-1.94-3,0,.2,8.64,1.75,17.09,3.51,25.51l-15.77.8c-1.92.09-1.93,3.09,0,3l16.39-.83c1.3,6.14,2.64,12.27,3.57,18.46a97.48,97.48,0,0,1,1.12,13.54,1.5,1.5,0,0,0,3,0c-.1-10.91-2.43-21.53-4.69-32.15l15-.76C286.39,255.94,286.4,252.94,284.47,253Z"/><path class="cls-6" d="M268,383a1.53,1.53,0,0,0-1.84-1.05c-3.12.43-6.25.8-9.39,1.13q-1.69-7.53-3.76-15-3.16-11.39-7.21-22.51c-.65-1.8-3.55-1-2.89.8a312.85,312.85,0,0,1,10.85,37q-11,1-22.13,1.2c-1.93,0-1.93,3,0,3q11.42-.18,22.78-1.27A309.15,309.15,0,0,1,260.52,428q.92,11.79.92,23.62a1.5,1.5,0,0,0,3,0A313.6,313.6,0,0,0,257.38,386c3.19-.34,6.37-.72,9.55-1.16A1.5,1.5,0,0,0,268,383Z"/><path class="cls-6" d="M344,377.62a1.54,1.54,0,0,0-1.85-1.05c-4.19.57-8.39,1-12.61,1.38-.9-3.66-1.83-7.31-2.74-10.95q-3.12-12.35-6.22-24.69c-.48-1.87-3.37-1.08-2.9.8,2.95,11.69,5.94,23.37,8.84,35.07q-10.61.78-21.24.72a1.5,1.5,0,0,0,0,3q11,.06,22-.79c.37,1.54.76,3.08,1.13,4.62a376.08,376.08,0,0,1,8.22,42.33,201.47,201.47,0,0,1,1.56,24.05,1.5,1.5,0,0,0,3,0c-.05-24.18-5.12-47.85-10.88-71.24,4.23-.38,8.46-.84,12.68-1.41A1.5,1.5,0,0,0,344,377.62Z"/><path class="cls-6" d="M305.76,548.82c-4.78.4-9.55.89-14.31,1.44-.57-2.66-1.07-5.32-1.44-8a56.2,56.2,0,0,1-.22-15.65,1.57,1.57,0,0,0-1.05-1.85,1.51,1.51,0,0,0-1.84,1.05c-1.19,8.45-.1,16.64,1.63,24.77q-7.42.92-14.82,2.06c-1.9.3-1.09,3.19.8,2.89q7.32-1.14,14.66-2c2.1,9.19,4.76,18.33,5.6,27.7a49,49,0,0,1-.86,15.43c-.44,1.88,2.46,2.68,2.89.8,3.46-15-1.34-29.64-4.7-44.27q6.82-.8,13.66-1.37C307.67,551.66,307.69,548.66,305.76,548.82Z"/></g><g id="bund"><path class="cls-6" d="M888.88,658l-36.48-7.8,3.07-14.35a5.22,5.22,0,0,0-10.22-2.18L842.19,648l-34.54-7.39a5.47,5.47,0,1,0-2.28,10.7l34.53,7.39L829.34,708a5.23,5.23,0,0,0,10.22,2.19l10.55-49.37,36.48,7.8a5.47,5.47,0,0,0,2.29-10.7Z"/><ellipse class="cls-6" cx="721.3" cy="657.38" rx="58" ry="33" transform="translate(-15.06 1297.86) rotate(-83.36)"/><path class="cls-6" d="M1507.57,665.93l-36.07,9.52-3.75-14.19a5.22,5.22,0,1,0-10.09,2.67l3.74,14.18-34.14,9a5.47,5.47,0,1,0,2.79,10.58l34.14-9,12.89,48.81a5.22,5.22,0,1,0,10.09-2.66L1474.29,686l36.07-9.52a5.47,5.47,0,0,0-2.79-10.58Z"/><path class="cls-6" d="M544.48,589.75q-8.84-1.93-17.72-3.54.39-3.45.57-6.9l1.9.33a3.07,3.07,0,0,0,3.42-4.08l-3.14-8.63a3.07,3.07,0,0,0-5.24-.93l-5.91,7a3.08,3.08,0,0,0,1.82,5l4.18.73q-.18,3.47-.56,6.91-11.16-2-22.39-3.58c.53-2.05,1.14-4.09,1.81-6.11l1.95.64a3.07,3.07,0,0,0,4-3.53l-1.86-9a3.07,3.07,0,0,0-5.05-1.67l-6.87,6.11a3.07,3.07,0,0,0,1.07,5.21l3.93,1.3c-.72,2.2-1.38,4.41-1.95,6.64q-12.76-1.79-25.56-3.28l-4.06-.47c.46-1.67.93-3.33,1.43-5l2.69.48a3.08,3.08,0,0,0,3.43-4.08l-3.15-8.64a3.07,3.07,0,0,0-5.24-.93l-5.91,7.05a3.07,3.07,0,0,0,1.82,5l3.38.6c-.5,1.71-1,3.43-1.45,5.16-4.47-.51-8.95-1-13.42-1.54-1.92-.22-2.07,2.78-.16,3l12.83,1.47q-1.28,5.12-2.28,10.29l-7.46-1.24c-1.9-.32-2,2.68-.15,3l7.07,1.17c-1.12,6.35-1.94,12.76-2.42,19.19-.14,1.93,2.86,2.08,3,.16a186.52,186.52,0,0,1,2.38-18.86l30.31,5a104.77,104.77,0,0,0,.19,19c.19,1.92,3.13,1.29,2.94-.62a99.82,99.82,0,0,1-.18-17.88l20,3.31,2.49.41c-1.21,5.95-2.58,11.86-3.89,17.77-.41,1.86,2.44,2.83,2.85.94,1.34-6,2.75-12.12,4-18.22L536.42,606c1.9.32,2-2.68.15-3l-12.11-2c.76-3.93,1.43-7.88,1.95-11.85,5.72,1.05,11.44,2.17,17.12,3.42C545.4,593,546.36,590.17,544.48,589.75Zm-71.19,2.79-7.56-1.25q1-5.25,2.33-10.43c9.89,1.15,19.79,2.37,29.65,3.74a107.13,107.13,0,0,0-1.93,11.67Zm25.43,4.22a101.45,101.45,0,0,1,2-11.73c7.61,1.08,15.2,2.26,22.77,3.6-.52,4-1.19,8-2,11.91Z"/><path class="cls-6" d="M199.81,609q-9,.94-17.93,2.21c-.48-2.26-1-4.5-1.63-6.73l1.91-.28a3.07,3.07,0,0,0,2-4.95l-5.7-7.21a3.08,3.08,0,0,0-5.27.77l-3.39,8.55a3.07,3.07,0,0,0,3.3,4.17l4.2-.61c.62,2.23,1.16,4.47,1.65,6.73q-11.22,1.64-22.39,3.65c-.14-2.12-.2-4.24-.2-6.37h2.05A3.08,3.08,0,0,0,161,604.3l-4.6-8a3.07,3.07,0,0,0-5.32,0l-4.6,8a3.07,3.07,0,0,0,2.66,4.61h4.14c0,2.31.07,4.61.23,6.91-8.45,1.54-16.88,3.21-25.29,4.93l-4,.83c-.1-1.72-.18-3.45-.23-5.18l2.71-.4a3.07,3.07,0,0,0,2-5l-5.7-7.21a3.08,3.08,0,0,0-5.27.77l-3.39,8.55a3.07,3.07,0,0,0,3.3,4.17l3.4-.49c.06,1.78.14,3.57.25,5.36L108.07,625c-1.88.4-1.08,3.29.8,2.9l12.64-2.65c.27,3.51.62,7,1.08,10.48l-7.47,1.18c-1.9.3-1.1,3.19.79,2.89l7.09-1.11a191.7,191.7,0,0,0,3.74,19c.47,1.87,3.36,1.08,2.89-.8A188.47,188.47,0,0,1,126,638.17l30.35-4.77a105.71,105.71,0,0,0,6.16,18c.79,1.75,3.37.23,2.59-1.52a100.57,100.57,0,0,1-5.8-16.92l20-3.14,2.48-.4c.73,6,1.28,12.07,1.91,18.09.19,1.9,3.2,1.92,3,0-.64-6.17-1.21-12.37-2-18.55l12.56-2c1.9-.3,1.09-3.19-.8-2.89L184.36,626c-.52-4-1.12-7.93-1.88-11.86,5.77-.8,11.54-1.54,17.33-2.14C201.71,611.78,201.73,608.78,199.81,609Zm-66.69,25-7.57,1.19c-.46-3.53-.82-7.08-1.08-10.63,9.76-2,19.53-4,29.33-5.78a104.68,104.68,0,0,0,1.84,11.68Zm25.47-4a101.23,101.23,0,0,1-1.83-11.76c7.56-1.36,15.14-2.63,22.75-3.74.76,4,1.38,7.92,1.9,11.91Z"/><path class="cls-10" d="M1351.88,817.5c84.11,48.16-393.93,144-756.5,144S-61.12,882.93-61.12,786s401-251.72,742-128.5C1001.88,773.5,1227.88,746.5,1351.88,817.5Z"/><path class="cls-11" d="M1964.88,765.5c-15.26-63.75-343.64-59.4-691.09-7.42S652.54,904.75,662.24,969.58s299.23,75.24,646.67,23.26S2003.88,928.5,1964.88,765.5Z"/><ellipse class="cls-6" cx="703.44" cy="800.92" rx="80.33" ry="40.63" transform="matrix(0.31, -0.95, 0.95, 0.31, -278.17, 1216.55)"/><ellipse class="cls-6" cx="1310.13" cy="851.29" rx="52.07" ry="77.42" transform="translate(-116.66 214.58) rotate(-8.97)"/><path class="cls-6" d="M1894.5,819.34l-35.4-11.74,4.62-13.93a5.22,5.22,0,1,0-9.92-3.28l-4.62,13.92-33.51-11.11a5.47,5.47,0,1,0-3.45,10.38l33.52,11.12-15.89,47.91a5.23,5.23,0,0,0,9.92,3.29L1855.65,818l35.41,11.74a5.47,5.47,0,1,0,3.44-10.38Z"/><path class="cls-6" d="M1074.67,856.57q-9,.95-17.92,2.21c-.49-2.26-1-4.5-1.64-6.73l1.91-.28a3.08,3.08,0,0,0,2-4.95l-5.71-7.21a3.07,3.07,0,0,0-5.26.78l-3.4,8.54a3.08,3.08,0,0,0,3.31,4.18l4.2-.62q.91,3.35,1.64,6.73-11.22,1.63-22.38,3.65c-.14-2.12-.2-4.24-.21-6.37h2.06a3.08,3.08,0,0,0,2.66-4.61l-4.6-8a3.07,3.07,0,0,0-5.32,0l-4.6,8a3.08,3.08,0,0,0,2.67,4.61h4.13c0,2.31.08,4.61.24,6.91q-12.68,2.33-25.29,4.93l-4,.83c-.1-1.72-.17-3.45-.22-5.18l2.71-.4a3.07,3.07,0,0,0,2-5l-5.7-7.21a3.08,3.08,0,0,0-5.27.78l-3.39,8.54a3.08,3.08,0,0,0,3.3,4.18l3.4-.5c.06,1.79.14,3.57.25,5.36l-13.23,2.76c-1.89.39-1.09,3.29.8,2.89l12.64-2.65q.39,5.26,1.07,10.48L990,884.45c-1.9.3-1.09,3.19.8,2.89l7.08-1.11c.94,6.38,2.17,12.72,3.74,19,.47,1.87,3.37,1.08,2.9-.8a188,188,0,0,1-3.68-18.65l30.35-4.76a106.79,106.79,0,0,0,6.16,18c.79,1.76,3.38.23,2.59-1.52a100.57,100.57,0,0,1-5.8-16.92l20-3.14,2.49-.39c.72,6,1.28,12.06,1.9,18.08.2,1.9,3.2,1.92,3,0-.64-6.17-1.21-12.37-2-18.55l12.56-2c1.9-.3,1.09-3.19-.8-2.89l-12.13,1.9c-.51-4-1.12-7.93-1.87-11.85,5.76-.81,11.53-1.54,17.32-2.15C1076.58,859.37,1076.6,856.37,1074.67,856.57Zm-66.69,25-7.57,1.19c-.46-3.53-.81-7.08-1.07-10.63,9.76-2,19.53-4,29.33-5.78a104.29,104.29,0,0,0,1.83,11.68Zm25.47-4a103.59,103.59,0,0,1-1.83-11.75c7.57-1.37,15.14-2.64,22.75-3.75.77,4,1.38,7.92,1.9,11.92Z"/><path class="cls-6" d="M1680.21,809.7q-9-.63-18-.92-.14-3.46-.45-6.91l1.93.06a3.08,3.08,0,0,0,2.79-4.54l-4.37-8.09a3.07,3.07,0,0,0-5.32-.15l-4.82,7.83a3.08,3.08,0,0,0,2.53,4.69l4.24.12q.33,3.45.46,6.91-11.34-.33-22.68-.27c.23-2.11.54-4.22.9-6.31l2,.35a3.07,3.07,0,0,0,3.42-4.08l-3.16-8.63a3.07,3.07,0,0,0-5.24-.92l-5.9,7a3.08,3.08,0,0,0,1.82,5l4.08.71c-.39,2.27-.73,4.56-1,6.85-8.59.06-17.18.24-25.76.48l-4.08.13c.2-1.71.43-3.43.68-5.14l2.74.08a3.08,3.08,0,0,0,2.79-4.54l-4.37-8.08a3.08,3.08,0,0,0-5.33-.15l-4.81,7.82a3.08,3.08,0,0,0,2.53,4.69l3.43.1q-.37,2.65-.68,5.32l-13.51.43c-1.93.06-1.64,3,.29,3q6.45-.23,12.91-.42-.52,5.24-.76,10.5l-7.56-.13c-1.92,0-1.63,3,.29,3l7.17.12a192.2,192.2,0,0,0,.4,19.35c.14,1.92,3.13,1.64,3-.29a188.27,188.27,0,0,1-.4-19l30.72.54a105.83,105.83,0,0,0,3,18.77c.47,1.87,3.28.81,2.82-1a98.94,98.94,0,0,1-2.79-17.67l20.27.36,2.51,0c-.33,6.06-.82,12.11-1.24,18.14-.14,1.91,2.81,2.45,2.95.52.44-6.18,1-12.39,1.28-18.6l12.71.22c1.93,0,1.63-3-.28-3l-12.28-.22c.18-4,.27-8,.2-12,5.82.2,11.63.47,17.44.88C1681.6,812.79,1682.13,809.84,1680.21,809.7Zm-70,13.15-7.66-.13q.24-5.34.78-10.66c10-.3,19.92-.55,29.88-.63a106.15,106.15,0,0,0-.21,11.83Zm25.78.46a100.41,100.41,0,0,1,.23-11.89c7.68,0,15.37,0,23,.24.07,4,0,8-.19,12.06Z"/><path class="cls-12" d="M2091.88,946.5c98.12,87.46-410,238-1033,238-597.3,0-1245-45-1130-238,169.17-283.91,440-248,890-68C1049.78,970.86,1815.88,700.5,2091.88,946.5Z"/></g><g id="spøgelse"><path class="cls-13" d="M370.85,742.3c33.13,30,38.64,82.62,40.48,124.61,1.2,27.48-19,53.74-35.92,29.53-22.74-32.59-40.87,3.54-55.74,4.07s-18.94-26.88-44.28-2.56c-22,21.08-38.17-4.25-36.38-37.77,2.74-51.18,3.84-76.19,32.17-117.85C290.86,713.37,347.83,721.42,370.85,742.3Z"/><path class="cls-14" d="M246.63,884.38c1.65,2.29,3.23,4.65,5,6.88,1.38,1.77,3,3.5,5.25,4.12a.92.92,0,0,1-.49,1.77,12,12,0,0,1-6-4.45c-1.89-2.39-3.59-4.93-5.36-7.39a.92.92,0,1,1,1.58-.93Z"/><path class="cls-14" d="M378.08,760.87a27.06,27.06,0,0,1,8.87,10c.54,1-1.05,2-1.58.92a25.27,25.27,0,0,0-8.22-9.35.92.92,0,1,1,.93-1.58Z"/><path class="cls-6" d="M249.24,766.78a1.31,1.31,0,0,0,1.11.71h.91a254.65,254.65,0,0,0,54.89-4.64,154.19,154.19,0,0,0,17.25-4.55,89.14,89.14,0,0,0,15.66-6.69c8.6-4.8,13.86-10.38,15.35-16.38a15.15,15.15,0,0,0,.45-3.27,1.59,1.59,0,0,0-.47-1.15c27-3.66,46.75,0,46.69,6-.14,14.62-70.29,40.84-123,50.67-45.83,8.55-62,8.54-64.46-.53C212.3,781.86,228.12,775,249.24,766.78Z"/><path class="cls-6" d="M352.18,731.92c-.17,8.82-10.94,17.41-29.53,23.55-18.26,6-42.15,9.23-67.68,9.11l-3.15,0c6.14-1.51,12.29-11.07,17.75-22.29s3.16-42.35-3.06-49.49c-22.69-26.1-40.94-.62-40.94-.61-.15.17-1.35-.68-1.49-.8a3.78,3.78,0,0,1-1-1.32,7.07,7.07,0,0,1-.27-3.92c.65-4,2.92-7.82,5.27-11.08a55.34,55.34,0,0,1,11.78-11.89c5-3.78,10.63-7.11,16.78-8.47a58.6,58.6,0,0,1,32.9,2.83c6.68,2.66,12.32,7.5,17.86,12,16.15,13.21,37,48.2,44.65,61.6l.32,0a1.75,1.75,0,0,0-.15.34A1.86,1.86,0,0,0,352.18,731.92Z"/><path class="cls-15" d="M354.41,735.24c-1.49,6-6.75,11.58-15.35,16.38a89.14,89.14,0,0,1-15.66,6.69,154.19,154.19,0,0,1-17.25,4.55,254.65,254.65,0,0,1-54.89,4.64h-.91a1.31,1.31,0,0,1-1.11-.71l1.4-.54c0-.06,0-.11,0-.16s.44-.54,1.2-1.54l3.15,0c25.53.12,49.42-3.08,67.68-9.11,18.59-6.14,29.36-14.73,29.53-23.55a1.86,1.86,0,0,1,.09-.48,1.75,1.75,0,0,1,.15-.34l2-.28a1.59,1.59,0,0,1,.47,1.15A15.15,15.15,0,0,1,354.41,735.24Z"/><path class="cls-14" d="M221.19,783.59a3,3,0,0,0-1.05,4.42c1.19,1.71,3.58,1.65,5.44,1.62a.92.92,0,0,1,0,1.83,13.62,13.62,0,0,1-4-.35,5.48,5.48,0,0,1-3.17-2.37,4.79,4.79,0,0,1,1.83-6.73,1,1,0,0,1,1.26.33.93.93,0,0,1-.33,1.25Z"/><path class="cls-14" d="M283.38,659.42c-7-2.57-14.45-2.68-21.76-2.15-1.17.09-1.17-1.74,0-1.83,7.46-.54,15.15-.41,22.24,2.22,1.1.4.63,2.17-.48,1.76Z"/><ellipse class="cls-16" cx="309.9" cy="827.8" rx="9.78" ry="6.11"/><ellipse class="cls-6" cx="316.92" cy="810.99" rx="9.47" ry="16.8"/><ellipse class="cls-14" cx="319.26" cy="819.16" rx="2.06" ry="2.36"/><ellipse class="cls-14" cx="314.17" cy="811.3" rx="4.28" ry="4.89"/><ellipse class="cls-16" cx="361.53" cy="827.8" rx="10.69" ry="6.72"/><ellipse class="cls-6" cx="352.67" cy="811.3" rx="9.17" ry="17.72"/><ellipse class="cls-14" cx="350.22" cy="811.3" rx="4.28" ry="4.89"/><ellipse class="cls-14" cx="354.93" cy="819.07" rx="2.06" ry="2.36"/><path class="cls-6" d="M346,829.21a7,7,0,0,1-3.06,6.07,13.61,13.61,0,0,1-7.59,2.14A8.33,8.33,0,0,1,328.7,835a8,8,0,0,1-2.19-6.18c.12-1.16,1.95-1.17,1.84,0a6.17,6.17,0,0,0,1.58,4.8,6.47,6.47,0,0,0,5.44,2,12.42,12.42,0,0,0,6.18-1.55,5.28,5.28,0,0,0,2.63-4.82c-.1-1.17,1.74-1.17,1.84,0Z"/><g id="kurv"><path class="cls-6" d="M292.06,855.17a59.56,59.56,0,0,0-.67-7.12c-3.42-8.2-7-9.91-10.94-9.91-7.53,0-11.45,3.42-12.61,10.74,0-.13-.25,3-.26,4.75a1.57,1.57,0,0,1-1.54,1.54,1.51,1.51,0,0,1-1.54-1.54c1.25-10.54,6.55-17,10.31-17.71a28,28,0,0,1,8.57.38c3.66,1,6.41,4,8.52,7.13s3.29,11.26,3.23,11.74a1.64,1.64,0,0,1-.45,1.09,1.51,1.51,0,0,1-1.08.45,1.58,1.58,0,0,1-1.09-.45A1.5,1.5,0,0,1,292.06,855.17Z"/><path class="cls-17" d="M260.85,873.18a14.1,14.1,0,0,1-1.65-7.77h0c0-.51.1-1,.18-1.45a12.68,12.68,0,0,1,2.22-4.51,24.69,24.69,0,0,1,3.43-4l.25-.23c.59-.55,1.47-1.39,2.18-1.39a6.06,6.06,0,0,1,2.23.43,11.82,11.82,0,0,0-.93,1,23.11,23.11,0,0,0-3.37,20.26c.11.31.23.6.36.89A8.4,8.4,0,0,1,260.85,873.18Z"/><path class="cls-15" d="M260.27,873.54c1.34,2.16,3.7,3.18,5.89,3.77a6.41,6.41,0,0,0,4.43,3.57,5.34,5.34,0,0,0,3.59-.68,9.69,9.69,0,0,0,6.67,2.85h.44a9.4,9.4,0,0,0,6.13-2.87,3.82,3.82,0,0,0,2.42,1.17h.21c1.46,0,2.89-1,4.1-2.83a3.08,3.08,0,0,0,1.59.46,5.78,5.78,0,0,0,4.63-1.93c1.49-1.76,2-4.67,1.43-8.21-.1-.66-.19-1.27-.27-1.85-.59-4.14-.92-6.43-5.63-8.14-1-2.53-2.51-4.13-4.32-4.25a4.21,4.21,0,0,0-3.3,1.53,3,3,0,0,0-.22-.28c-2.32-2.88-5.3-4.38-8.38-4.22a8.69,8.69,0,0,0-3.09.74,4.9,4.9,0,0,0-1.2-.36,6.32,6.32,0,0,0-5.16,1.78,6.58,6.58,0,0,0-2.77-.61c-1,0-1.94.91-2.65,1.57a2.55,2.55,0,0,1-.24.23,24.73,24.73,0,0,0-3.53,4.08,13.27,13.27,0,0,0-2.33,4.77,14.09,14.09,0,0,0-.19,1.54A14.84,14.84,0,0,0,260.27,873.54Zm29.61,7.12a3.16,3.16,0,0,1-2-1c2.71-3,4.33-7.72,4.06-12.93a19.4,19.4,0,0,0-3.27-10,3.76,3.76,0,0,1,2.68-1.41h.17c1.47.1,2.8,1.47,3.73,3.88a24.56,24.56,0,0,1-1.18,18.14C292.85,879.56,291.36,880.75,289.88,880.66Zm10-4a5.13,5.13,0,0,1-4.11,1.68,2.4,2.4,0,0,1-1.22-.36c.05-.1.11-.2.17-.3a22.82,22.82,0,0,0,2.41-9.24,23.63,23.63,0,0,0-.9-8.69c3.82,1.54,4.11,3.55,4.65,7.38.09.59.17,1.21.28,1.87C301.67,872.28,301.21,875,299.85,876.61Zm-18.59,5.75c-2.86.15-5.64-1.26-7.82-4a19.4,19.4,0,0,1-1.1-21.33c1.89-2.92,4.51-4.6,7.37-4.75h.41a9.61,9.61,0,0,1,7.41,4,18.29,18.29,0,0,1,3.75,10.5C291.7,875.06,287.21,882.05,281.26,882.36ZM270.7,880.2c-4.2-.7-6.59-7.44-5.33-15a20.56,20.56,0,0,1,3.92-9.42c1.65-2,3.5-3.13,5.28-3.13a4.17,4.17,0,0,1,.71.06,3.57,3.57,0,0,1,.47.11,11.69,11.69,0,0,0-4,3.89,20.08,20.08,0,0,0,1.14,22.13,10.77,10.77,0,0,0,.77.88A4.84,4.84,0,0,1,270.7,880.2Zm-4.95-3.72a8.4,8.4,0,0,1-4.9-3.3,14.1,14.1,0,0,1-1.65-7.77h0c0-.51.1-1,.18-1.45a12.68,12.68,0,0,1,2.22-4.51,24.69,24.69,0,0,1,3.43-4l.25-.23c.59-.55,1.47-1.39,2.18-1.39a6.06,6.06,0,0,1,2.23.43,11.82,11.82,0,0,0-.93,1,23.11,23.11,0,0,0-3.37,20.26C265.5,875.9,265.62,876.19,265.75,876.48Z"/><path class="cls-17" d="M265.37,865.18a20.56,20.56,0,0,1,3.92-9.42c1.65-2,3.5-3.13,5.28-3.13a4.17,4.17,0,0,1,.71.06,3.57,3.57,0,0,1,.47.11,11.69,11.69,0,0,0-4,3.89,20.08,20.08,0,0,0,1.14,22.13,10.77,10.77,0,0,0,.77.88,4.84,4.84,0,0,1-3,.5C266.5,879.5,264.11,872.76,265.37,865.18Z"/><path class="cls-17" d="M295.74,878.29a2.4,2.4,0,0,1-1.22-.36c.05-.1.11-.2.17-.3a22.82,22.82,0,0,0,2.41-9.24,23.63,23.63,0,0,0-.9-8.69c3.82,1.54,4.11,3.55,4.65,7.38.09.59.17,1.21.28,1.87.54,3.33.08,6-1.28,7.66A5.13,5.13,0,0,1,295.74,878.29Z"/><path class="cls-17" d="M292,866.74a19.4,19.4,0,0,0-3.27-10,3.76,3.76,0,0,1,2.68-1.41h.17c1.47.1,2.8,1.47,3.73,3.88a24.56,24.56,0,0,1-1.18,18.14c-1.24,2.26-2.73,3.45-4.21,3.36a3.16,3.16,0,0,1-2-1C290.61,876.66,292.23,872,292,866.74Z"/><path class="cls-17" d="M281.26,882.36c-2.86.15-5.64-1.26-7.82-4a19.4,19.4,0,0,1-1.1-21.33c1.89-2.92,4.51-4.6,7.37-4.75h.41a9.61,9.61,0,0,1,7.41,4,18.29,18.29,0,0,1,3.75,10.5C291.7,875.06,287.21,882.05,281.26,882.36Z"/><path class="cls-6" d="M268.37,856.13c.63,1.83,5.93,4.5,11.91,4.56,4,0,11.25-2.57,11.62-4.61C293.19,849,265.89,849,268.37,856.13Z"/><path class="cls-10" d="M269.34,855.05c0,1.94,5.29,4.62,10.77,4.62s10.59-2.34,10.59-4.27-5.63-3.76-11.11-3.76S269.34,853.12,269.34,855.05Z"/><path class="cls-11" d="M270.37,856.59c.23.78,1.14,1.18,2.56,1.71a20.47,20.47,0,0,0,7.18,1.37,18.82,18.82,0,0,0,4.44-.51c2-.31,4.94-1.63,5.13-2.57.33-1.66-4.12-2.05-9.4-2.05S269.85,854.88,270.37,856.59Z"/><circle class="cls-6" cx="288.39" cy="869.84" r="2.31"/><ellipse class="cls-6" cx="275.07" cy="870.18" rx="2.48" ry="2.31"/><path class="cls-6" d="M286.16,872.4c-.13,1.38-1.54,2.11-2.74,2.41a6.54,6.54,0,0,1-4.14-.37c-.64-.28-1.53-.74-1.51-1.56a.26.26,0,0,1,.51,0c0,.56.77.89,1.2,1.09a5.77,5.77,0,0,0,1.73.47,5.44,5.44,0,0,0,3.4-.66,1.93,1.93,0,0,0,1-1.38c0-.32.54-.33.51,0Z"/></g><path class="cls-6" d="M268.34,834.52c0-6.74,4.53-12.22,10.09-12.22s10.08,5.48,10.08,12.22-4.52,12.22-10.08,12.22S268.34,841.26,268.34,834.52Zm3.67,0c0,4.72,2.88,8.55,6.42,8.55s6.41-3.83,6.41-8.55S282,826,278.43,826,272,829.8,272,834.52Z"/><ellipse class="cls-13" cx="278.43" cy="836.96" rx="6.42" ry="6.11"/></g><g id="græskar"><ellipse class="cls-6" cx="174.64" cy="897.5" rx="11.61" ry="16.14"/><ellipse class="cls-6" cx="131.9" cy="898.35" rx="11.89" ry="15.29"/><path class="cls-18" d="M187,780.26c9.06,15.89,25.3,41.34,35.24,57.89,16.08,26.76-3.72,57.37-33,52.12A226.72,226.72,0,0,0,153.41,887c-12.42,0-23,1.14-31.58,3.22C90.57,897.78,72.71,866,88.9,838.43c10-17,25.76-43.67,35.23-60C140.48,750.35,171.37,752.83,187,780.26Z"/><path class="cls-14" d="M216,875a15.38,15.38,0,0,1-8.53,7.4c-1,.35-.58,2,.45,1.64a17.11,17.11,0,0,0,9.55-8.18c.5-1-1-1.83-1.47-.86Z"/><path class="cls-6" d="M90.57,819.09c0,15,49.77,23.31,51.52,19.81,3.39-6.79-41.38-11.75-36.8-26s17.21-26.05,13.3-26.05S90.57,804.08,90.57,819.09Z"/><path class="cls-6" d="M218.79,818.83c0,15-48.35,23-50.09,19.51-3.4-6.8,40-11.44,35.37-25.74s-17.21-26-13.3-26S218.79,803.82,218.79,818.83Z"/><g id="kurv-2" data-name="kurv"><path class="cls-6" d="M139.29,846.86c-.2-1.89.88-9.45.9-9.48,4.55-10.93,9.32-13.2,14.56-13.2,10,0,15.24,4.55,16.79,14.31,0-.18.33,4,.35,6.32a2.06,2.06,0,0,0,2,2,2,2,0,0,0,2-2c-1.67-14-8.72-22.68-13.73-23.59a37.62,37.62,0,0,0-11.4.51c-4.87,1.31-8.55,5.33-11.35,9.5s-4.37,15-4.31,15.63a2.23,2.23,0,0,0,.6,1.45,2.05,2.05,0,0,0,2.9,0A2,2,0,0,0,139.29,846.86Z"/><path class="cls-17" d="M180.84,870.84A18.82,18.82,0,0,0,183,860.49h0a14.13,14.13,0,0,0-.24-1.93,17,17,0,0,0-2.95-6,32.75,32.75,0,0,0-4.57-5.28l-.33-.31c-.78-.73-2-1.85-2.9-1.85a8.1,8.1,0,0,0-3,.58,16.79,16.79,0,0,1,1.24,1.38,30.74,30.74,0,0,1,4.49,27c-.15.41-.31.8-.48,1.18C176.83,874.46,179.37,873.21,180.84,870.84Z"/><path class="cls-15" d="M183.94,860.43a15.59,15.59,0,0,0-.25-2,17.65,17.65,0,0,0-3.11-6.36,33.63,33.63,0,0,0-4.69-5.43l-.32-.3c-.94-.88-2.23-2.1-3.53-2.1a8.83,8.83,0,0,0-3.69.82c-2.2-1.91-4.58-2.75-6.87-2.36a6.7,6.7,0,0,0-1.6.47,11.47,11.47,0,0,0-4.11-1c-4.1-.21-8.07,1.79-11.16,5.62l-.29.37a5.66,5.66,0,0,0-4.39-2c-2.42.15-4.43,2.29-5.76,5.66-6.27,2.28-6.71,5.32-7.49,10.83-.11.78-.23,1.59-.37,2.47-.76,4.71-.08,8.59,1.92,10.93a7.68,7.68,0,0,0,6.15,2.57,4.05,4.05,0,0,0,2.12-.62c1.62,2.45,3.52,3.77,5.47,3.77h.28a5.07,5.07,0,0,0,3.21-1.56,12.44,12.44,0,0,0,8.16,3.82l.59,0a12.92,12.92,0,0,0,8.88-3.79,7.76,7.76,0,0,0,3.68,1,6.71,6.71,0,0,0,1.1-.09c2.39-.4,4.43-2.07,5.91-4.76,2.91-.79,6.05-2.14,7.83-5A19.75,19.75,0,0,0,183.94,860.43Zm-47.35,15.89A32.66,32.66,0,0,1,135,852.17c1.24-3.2,3-5,5-5.17h.22a5,5,0,0,1,3.56,1.88,25.83,25.83,0,0,0-4.35,13.39c-.35,6.92,1.8,13.2,5.41,17.21a4.14,4.14,0,0,1-2.64,1.31C140.22,880.92,138.23,879.33,136.59,876.32Zm-9.38-11.12c.14-.88.26-1.7.37-2.48.73-5.1,1.11-7.78,6.19-9.83a31.79,31.79,0,0,0-1.2,11.56,30.41,30.41,0,0,0,3.22,12.3c.07.14.15.27.23.41a3.19,3.19,0,0,1-1.64.49,6.82,6.82,0,0,1-5.46-2.25C127.1,873.26,126.5,869.64,127.21,865.2Zm13.12-2.89a24.37,24.37,0,0,1,5-14c2.76-3.43,6.25-5.29,9.87-5.29h.54c3.81.19,7.29,2.44,9.81,6.32a25.83,25.83,0,0,1-1.46,28.4c-2.9,3.6-6.6,5.48-10.41,5.29C145.75,882.65,139.76,873.34,140.33,862.31Zm23.43,17.2c.35-.37.7-.76,1-1.17a26.74,26.74,0,0,0,1.52-29.46A15.57,15.57,0,0,0,161,843.7l.63-.15a6,6,0,0,1,.94-.07c2.38,0,4.84,1.44,7,4.16a27.31,27.31,0,0,1,5.22,12.54c1.68,10.1-1.5,19.08-7.1,20A6.48,6.48,0,0,1,163.76,879.51Zm11-5.46a30.74,30.74,0,0,0-4.49-27,16.79,16.79,0,0,0-1.24-1.38,8.1,8.1,0,0,1,3-.58c.94,0,2.12,1.12,2.9,1.85l.33.31a32.75,32.75,0,0,1,4.57,5.28,17,17,0,0,1,2.95,6,14.13,14.13,0,0,1,.24,1.93h0a18.82,18.82,0,0,1-2.19,10.35c-1.47,2.37-4,3.62-6.52,4.39C174.49,874.85,174.65,874.46,174.8,874.05Z"/><path class="cls-17" d="M174.82,860.18a27.31,27.31,0,0,0-5.22-12.54c-2.19-2.72-4.65-4.16-7-4.16a6,6,0,0,0-.94.07l-.63.15a15.57,15.57,0,0,1,5.31,5.18,26.74,26.74,0,0,1-1.52,29.46c-.33.41-.68.8-1,1.17a6.48,6.48,0,0,0,4,.68C173.32,879.26,176.5,870.28,174.82,860.18Z"/><path class="cls-17" d="M134.38,877.65a3.19,3.19,0,0,0,1.64-.49c-.08-.14-.16-.27-.23-.41a30.41,30.41,0,0,1-3.22-12.3,31.79,31.79,0,0,1,1.2-11.56c-5.08,2.05-5.46,4.73-6.19,9.83-.11.78-.23,1.6-.37,2.48-.71,4.44-.11,8.06,1.71,10.2A6.82,6.82,0,0,0,134.38,877.65Z"/><path class="cls-17" d="M139.42,862.27a25.83,25.83,0,0,1,4.35-13.39,5,5,0,0,0-3.56-1.88H140c-2,.13-3.74,2-5,5.17a32.66,32.66,0,0,0,1.58,24.15c1.64,3,3.63,4.6,5.6,4.47a4.14,4.14,0,0,0,2.64-1.31C141.22,875.47,139.07,869.19,139.42,862.27Z"/><path class="cls-17" d="M153.67,883.06c3.81.19,7.51-1.69,10.41-5.29a25.83,25.83,0,0,0,1.46-28.4c-2.52-3.88-6-6.13-9.81-6.32h-.54c-3.62,0-7.11,1.86-9.87,5.29a24.37,24.37,0,0,0-5,14C139.76,873.34,145.75,882.65,153.67,883.06Z"/><path class="cls-6" d="M170.83,848.14c-.84,2.43-7.9,6-15.86,6.07-5.31.06-15-3.42-15.47-6.14C137.78,838.58,174.12,838.61,170.83,848.14Z"/><path class="cls-10" d="M169.54,846.7c0,2.58-7,6.15-14.34,6.15s-14.1-3.12-14.1-5.69,7.5-5,14.78-5S169.54,844.13,169.54,846.7Z"/><path class="cls-11" d="M168.17,848.75c-.31,1-1.52,1.57-3.41,2.28a27.5,27.5,0,0,1-9.56,1.82c-3.16,0-3-.23-5.91-.69-2.64-.4-6.58-2.15-6.83-3.41C142,846.53,147.94,846,155,846S168.85,846.48,168.17,848.75Z"/><circle class="cls-6" cx="144.17" cy="866.38" r="3.07"/><ellipse class="cls-6" cx="161.91" cy="866.84" rx="3.3" ry="3.07"/><path class="cls-6" d="M147.14,869.8c.18,1.83,2.06,2.81,3.65,3.2a8.62,8.62,0,0,0,5.51-.49c.85-.38,2-1,2-2.07a.34.34,0,0,0-.68,0c0,.75-1,1.19-1.6,1.44a7.48,7.48,0,0,1-2.31.63,7.24,7.24,0,0,1-4.52-.87,2.58,2.58,0,0,1-1.39-1.84c0-.43-.72-.44-.68,0Z"/></g><ellipse class="cls-17" cx="174.36" cy="677.55" rx="22.65" ry="14.72"/><path class="cls-15" d="M174.36,694C160.93,694,150,686.6,150,677.55s10.92-16.42,24.35-16.42,24.34,7.36,24.34,16.42S187.78,694,174.36,694Zm0-29.44c-11.55,0-21,5.85-21,13s9.4,13,21,13,20.95-5.84,20.95-13S185.91,664.52,174.36,664.52Z"/><path class="cls-17" d="M253.05,744.92c0,29.39-26.89,41.89-49.82,39.06-26.22-3.23-48.12-23.82-48.12-53.22S176.65,675,203,677.55C249.09,682.07,253.05,715.53,253.05,744.92Z"/><path class="cls-15" d="M209.75,786.08a54.51,54.51,0,0,1-6.73-.41,57.87,57.87,0,0,1-34.91-17.32,53.51,53.51,0,0,1-14.7-37.59c0-17,7-33.39,18.67-44,9-8.12,20-12,31-10.91,21.41,2.1,35.7,10.36,43.68,25.25,7,13.06,7.95,29.48,7.95,43.81,0,12.05-4.43,22.33-12.81,29.74S222,786.08,209.75,786.08Zm-10.28-107c-9,0-17.77,3.56-25.11,10.22-11,10-17.55,25.47-17.55,41.47A50.22,50.22,0,0,0,170.57,766a54.47,54.47,0,0,0,32.87,16.29c13.59,1.68,27.15-2.13,36.25-10.18,7.63-6.75,11.67-16.15,11.67-27.2,0-13.91-.9-29.81-7.55-42.21-7.41-13.81-20.83-21.49-41-23.47C201.68,679.13,200.57,679.07,199.47,679.07Z"/><path class="cls-17" d="M211.16,730.2c-3.91,23.44-14.45,47.56-27.74,47.56S163,754,163,730.2s4.52-47,23.21-48.13C201.55,681.15,215.69,703,211.16,730.2Z"/><path class="cls-15" d="M183.42,779.45c-6.95,0-12.74-5.51-16.76-16-3.43-8.91-5.32-20.74-5.32-33.3,0-32.06,8.34-48.82,24.8-49.82,6-.37,12,2.43,16.86,7.87,8.78,9.75,12.55,25.93,9.83,42.23C208.9,754.07,198,779.45,183.42,779.45Zm3.75-95.7c-.27,0-.55,0-.82,0-14.34.87-21.62,16.49-21.62,46.43,0,22.23,6.55,45.86,18.69,45.86,6.91,0,12.45-7.66,15.89-14.09,4.46-8.36,8.17-20,10.17-32.05,3.05-18.29-2.65-32.35-9-39.4C196.52,686.13,191.83,683.75,187.17,683.75Z"/><ellipse class="cls-17" cx="122.84" cy="680.66" rx="32.27" ry="18.4"/><path class="cls-15" d="M122.84,700.76c-19,0-34-8.83-34-20.1s14.92-20.1,34-20.1,34,8.83,34,20.1S141.89,700.76,122.84,700.76Zm0-36.8c-16.57,0-30.57,7.65-30.57,16.7s14,16.7,30.57,16.7,30.57-7.65,30.57-16.7S139.41,664,122.84,664Z"/><path class="cls-17" d="M155.11,722.56c0,28.29-27.33,55.2-52.65,55.2S53.2,768.13,56.6,726.24c2.28-28.21,27.32-54.92,52.65-54.92S155.11,694.26,155.11,722.56Z"/><path class="cls-15" d="M102.46,779.45c-17.11,0-29.33-4.23-37.37-13C56.88,757.6,53.45,744,54.9,726.1,56,712.2,62.65,698,73.05,687s23.73-17.41,36.2-17.41c26.22,0,47.56,23.75,47.56,52.94,0,13.74-6.31,28.1-17.31,39.39C128.66,773.08,115.16,779.45,102.46,779.45ZM109.25,673c-11.55,0-23.84,6-33.74,16.35s-16.16,23.87-17.22,37c-1.37,16.93,1.76,29.65,9.3,37.83,7.36,8,18.76,11.86,34.87,11.86,25.23,0,51-27,51-53.5C153.41,695.24,133.6,673,109.25,673Z"/><path class="cls-17" d="M160.77,729.07c0,25.95-16.86,47-37.65,47s-32.55-26-37.65-47c-6.13-25.22,16.86-47,37.65-47S160.77,703.11,160.77,729.07Z"/><path class="cls-15" d="M123.12,777.76c-10,0-18.76-5.52-26.12-16.39-7-10.34-11-23.06-13.18-31.9-2.76-11.33-.09-22.9,7.51-32.56,8-10.2,20.19-16.53,31.79-16.53,21.7,0,39.35,21.84,39.35,48.69S144.82,777.76,123.12,777.76Zm0-94c-10.58,0-21.74,5.84-29.12,15.24-6.94,8.83-9.38,19.36-6.88,29.65,2.09,8.58,6,20.88,12.7,30.81s14.52,14.89,23.3,14.89c19.82,0,35.95-20.32,35.95-45.29S142.94,683.77,123.12,683.77Z"/><path class="cls-17" d="M186.25,733c-5.72,24-14.07,44.73-31.42,44.73S126,757.6,123.4,733c-3.39-32.27,14.07-44.73,31.43-44.73S191.91,709.25,186.25,733Z"/><path class="cls-15" d="M154.83,779.45c-8.81,0-16.65-4.81-22.67-13.91-5.4-8.17-9.11-19.65-10.45-32.33-1.63-15.53,1.43-28.09,8.85-36.34,6-6.62,14.58-10.27,24.27-10.27,9,0,18.74,5.32,25.5,13.88a38.53,38.53,0,0,1,7.57,32.94c-3.43,14.43-7.1,24.55-11.55,31.87C170.64,774.69,163.39,779.45,154.83,779.45Zm0-89.45c-8.72,0-16.44,3.25-21.75,9.15-6.76,7.5-9.52,19.16-8,33.7,2.27,21.51,12.34,43.21,29.74,43.21,13.43,0,22.62-13.39,29.77-43.42h0a35.22,35.22,0,0,0-6.93-30C171.54,694.82,162.78,690,154.83,690Z"/><path class="cls-14" d="M219.82,687.27a20.26,20.26,0,0,1,7,2.45,10.22,10.22,0,0,1,3.92,5c.37,1,2,.58,1.64-.45a12.23,12.23,0,0,0-4.41-5.81c-2.27-1.61-5.05-2.24-7.72-2.82-1.07-.23-1.52,1.4-.45,1.64Z"/><path class="cls-14" d="M238,764.83a20,20,0,0,1-7.9,8.61.85.85,0,0,0,.86,1.47,21.65,21.65,0,0,0,8.51-9.22.87.87,0,0,0-.3-1.16.87.87,0,0,0-1.17.3Z"/><path class="cls-14" d="M70.69,761.86a17.23,17.23,0,0,0,9.4,7.61c1,.34,1.48-1.3.45-1.64A15.41,15.41,0,0,1,72.16,761a.85.85,0,0,0-1.47.85Z"/><path class="cls-6" d="M175.29,756.24l-1.28-1a4.79,4.79,0,0,0-6.71.75l-4.09,5.11-3.86-4.25a4.75,4.75,0,0,0-6.64.17l-4.37,4.74-5.17-5.35a4.8,4.8,0,0,0-6.75-.11l-1.18,1.14a4.8,4.8,0,0,0-.11,6.75l7.62,7.88a4.76,4.76,0,0,0,2.21,1.29,4.24,4.24,0,0,0,5-.91l6.12-6.65,5.68,6.27a4.23,4.23,0,0,0,4.32,1.2,4.72,4.72,0,0,0,3.1-1.74L176,763A4.79,4.79,0,0,0,175.29,756.24Z"/><path class="cls-6" d="M132.52,725.34a88.91,88.91,0,0,1,8.95,8.73c6.17,7.6,2.74,15.14-7,16a160.19,160.19,0,0,1-17,.46c-9.94-.38-13.31-7.86-7.36-15.72a91.85,91.85,0,0,1,8.67-9.19C123.27,721.37,127.88,721.31,132.52,725.34Z"/><circle class="cls-14" cx="132.46" cy="733.6" r="4.53"/><ellipse class="cls-14" cx="124.62" cy="740.9" rx="2.18" ry="2.21"/><path class="cls-6" d="M194.87,723.66a88.81,88.81,0,0,1,8.95,8.72c6.17,7.6,2.74,15.15-7,16a160.19,160.19,0,0,1-17,.47c-9.94-.39-13.31-7.86-7.36-15.73a94.14,94.14,0,0,1,8.67-9.19C185.62,719.68,190.23,719.62,194.87,723.66Z"/><circle class="cls-14" cx="193.61" cy="731.9" r="4.53"/><ellipse class="cls-14" cx="185.85" cy="738.58" rx="2.18" ry="2.21"/><path class="cls-19" d="M176.62,671.88c11.15-7.51,22-1.65,13.4-16.43-6.6-11.31-16.4-4.1-27.55,3.41S138.55,684,144.92,687.74C171,703,165.47,679.4,176.62,671.88Z"/><path class="cls-20" d="M151.15,671.88c-14.16,13,6.73,21,4,20.39-19.25-4-14.38-15,3.4-30.58,22.64-19.81,30-10.19,30.57-7.36.26,1.32-6.76-6.43-18.68,1.7C157.94,664.52,158.81,664.84,151.15,671.88Z"/><path class="cls-14" d="M189,660.79c0-.26,0-.06,0,0l0,.17c0,.1,0,.19-.07.29s-.06.19-.1.29l-.06.15c.07-.21,0,0,0,0a4.63,4.63,0,0,1-.29.54l-.19.27c-.09.13.08-.09,0,0l-.11.12a3.51,3.51,0,0,1-.42.44l-.23.2c-.14.12.13-.09,0,0l-.13.1a5.64,5.64,0,0,1-.53.31l-.15.07c-.17.08.18-.07,0,0l-.31.11a.85.85,0,0,0,.45,1.64,5.54,5.54,0,0,0,2.57-1.71,5.75,5.75,0,0,0,1.3-3,.88.88,0,0,0-.25-.6.86.86,0,0,0-.6-.25.84.84,0,0,0-.6.25,1,1,0,0,0-.25.6Z"/></g></g><g id="tid"><rect class="cls-17" x="1766" y="372.08" width="120.28" height="334.92" rx="60.14"/><path class="cls-21" d="M1806.37,385.68c-12,4.18-21.14,15.19-23.59,27.63a33.66,33.66,0,0,0-.45,10.55c.15,1.26,2.15,1.27,2,0-1.42-12,4.17-24.25,13.73-31.5a32.29,32.29,0,0,1,8.84-4.76c1.2-.41.68-2.34-.53-1.92Z"/><path class="cls-21" d="M1780.22,661.57a29,29,0,0,0,3.63,17,31.3,31.3,0,0,0,13.23,12.2,105.56,105.56,0,0,0,10.07,4.37c1.2.47,1.72-1.46.53-1.92-5.63-2.21-11.46-4.49-16.14-8.44a27,27,0,0,1-9.33-23.19c.13-1.27-1.87-1.26-2,0Z"/></g><g id="liv"><g id="mistet_liv" data-name="mistet liv"><path class="cls-6" d="M1891.25,278.86a12.24,12.24,0,0,0-5.24-1.65,6.39,6.39,0,0,0,3-5.2c0-3.86-4.08-7-9.12-7s-9.12,3.13-9.12,7a6.24,6.24,0,0,0,2.61,4.9l-7.23,4.92a2.66,2.66,0,0,0-.47.41c-9.39-8.49-22.52-12.17-36.44-12-10.79.11-21.12,1.51-29.76,5.75l-1.6-2.44a8.08,8.08,0,0,0,5.34-7.9c0-4.51-3.23-8.17-7.23-8.17s-7.22,3.66-7.22,8.17a9,9,0,0,0,.86,3.87,9.28,9.28,0,0,0-4.54-1.14c-4.12,0-7.46,2.49-7.46,5.57s3.34,5.57,7.46,5.57a8.9,8.9,0,0,0,5.19-1.57l1.81,2.75c-9.1,7.43-15.16,19.73-15.95,39.72-.4,10.31,1.13,17.06,4.07,21.45l-1.47,1.67a9.82,9.82,0,0,0-8-2.09c-4.92.72-8.46,4.36-7.91,8.11s5,6.21,9.92,5.48a10.37,10.37,0,0,0,1.69-.38,10.93,10.93,0,0,0,.16,4c1.1,4.78,5.1,7.93,8.93,7.05s6-5.47,4.94-10.24a10.13,10.13,0,0,0-3.13-5.4l2.12-2.42c4.58,1.85,10.26,2.07,16.51,1.85v3.95c0,.06,0,.12,0,.18s0,.27,0,.41c0,3.34,1.54,6,3.44,6,1.45,0,2.68-1.57,3.19-3.79h.57c.67,2.22,2.29,3.79,4.18,3.79s3.51-1.57,4.18-3.79h.69a4.7,4.7,0,0,0,9.22,0h1c.7,2.22,2.4,3.79,4.39,3.79s3.7-1.57,4.4-3.79h.59c.51,2.22,1.74,3.79,3.19,3.79,1.9,0,3.44-2.7,3.44-6,0-.14,0-.28,0-.41s0-.12,0-.18v-2.35c8.91.79,16.54.56,22.26-2.71a3,3,0,0,0,.41.46l2.26,2a9.29,9.29,0,0,0-.56,8.39c1.7,4.46,5.86,7,9.28,5.72,3.06-1.17,4.49-5,3.56-9,2.42.62,4.78,0,5.77-3.08,1.45-4.5-2-7-5.22-8.83s-6.21-2.65-8.1,1.13l-1.91-1.7c3.47-4.74,5.5-12,5.72-23,.26-12.68-2.53-22.65-7.41-30.26l7.91-5.39a11.54,11.54,0,0,0,4.68,4.83c4.35,2.51,9.26,2.13,11-.84S1895.6,281.37,1891.25,278.86Z"/><path class="cls-6" d="M1893,155.78a11.89,11.89,0,0,0-5.23-1.65,6.41,6.41,0,0,0,3-5.2c0-3.86-4.08-7-9.12-7s-9.13,3.13-9.13,7a6.27,6.27,0,0,0,2.62,4.9l-7.24,4.92a3.57,3.57,0,0,0-.46.4c-9.4-8.48-22.52-12.16-36.45-12-10.79.1-21.11,1.51-29.75,5.74l-1.6-2.44a8.08,8.08,0,0,0,5.34-7.89c0-4.52-3.24-8.18-7.23-8.18s-7.23,3.66-7.23,8.18a9,9,0,0,0,.86,3.87,9.14,9.14,0,0,0-4.53-1.15c-4.12,0-7.47,2.5-7.47,5.57s3.35,5.57,7.47,5.57a8.9,8.9,0,0,0,5.19-1.57l1.8,2.76c-9.1,7.43-15.16,19.73-15.94,39.71-.4,10.32,1.12,17.07,4.06,21.45l-1.46,1.68a9.88,9.88,0,0,0-8-2.1c-4.92.73-8.45,4.36-7.9,8.12s5,6.21,9.91,5.48a12.78,12.78,0,0,0,1.7-.38,10.52,10.52,0,0,0,.16,4c1.1,4.77,5.1,7.93,8.93,7s6-5.47,4.94-10.25a10.15,10.15,0,0,0-3.14-5.39l2.13-2.43c4.57,1.86,10.25,2.07,16.51,1.85v4c0,.06,0,.12,0,.18s0,.28,0,.42c0,3.34,1.54,6,3.44,6,1.44,0,2.68-1.57,3.19-3.79h.57c.66,2.22,2.28,3.79,4.18,3.79s3.51-1.57,4.17-3.79h.69a4.7,4.7,0,0,0,9.23,0h.94c.7,2.22,2.41,3.79,4.4,3.79s3.7-1.57,4.4-3.79h.59c.5,2.22,1.74,3.79,3.19,3.79,1.89,0,3.43-2.7,3.43-6,0-.14,0-.28,0-.42a1.09,1.09,0,0,0,0-.18V228c8.91.8,16.55.57,22.27-2.7a2.49,2.49,0,0,0,.41.45l2.26,2a9.29,9.29,0,0,0-.57,8.39c1.71,4.46,5.86,7,9.29,5.71,3-1.16,4.49-5,3.56-9,2.42.62,4.77,0,5.77-3.07,1.45-4.51-2-7-5.22-8.84s-6.21-2.65-8.11,1.13l-1.9-1.7c3.47-4.74,5.5-12,5.72-23,.26-12.68-2.53-22.65-7.42-30.26l7.92-5.39a11.49,11.49,0,0,0,4.67,4.82c4.35,2.51,9.27,2.14,11-.83S1897.36,158.29,1893,155.78Z"/><path class="cls-6" d="M1894.5,39.25a12,12,0,0,0-5.23-1.64,6.41,6.41,0,0,0,3-5.2c0-3.86-4.09-7-9.13-7s-9.12,3.13-9.12,7a6.25,6.25,0,0,0,2.62,4.89l-7.24,4.93a3,3,0,0,0-.46.4c-9.4-8.48-22.52-12.16-36.45-12-10.79.1-21.12,1.51-29.76,5.74l-1.59-2.44a8.09,8.09,0,0,0,5.34-7.89c0-4.52-3.24-8.18-7.23-8.18s-7.23,3.66-7.23,8.18a9,9,0,0,0,.86,3.87,9.17,9.17,0,0,0-4.53-1.15c-4.13,0-7.47,2.5-7.47,5.57s3.34,5.57,7.47,5.57a8.94,8.94,0,0,0,5.19-1.57l1.8,2.76c-9.1,7.42-15.16,19.73-15.94,39.71-.41,10.32,1.12,17.07,4.06,21.45L1782,103.9a9.88,9.88,0,0,0-8-2.1c-4.92.73-8.46,4.36-7.9,8.12s5,6.21,9.91,5.48a12.63,12.63,0,0,0,1.69-.38,10.73,10.73,0,0,0,.17,4c1.1,4.77,5.09,7.93,8.92,7s6-5.47,5-10.25a10.21,10.21,0,0,0-3.14-5.39l2.13-2.43c4.57,1.86,10.25,2.07,16.51,1.85v4a1.09,1.09,0,0,0,0,.18c0,.14,0,.28,0,.42,0,3.33,1.54,6,3.43,6,1.45,0,2.69-1.57,3.19-3.79h.57c.67,2.22,2.29,3.79,4.18,3.79s3.52-1.57,4.18-3.79h.69a4.7,4.7,0,0,0,9.23,0h.94c.7,2.22,2.4,3.79,4.4,3.79s3.69-1.57,4.4-3.79h.58c.51,2.22,1.75,3.79,3.19,3.79,1.9,0,3.44-2.71,3.44-6,0-.14,0-.28,0-.42s0-.12,0-.18v-2.35c8.91.8,16.54.57,22.27-2.7a3.39,3.39,0,0,0,.4.45l2.27,2a9.25,9.25,0,0,0-.57,8.39c1.7,4.46,5.86,7,9.29,5.71,3-1.16,4.49-5,3.55-9,2.42.62,4.78,0,5.77-3.07,1.45-4.51-2-7-5.21-8.84s-6.21-2.65-8.11,1.13l-1.91-1.7c3.48-4.74,5.5-12,5.73-23,.25-12.68-2.53-22.65-7.42-30.26l7.92-5.39a11.49,11.49,0,0,0,4.67,4.82c4.35,2.51,9.26,2.14,11-.83S1898.85,41.76,1894.5,39.25Z"/></g><g id="liv-2" data-name="liv"><path class="cls-22" d="M1806.65,26.27c0-4.51-3.24-8.18-7.23-8.18s-7.23,3.67-7.23,8.18a9,9,0,0,0,.86,3.87,9.17,9.17,0,0,0-4.53-1.14c-4.13,0-7.47,2.49-7.47,5.57s3.34,5.56,7.47,5.56a8.94,8.94,0,0,0,5.19-1.56l1.91,2.92a2.86,2.86,0,0,0,3.94.83l2.58-1.69a2.85,2.85,0,0,0,.82-3.94l-1.65-2.53A8.08,8.08,0,0,0,1806.65,26.27Z"/><path class="cls-22" d="M1894.64,39.52a12.07,12.07,0,0,0-5.23-1.65,6.39,6.39,0,0,0,3-5.2c0-3.86-4.09-7-9.13-7s-9.12,3.13-9.12,7a6.27,6.27,0,0,0,2.61,4.9l-7.23,4.92a2.85,2.85,0,0,0-.75,3.95l2.67,3.92a2.85,2.85,0,0,0,4,.75l8.32-5.66a11.38,11.38,0,0,0,4.67,4.82c4.35,2.51,9.26,2.14,11-.83S1899,42,1894.64,39.52Z"/><path class="cls-22" d="M1887.55,104.68c-3.17-1.84-6.21-2.65-8.11,1.13l-2.07-1.84a2.86,2.86,0,0,0-4,.23l-1.13,1.26a2.87,2.87,0,0,0,.23,4l2.26,2a9.29,9.29,0,0,0-.56,8.39c1.7,4.46,5.86,7,9.28,5.72,3.06-1.17,4.5-5,3.56-9,2.42.61,4.78,0,5.77-3.08C1894.21,109,1890.73,106.53,1887.55,104.68Z"/><path class="cls-22" d="M1791.86,116.1a10.2,10.2,0,0,0-3.14-5.4l2.38-2.71a2.86,2.86,0,0,0-.27-4l-2.68-2.34a2.85,2.85,0,0,0-4,.27l-2,2.26a9.85,9.85,0,0,0-8-2.1c-4.92.73-8.46,4.36-7.9,8.12s5,6.21,9.91,5.48a10.14,10.14,0,0,0,1.69-.38,10.72,10.72,0,0,0,.17,4c1.1,4.78,5.09,7.93,8.92,7S1793,120.87,1791.86,116.1Z"/><path class="cls-21" d="M1789.62,120.43a4.37,4.37,0,0,0,.51-4,6.18,6.18,0,0,0-.51-1.18c-.08-.14-.25-.06-.17.08a5,5,0,0,1,.51,4,3,3,0,0,1-.48.87c-.08.09.06.28.14.19Z"/><path class="cls-21" d="M1891.32,111.32a4.36,4.36,0,0,0-2.07-3.43,4.94,4.94,0,0,0-1.13-.61c-.15-.06-.23.1-.08.16a5.06,5.06,0,0,1,2.89,2.83,2.89,2.89,0,0,1,.16,1c0,.12.23.18.23.06Z"/><path class="cls-21" d="M1804.35,22.93a4.38,4.38,0,0,0-2.86-2.8,5.32,5.32,0,0,0-1.25-.31c-.16,0-.19.16,0,.18a5,5,0,0,1,3.51,2,2.72,2.72,0,0,1,.4.91c0,.11.27.12.24,0Z"/><path class="cls-21" d="M1889.69,29.3a4.39,4.39,0,0,0-3.35-2.19,6.19,6.19,0,0,0-1.29-.05c-.15,0-.16.2,0,.18a5,5,0,0,1,3.83,1.29,2.76,2.76,0,0,1,.58.81c0,.11.28.07.23,0Z"/><path class="cls-23" d="M1832.66,30.86c-27.18.26-51.47,8.71-53.09,50.18-1.07,27.29,11.37,29.66,27.79,29.09v4a1,1,0,0,0,0,.17c0,.14,0,.28,0,.42,0,3.34,1.53,6,3.43,6,1.45,0,2.68-1.57,3.19-3.79h.57c.67,2.22,2.29,3.79,4.18,3.79s3.52-1.57,4.18-3.79h.69a4.7,4.7,0,0,0,9.22,0h1c.7,2.22,2.4,3.79,4.4,3.79s3.69-1.57,4.39-3.79h.59c.51,2.22,1.75,3.79,3.19,3.79,1.9,0,3.44-2.7,3.44-6,0-.14,0-.28,0-.42s0-.11,0-.17v-2.36c19.47,1.74,32.88-1.35,33.48-30.62C1884,44.81,1859.84,30.61,1832.66,30.86Z"/><path class="cls-21" d="M1864.28,47.58c-1.51-4.76-6-8.54-11.14-9.78a15.33,15.33,0,0,0-4.43-.42c-.53,0-.58.81,0,.78a15.42,15.42,0,0,1,13,6.05,12.14,12.14,0,0,1,1.82,3.54c.15.47,1,.32.82-.17Z"/><ellipse class="cls-6" cx="1811.98" cy="91.21" rx="14.1" ry="12.44"/><ellipse class="cls-14" cx="1807.47" cy="95.74" rx="1.09" ry="1.1"/><circle class="cls-14" cx="1817.31" cy="88.24" r="4.03"/><ellipse class="cls-6" cx="1849.66" cy="94.05" rx="14.1" ry="12.44"/><ellipse class="cls-14" cx="1846.2" cy="96.84" rx="1.09" ry="1.1"/><circle class="cls-14" cx="1853.81" cy="89.9" r="4.03"/></g><g id="liv-3" data-name="liv"><path class="cls-22" d="M1805.33,143.05c0-4.51-3.23-8.17-7.23-8.17s-7.22,3.66-7.22,8.17a9,9,0,0,0,.86,3.87,9.18,9.18,0,0,0-4.54-1.14c-4.12,0-7.46,2.49-7.46,5.57s3.34,5.57,7.46,5.57a8.9,8.9,0,0,0,5.19-1.57l1.92,2.92a2.85,2.85,0,0,0,3.93.83l2.58-1.69a2.85,2.85,0,0,0,.83-3.93l-1.66-2.54A8.07,8.07,0,0,0,1805.33,143.05Z"/><path class="cls-22" d="M1893.33,156.3a12.24,12.24,0,0,0-5.24-1.65,6.39,6.39,0,0,0,3-5.2c0-3.86-4.08-7-9.12-7s-9.13,3.13-9.13,7a6.25,6.25,0,0,0,2.62,4.9l-7.23,4.92a2.86,2.86,0,0,0-.75,4l2.66,3.91a2.86,2.86,0,0,0,4,.75l8.31-5.66a11.46,11.46,0,0,0,4.68,4.82c4.34,2.51,9.26,2.14,11-.83S1897.67,158.81,1893.33,156.3Z"/><path class="cls-22" d="M1886.23,221.46c-3.17-1.84-6.21-2.65-8.1,1.14l-2.08-1.85a2.84,2.84,0,0,0-4,.23l-1.13,1.26a2.86,2.86,0,0,0,.23,4l2.26,2a9.26,9.26,0,0,0-.56,8.39c1.7,4.46,5.86,7,9.28,5.72,3.05-1.17,4.49-5,3.56-9,2.42.62,4.78,0,5.77-3.08C1892.9,225.8,1889.41,223.32,1886.23,221.46Z"/><path class="cls-22" d="M1790.54,232.88a10.13,10.13,0,0,0-3.13-5.4l2.37-2.71a2.87,2.87,0,0,0-.26-4l-2.68-2.34a2.85,2.85,0,0,0-4,.27l-2,2.26a9.87,9.87,0,0,0-8-2.1c-4.92.73-8.46,4.37-7.91,8.12s5,6.21,9.92,5.48a10.37,10.37,0,0,0,1.69-.38,10.71,10.71,0,0,0,.16,4c1.1,4.78,5.1,7.93,8.93,7.05S1791.64,237.65,1790.54,232.88Z"/><path class="cls-21" d="M1788.31,237.21a4.4,4.4,0,0,0,.51-4,5.65,5.65,0,0,0-.52-1.18c-.08-.13-.24-.06-.16.08a5,5,0,0,1,.51,4,2.85,2.85,0,0,1-.49.87c-.07.09.07.29.15.19Z"/><path class="cls-21" d="M1890,228.1a4.39,4.39,0,0,0-2.07-3.43,4.81,4.81,0,0,0-1.14-.61c-.14-.06-.22.1-.08.16a5,5,0,0,1,2.89,2.83,2.67,2.67,0,0,1,.16,1c0,.12.23.18.24.06Z"/><path class="cls-21" d="M1803,139.71a4.41,4.41,0,0,0-2.86-2.8,6.11,6.11,0,0,0-1.26-.31c-.15,0-.19.17,0,.18a5,5,0,0,1,3.51,2,2.72,2.72,0,0,1,.4.91c0,.11.27.12.24,0Z"/><path class="cls-21" d="M1888.38,146.08a4.39,4.39,0,0,0-3.35-2.19,6.19,6.19,0,0,0-1.29,0c-.16,0-.16.2,0,.19a5,5,0,0,1,3.83,1.28,3,3,0,0,1,.58.81c0,.12.28.07.23,0Z"/><path class="cls-23" d="M1831.35,147.64c-27.18.26-51.47,8.71-53.1,50.18-1.07,27.29,11.38,29.66,27.79,29.09v4c0,.06,0,.12,0,.17s0,.28,0,.42c0,3.34,1.54,6,3.44,6,1.44,0,2.68-1.57,3.19-3.79h.57c.67,2.22,2.28,3.79,4.18,3.79s3.51-1.57,4.18-3.79h.69a4.7,4.7,0,0,0,9.22,0h.94c.7,2.22,2.41,3.79,4.4,3.79s3.7-1.57,4.4-3.79h.59c.51,2.22,1.74,3.79,3.19,3.79,1.9,0,3.43-2.7,3.43-6v-2.94c19.48,1.73,32.89-1.36,33.48-30.63C1882.68,161.59,1858.53,147.39,1831.35,147.64Z"/><path class="cls-21" d="M1863,164.36c-1.51-4.76-6-8.54-11.14-9.78a15.36,15.36,0,0,0-4.43-.42c-.54,0-.59.81-.05.78a15.43,15.43,0,0,1,13,6.05,11.87,11.87,0,0,1,1.81,3.54c.16.47,1,.32.83-.17Z"/><ellipse class="cls-6" cx="1810.66" cy="207.99" rx="14.1" ry="12.44"/><ellipse class="cls-14" cx="1806.16" cy="212.52" rx="1.09" ry="1.1"/><circle class="cls-14" cx="1816" cy="205.03" r="4.03"/><ellipse class="cls-6" cx="1848.35" cy="210.83" rx="14.1" ry="12.44"/><ellipse class="cls-14" cx="1844.89" cy="213.62" rx="1.09" ry="1.1"/><circle class="cls-14" cx="1852.49" cy="206.68" r="4.03"/></g><g id="liv-4" data-name="liv"><path class="cls-22" d="M1803.33,266.05c0-4.51-3.23-8.17-7.23-8.17s-7.22,3.66-7.22,8.17a9,9,0,0,0,.86,3.87,9.18,9.18,0,0,0-4.54-1.14c-4.12,0-7.46,2.49-7.46,5.57s3.34,5.57,7.46,5.57a8.9,8.9,0,0,0,5.19-1.57l1.92,2.92a2.85,2.85,0,0,0,3.93.83l2.58-1.69a2.85,2.85,0,0,0,.83-3.93l-1.66-2.54A8.07,8.07,0,0,0,1803.33,266.05Z"/><path class="cls-22" d="M1891.33,279.3a12.24,12.24,0,0,0-5.24-1.65,6.39,6.39,0,0,0,3-5.2c0-3.86-4.08-7-9.12-7s-9.13,3.13-9.13,7a6.25,6.25,0,0,0,2.62,4.9l-7.23,4.92a2.86,2.86,0,0,0-.75,4l2.66,3.91a2.86,2.86,0,0,0,4,.75l8.31-5.66a11.46,11.46,0,0,0,4.68,4.82c4.34,2.51,9.26,2.14,11-.83S1895.67,281.81,1891.33,279.3Z"/><path class="cls-22" d="M1884.23,344.46c-3.17-1.84-6.21-2.65-8.1,1.14l-2.08-1.85a2.84,2.84,0,0,0-4,.23l-1.13,1.26a2.86,2.86,0,0,0,.23,4l2.26,2a9.26,9.26,0,0,0-.56,8.39c1.7,4.46,5.86,7,9.28,5.72,3.05-1.17,4.49-5,3.56-9,2.42.62,4.78,0,5.77-3.08C1890.9,348.8,1887.41,346.32,1884.23,344.46Z"/><path class="cls-22" d="M1788.54,355.88a10.13,10.13,0,0,0-3.13-5.4l2.37-2.71a2.87,2.87,0,0,0-.26-4l-2.68-2.34a2.85,2.85,0,0,0-4,.27l-2,2.26a9.87,9.87,0,0,0-8-2.1c-4.92.73-8.46,4.37-7.91,8.12s5,6.21,9.92,5.48a10.37,10.37,0,0,0,1.69-.38,10.71,10.71,0,0,0,.16,4c1.1,4.78,5.1,7.93,8.93,7.05S1789.64,360.65,1788.54,355.88Z"/><path class="cls-21" d="M1786.31,360.21a4.4,4.4,0,0,0,.51-4,5.65,5.65,0,0,0-.52-1.18c-.08-.13-.24-.06-.16.08a5,5,0,0,1,.51,4,2.85,2.85,0,0,1-.49.87c-.07.09.07.29.15.19Z"/><path class="cls-21" d="M1888,351.1a4.39,4.39,0,0,0-2.07-3.43,4.81,4.81,0,0,0-1.14-.61c-.14-.06-.22.1-.08.16a5,5,0,0,1,2.89,2.83,2.67,2.67,0,0,1,.16,1c0,.12.23.18.24.06Z"/><path class="cls-21" d="M1801,262.71a4.41,4.41,0,0,0-2.86-2.8,6.11,6.11,0,0,0-1.26-.31c-.15,0-.19.17,0,.18a5,5,0,0,1,3.51,2,2.72,2.72,0,0,1,.4.91c0,.11.27.12.24,0Z"/><path class="cls-21" d="M1886.38,269.08a4.39,4.39,0,0,0-3.35-2.19,6.19,6.19,0,0,0-1.29-.05c-.16,0-.16.2,0,.19a5,5,0,0,1,3.83,1.28,3,3,0,0,1,.58.81c0,.12.28.07.23,0Z"/><path class="cls-23" d="M1829.35,270.64c-27.18.26-51.47,8.71-53.1,50.18-1.07,27.29,11.38,29.66,27.79,29.09v3.95c0,.06,0,.12,0,.17s0,.28,0,.42c0,3.34,1.54,6,3.44,6,1.44,0,2.68-1.57,3.19-3.79h.57c.67,2.22,2.28,3.79,4.18,3.79s3.51-1.57,4.18-3.79h.69a4.7,4.7,0,0,0,9.22,0h.94c.7,2.22,2.41,3.79,4.4,3.79s3.7-1.57,4.4-3.79h.59c.51,2.22,1.74,3.79,3.19,3.79,1.9,0,3.43-2.7,3.43-6v-2.94c19.48,1.73,32.89-1.36,33.48-30.63C1880.68,284.59,1856.53,270.39,1829.35,270.64Z"/><path class="cls-21" d="M1861,287.36c-1.51-4.76-6-8.54-11.14-9.78a15.36,15.36,0,0,0-4.43-.42c-.54,0-.59.81-.05.78a15.43,15.43,0,0,1,13,6.05,11.87,11.87,0,0,1,1.81,3.54c.16.47,1,.32.83-.17Z"/><ellipse class="cls-6" cx="1808.66" cy="330.99" rx="14.1" ry="12.44"/><ellipse class="cls-14" cx="1804.16" cy="335.52" rx="1.09" ry="1.1"/><circle class="cls-14" cx="1814" cy="328.03" r="4.03"/><ellipse class="cls-6" cx="1846.35" cy="333.83" rx="14.1" ry="12.44"/><ellipse class="cls-14" cx="1842.89" cy="336.62" rx="1.09" ry="1.1"/><circle class="cls-14" cx="1850.49" cy="329.68" r="4.03"/></g></g><g id="point"><rect class="cls-17" x="174.88" y="984.17" width="164.12" height="62.15" rx="31.08"/><path class="cls-14" d="M180.39,1018.9a21,21,0,0,0,4.84,15,24.12,24.12,0,0,0,14,7.85,25.47,25.47,0,0,0,9.65,0,1.22,1.22,0,0,0,.85-1.5,1.26,1.26,0,0,0-1.5-.85c-.32.07-.64.12-1,.17,0,0-.21.06-.24,0l.16,0-.17,0-.57.06c-.65.06-1.31.1-2,.11s-1.32,0-2-.06c-.33,0-.66,0-1-.09l-.49-.05h0l-.33,0a26.45,26.45,0,0,1-3.82-.89c-.61-.19-1.22-.41-1.82-.65l-.22-.09-.08,0,.07,0a1.82,1.82,0,0,1-.43-.19c-.32-.14-.63-.29-.93-.44a23.77,23.77,0,0,1-3.18-1.92l-.36-.27c-.22-.17.22.17,0,0l-.18-.14c-.24-.19-.47-.38-.69-.58-.52-.46-1-1-1.5-1.46-.2-.22-.4-.44-.59-.67l-.31-.38a1.25,1.25,0,0,1-.15-.19c.1.14.12.16,0,0a1.47,1.47,0,0,1-.1-.13c-.38-.51-.74-1-1.07-1.58a18.33,18.33,0,0,1-.91-1.69l-.18-.39a2,2,0,0,1-.1-.21l0-.07,0,.07a2.56,2.56,0,0,0-.17-.43c-.07-.16-.13-.33-.19-.5a19.56,19.56,0,0,1-.59-2c-.09-.35-.16-.7-.23-1,0-.15-.05-.3-.07-.45a1.7,1.7,0,0,1,0-.22c0-.09,0-.44,0-.05,0-.68-.14-1.36-.16-2s0-1.41.06-2.11a1.22,1.22,0,0,0-1.22-1.22,1.26,1.26,0,0,0-1.22,1.22Z"/><path class="cls-14" d="M330.92,1011.78a20.92,20.92,0,0,0-4.84-15,24.12,24.12,0,0,0-14-7.85,25.47,25.47,0,0,0-9.65,0,1.22,1.22,0,0,0-.85,1.5,1.26,1.26,0,0,0,1.5.85l1-.17a.77.77,0,0,1,.25,0l-.17,0,.17,0,.57-.06c.66-.06,1.32-.1,2-.11s1.32,0,2,.06c.33,0,.66,0,1,.09l.49.05c.29,0-.28,0,0,0l.32,0a26.45,26.45,0,0,1,3.82.89c.61.2,1.22.41,1.82.65l.22.09.08,0-.07,0a1.89,1.89,0,0,1,.44.19l.93.45a23.19,23.19,0,0,1,3.17,1.91l.36.28c.22.16-.22-.18,0,0l.17.14c.24.19.47.38.69.58a18.82,18.82,0,0,1,1.5,1.46l.6.68c.1.12.2.25.31.37l.15.19c-.11-.14-.13-.16,0,0a.64.64,0,0,1,.1.13c.38.51.74,1,1.07,1.58a18.33,18.33,0,0,1,.91,1.69c.07.13.13.26.19.39l.09.21,0,.07c.05.13,0,.1,0-.07a2.26,2.26,0,0,0,.17.43c.07.17.13.33.19.5a19,19,0,0,1,.59,2c.09.34.16.69.23,1,0,.15.05.3.08.45l0,.22c0,.09,0,.44,0,0,0,.68.14,1.36.16,2a18.52,18.52,0,0,1-.06,2.11,1.22,1.22,0,0,0,1.22,1.22,1.26,1.26,0,0,0,1.22-1.22Z"/><path d="M245.23,1027.5v-16.85c-3.13,2.41-5.25,3.61-6.33,3.61a1.84,1.84,0,0,1-1.38-.62,2,2,0,0,1-.6-1.43,1.61,1.61,0,0,1,.59-1.39,12.61,12.61,0,0,1,2.09-1.15,13.89,13.89,0,0,0,6-4.83c.7-1,1.15-1.56,1.36-1.78a1.62,1.62,0,0,1,1.18-.33,1.9,1.9,0,0,1,1.58.76,3.33,3.33,0,0,1,.59,2.09v21.2q0,3.72-2.54,3.72a2.32,2.32,0,0,1-1.81-.75A3.26,3.26,0,0,1,245.23,1027.5Z"/><path d="M274.62,1007.47h-8.79l-1.06,6a10.37,10.37,0,0,1,4.85-1.41,8.22,8.22,0,0,1,3.33.67,8.56,8.56,0,0,1,2.71,1.84,8.35,8.35,0,0,1,1.83,2.79,8.82,8.82,0,0,1,.67,3.46,10.06,10.06,0,0,1-1.2,4.89,8.94,8.94,0,0,1-3.48,3.5,11.83,11.83,0,0,1-10.61.07,7.53,7.53,0,0,1-2.92-2.8,6,6,0,0,1-.87-2.77,2.16,2.16,0,0,1,2.12-2,2.48,2.48,0,0,1,2.31,1.8,6.26,6.26,0,0,0,2,2.56,4.69,4.69,0,0,0,2.82.92,4.33,4.33,0,0,0,2.5-.74,4.92,4.92,0,0,0,1.65-2,7.08,7.08,0,0,0,.59-2.94,6.73,6.73,0,0,0-.63-3,4.32,4.32,0,0,0-1.69-1.88,4.58,4.58,0,0,0-2.35-.62,4.9,4.9,0,0,0-2.28.39,19.8,19.8,0,0,0-2,1.36,3.89,3.89,0,0,1-2.12,1,2.28,2.28,0,0,1-1.61-.66,2,2,0,0,1-.71-1.49q0-.09.21-1.26l1.55-8.87a4.28,4.28,0,0,1,1-2.31,3.1,3.1,0,0,1,2.29-.72h9.78c1.93,0,2.89.73,2.89,2.2a1.91,1.91,0,0,1-.7,1.55A3.13,3.13,0,0,1,274.62,1007.47Z"/><path class="cls-16" d="M108.82,988.69c-7.55-.35-13.43,3.26-13.14,8.06.16,2.69,2.22,5.18,5.33,6.91-5.09,2.12-8.19,5.78-7.41,9.38.59,2.69,3.23,4.77,6.89,5.84-1.92,2.77-2.56,5.69-1.44,8,1.54,3.21,6,4.43,11,3.48-1.47,3.52-1.49,7,.28,9.29,3,3.83,9.83,2.83,15.34-2.23s16.77-20.75,13.8-24.58c-.61-.79-1.78-1-3.31-.83,1.18-1.71,1.69-3.19,1.2-4.23a2.1,2.1,0,0,0-.61-.72,1.88,1.88,0,0,0,0-.71c-.35-1.58-2.9-2.71-6.46-3.48,3.22-1.17,5.42-2.63,5.32-4.31C135.34,993.8,116.36,989,108.82,988.69Z"/><path class="cls-4" d="M130.89,1000q-11.68,1.2-23.31,2.79-3.3.45-6.6.94a.39.39,0,0,1-.11-.78q11.63-1.69,23.28-3,3.31-.37,6.64-.71c.49-.05.6.72.1.77Z"/><path class="cls-4" d="M131.92,1005.57q-6.15,2.5-12.24,5.12t-12.16,5.3c-2.29,1-4.57,2-6.84,3.08-.46.21-.76-.51-.31-.72q6-2.75,12.11-5.4t12.2-5.23c2.3-1,4.62-1.92,6.93-2.87a.39.39,0,0,1,.31.72Z"/><path class="cls-4" d="M134.84,1012.51q-9.32,7.4-19,14.32c-1.8,1.29-3.62,2.56-5.44,3.83-.41.28-.89-.33-.48-.61q9.78-6.78,19.2-14c1.76-1.36,3.5-2.72,5.24-4.1a.39.39,0,0,1,.48.61Z"/><path class="cls-16" d="M254.62,967.81c7.55-.25,13.13-4.3,12.47-9.06-.37-2.67-2.62-5-5.86-6.48,4.91-2.5,7.72-6.4,6.65-9.93-.79-2.64-3.59-4.5-7.32-5.28,1.7-2.91,2.11-5.87.81-8.12-1.78-3.08-6.28-4-11.27-2.6,1.19-3.63.94-7.11-1-9.25-3.26-3.58-10-2.05-15.12,3.43s-15.1,22-11.84,25.58c.67.74,1.86.87,3.36.56-1,1.8-1.43,3.32-.86,4.31a2,2,0,0,0,.67.68,2,2,0,0,0,.06.7c.47,1.55,3.11,2.48,6.71,3-3.12,1.42-5.19,3-5,4.71C227.78,964.79,247.07,968.05,254.62,967.81Z"/><path class="cls-4" d="M231.73,958.26q11.55-2.12,23-4.61,3.25-.71,6.51-1.45a.39.39,0,0,1,.16.77q-11.45,2.6-23,4.82-3.27.63-6.56,1.23a.39.39,0,0,1-.16-.76Z"/><path class="cls-4" d="M230.27,952.79q5.92-3,11.8-6.06t11.71-6.24q3.3-1.79,6.58-3.6c.44-.25.8.45.36.69q-5.81,3.21-11.65,6.33t-11.75,6.16c-2.22,1.15-4.45,2.28-6.69,3.41-.45.22-.81-.47-.36-.69Z"/><path class="cls-4" d="M226.81,946.1q8.72-8.11,17.83-15.77c1.69-1.42,3.4-2.84,5.12-4.24.39-.31.92.26.53.57q-9.21,7.53-18,15.51-2.46,2.24-4.9,4.5a.39.39,0,0,1-.53-.57Z"/><rect class="cls-4" x="122.09" y="950.17" width="118.98" height="55.59" rx="27.8" transform="translate(-464.66 221.81) rotate(-30)"/><circle class="cls-16" cx="136.89" cy="988.62" r="6.49"/><circle class="cls-16" cx="200.28" cy="968.09" r="6.49"/><circle class="cls-16" cx="209.37" cy="946.79" r="6.49"/><circle class="cls-16" cx="171.7" cy="965.5" r="6.49"/><circle class="cls-16" cx="224.96" cy="971.21" r="6.49"/><circle class="cls-16" cx="164.95" cy="987.58" r="6.49"/><circle class="cls-16" cx="156.9" cy="1008.1" r="6.49"/><circle class="cls-16" cx="189.11" cy="990.95" r="6.49"/></g><g id="appelsin"><path class="cls-24" d="M820,153.2c0,55.69-32,69.4-71.41,69.4s-80.8-32.24-71.4-69.4c11.37-45,32-69.4,71.4-69.4S820,97.51,820,153.2Z"/><path class="cls-25" d="M763.47,105.05c-4.35,4.81-9.48,3.85-15.32,2.43s-9.67-3.37-10.15-9.91c-.06,7.2,2.58,10.31,9.6,11.94S758.89,111.32,763.47,105.05Z"/><path class="cls-25" d="M765.48,73a35.84,35.84,0,0,0-8.18,8.88c-7.34,6.69-11.16,17.32-11.63,27,2.07-.11,4.14,0,6.21,0,.74-15.59,14.13-21.18,16.66-34.78A14.17,14.17,0,0,1,765.48,73Z"/><g id="Dutter"><circle class="cls-26" cx="723.82" cy="154.69" r="2.18"/><circle class="cls-26" cx="692.04" cy="159.05" r="2.18"/><circle class="cls-26" cx="689.38" cy="139.64" r="2.18"/><circle class="cls-26" cx="759.59" cy="127.25" r="2.18"/><circle class="cls-26" cx="813.43" cy="148.32" r="2.18"/><circle class="cls-26" cx="710.08" cy="136.62" r="2.18"/><circle class="cls-26" cx="718.13" cy="111.85" r="2.18"/><circle class="cls-26" cx="794.72" cy="164.36" r="2.18"/><circle class="cls-26" cx="801.45" cy="118.54" r="2.18"/><circle class="cls-26" cx="775.32" cy="101.15" r="2.18"/><circle class="cls-26" cx="717.83" cy="98.49" r="2.18"/><circle class="cls-26" cx="729.2" cy="172.42" r="2.18"/><circle class="cls-26" cx="789.43" cy="144.99" r="2.18"/><circle class="cls-26" cx="707.74" cy="163.7" r="2.18"/><circle class="cls-26" cx="696.72" cy="183.1" r="2.18"/><circle class="cls-26" cx="696.38" cy="120.88" r="2.18"/><circle class="cls-26" cx="729.49" cy="129.6" r="2.18"/><circle class="cls-26" cx="712.44" cy="197.49" r="2.18"/><circle class="cls-26" cx="737.18" cy="92.45" r="2.18"/><circle class="cls-26" cx="792.71" cy="189.79" r="2.18"/><circle class="cls-26" cx="747.57" cy="163.39" r="2.18"/><circle class="cls-26" cx="773.32" cy="205.51" r="2.18"/><circle class="cls-26" cx="761.61" cy="142.64" r="2.18"/><circle class="cls-26" cx="778.05" cy="136.62" r="2.18"/><circle class="cls-26" cx="764.29" cy="163.71" r="2.18"/><circle class="cls-26" cx="778.36" cy="159.05" r="2.18"/></g><path class="cls-14" d="M791,98.3a24,24,0,0,1,11.14,10.63c.3.57,1.16.07.87-.51a24.91,24.91,0,0,0-11.51-11c-.58-.27-1.09.6-.5.87Z"/><path class="cls-6" d="M741.78,206.12l0-.33c0-.27-.08.41,0,.15s.07-.38.12-.57.09-.33.15-.49.07-.2.11-.3-.19.4,0,.08.34-.66.54-1a2.43,2.43,0,0,0,.14-.2c.19-.28-.06.09-.09.11a3,3,0,0,0,.43-.5c.23-.24.53-.43.74-.67-.26.3-.27.19-.13.1l.24-.16c.16-.1.32-.2.49-.29l.25-.12c.14-.08.12-.15-.14,0a1.84,1.84,0,0,1,.57-.2,5.33,5.33,0,0,1,.66-.17l.36-.07c.39-.07-.27,0,0,0,.42,0,.84,0,1.27,0l.67.05a2.34,2.34,0,0,1,.38,0l-.23,0,.3,0a21.2,21.2,0,0,1,2.57.59c.38.12.76.25,1.13.39a2,2,0,0,1,.34.13s-.42-.19-.09,0l.64.31a10.13,10.13,0,0,1,1.06.62c.1.07.2.15.3.21.28.19-.08,0-.07-.06a4.81,4.81,0,0,1,.47.4,9.24,9.24,0,0,1,.87.9l.16.2c-.18-.24-.2-.27-.07-.1l.07.11a5.07,5.07,0,0,1,.36.54,5.3,5.3,0,0,1,.33.57c.05.1.1.2.14.3l.09.18h0c0-.27,0,0,0,.08s.1.25.14.38.14.49.2.73a2,2,0,0,0,2.46,1.4,2.06,2.06,0,0,0,1.41-2.47,11.34,11.34,0,0,0-3-5.31,13.5,13.5,0,0,0-5.38-3.18,16.74,16.74,0,0,0-6.34-1,9.05,9.05,0,0,0-8.65,8.58,2,2,0,0,0,2,2,2.06,2.06,0,0,0,2-2Z"/><path class="cls-6" d="M737.21,190.59c0,5.12-4.59,9.27-10.26,9.27s-10.26-4.15-10.26-9.27,8.06-14.49,10.26-9.27C730.59,189.93,737.21,185.47,737.21,190.59Z"/><ellipse class="cls-14" cx="731.92" cy="193.52" rx="2.65" ry="3.03"/><rect class="cls-6" x="734.89" y="176.17" width="1.2" height="12.76" rx="0.6" transform="translate(38.3 479.54) rotate(-37.01)"/><path class="cls-6" d="M761.23,189.9c0,4.95,4.44,9,9.92,9s9.92-4,9.92-9-7.79-14-9.92-9C767.63,189.26,761.23,185,761.23,189.9Z"/><ellipse class="cls-14" cx="773.86" cy="193.58" rx="2.74" ry="3.09"/><rect class="cls-27" x="761.5" y="176.26" width="1.2" height="12.76" rx="0.6" transform="translate(276.15 -432.19) rotate(38.2)"/></g><g id="Æble"><path class="cls-28" d="M1411.72,446.64c-2.62.3-28.82-1.57-34.18-1.73-13.33-.39-28.89,2.13-37.93,12.95-13,15.64-12,44.85,1.1,60.28,9.67,11.4,25.08,11.65,36.25,20.33,9.67,7.51,19.14,21.7,32.91,21.42,6-.11,11.66-3.86,17.46-3.86,3.27,0,22.84,2.85,28,1.56,11.06-2.74,13.14-18.81,18.69-26.92,4.79-7,12.89-10.52,18.2-17,5.5-6.71,7.72-15.55,9.88-23.77,2.63-10,3.68-20.88-.31-30.67-6.78-16.66-28.12-26.49-45.31-25.5-10,.58-19.82,3.46-29.19,6.74C1422.62,442.13,1416.66,446.09,1411.72,446.64Z"/><path class="cls-25" d="M1427.87,449c-3,7.9-8.61,8.7-15.13,9.21s-11.13-.49-13.72-8.7c2.25,9.28,6,12.22,13.8,11.52S1425.13,458.85,1427.87,449Z"/><path class="cls-25" d="M1418.87,412a47.9,47.9,0,0,0-5,13c-4.86,10.23-5.35,23.73-3,35,1.88-.85,3.82-1.48,5.74-2.17-3.77-18.07,7-29.2,5.45-45.63A10.86,10.86,0,0,1,1418.87,412Z"/><path class="cls-29" d="M1354.22,470.21c.26.1.53.18.81.26,1.86.51,4.09-.08,6-.08,2.22,0,3.71-.12,5.75.81,1,.46,5.76,2.8,6.38,1a2,2,0,0,0-.23-1.47,17.69,17.69,0,0,0-3.73-4.92,20.45,20.45,0,0,1-2.21-2.44c-.37-.51-.86-2.2-1.26-2.49-2.51-1.78.52-5.39-1.23-7.26-1-1-4-1-5.31-1.17-1.68-.19-3.68-.68-5.18.36s-2.72,3-4,4.21c-2.41,2.39-6.43,5.49-7.18,9,1.22,1.83,3.54,2,5.53,2.22C1350.62,468.46,1352.26,469.53,1354.22,470.21Z"/><path class="cls-29" d="M1367.76,519.58c-.06-.19-.12-.37-.2-.56-.5-1.23-1.76-2.21-2.55-3.26a8.34,8.34,0,0,1-2-3.5c-.17-.75-.88-4.34-2.15-3.91a1.38,1.38,0,0,0-.71.75,12.33,12.33,0,0,0-1.14,4.11,14,14,0,0,1-.41,2.24c-.12.42-.85,1.41-.84,1.75.08,2.12-3.19,2-3.48,3.72-.16,1,1.13,2.65,1.6,3.42.6,1,1.17,2.31,2.37,2.69a24.74,24.74,0,0,0,4,.41c2.33.32,5.73,1.23,8,.17.5-1.45-.39-2.79-1.1-4A17.56,17.56,0,0,1,1367.76,519.58Z"/><path class="cls-29" d="M1480.88,489.69l-.77.37c-1.7.9-2.92,2.86-4.31,4.15-1.62,1.52-2.62,2.63-4.74,3.35-1,.35-6.12,1.9-5.31,3.66a2,2,0,0,0,1.18.91,17.82,17.82,0,0,0,6.08,1,20.06,20.06,0,0,1,3.28.26c.61.12,2.14,1,2.62.95,3-.42,3.31,4.3,5.87,4.46,1.42.09,3.63-2,4.67-2.79,1.35-1,3.15-2,3.53-3.8s0-4,0-5.79c.12-3.38.92-8.4-.93-11.47-2.14-.5-4,1-5.55,2.17C1484.7,488.51,1482.78,488.86,1480.88,489.69Z"/><path class="cls-14" d="M1479.12,442.81a25.81,25.81,0,0,1,10.29,8.15c.42.56,1.37,0,.95-.55a26.85,26.85,0,0,0-10.69-8.54c-.64-.28-1.19.66-.55.94Z"/><path class="cls-6" d="M1411,530.28c0,5.57-5,10.08-11.15,10.08s-11.16-4.51-11.16-10.08,8.75-15.75,11.16-10.08C1403.84,529.56,1411,524.72,1411,530.28Z"/><ellipse class="cls-14" cx="1405.28" cy="533.47" rx="2.88" ry="3.29"/><rect class="cls-6" x="1408.51" y="514.61" width="1.31" height="13.88" rx="0.65" transform="translate(-30.02 953.39) rotate(-37.01)"/><path class="cls-6" d="M1433,528.73c0,5.38,4.83,9.75,10.79,9.75s10.79-4.37,10.79-9.75-8.47-15.23-10.79-9.74C1440,528,1433,523.35,1433,528.73Z"/><ellipse class="cls-14" cx="1446.72" cy="532.74" rx="2.98" ry="3.36"/><rect class="cls-27" x="1433.28" y="513.9" width="1.31" height="13.88" rx="0.65" transform="translate(629.18 -775.24) rotate(38.2)"/><path class="cls-6" d="M1415,543.28c0-.12,0-.24,0-.36,0-.29-.08.45,0,.16s.08-.41.13-.61.1-.36.16-.54l.12-.32c.09-.25-.21.43,0,.08a9.07,9.07,0,0,1,.59-1.05l.15-.22c.2-.3-.07.1-.1.12.16-.09.33-.4.47-.54s.57-.47.8-.73c-.29.33-.29.21-.14.11l.26-.17a5.74,5.74,0,0,1,.53-.32l.27-.13c.16-.09.14-.17-.15,0a2.24,2.24,0,0,1,.63-.22c.23-.07.47-.13.71-.18l.4-.08c.42-.08-.3,0,0,0,.46,0,.92-.06,1.38-.05l.74.05a1.75,1.75,0,0,1,.4,0l-.25,0,.33,0a20.53,20.53,0,0,1,2.79.65c.42.12.83.26,1.24.41a2.28,2.28,0,0,1,.36.15l-.09,0,.7.34a11.19,11.19,0,0,1,1.15.68l.33.23c.29.2-.1-.06-.08-.07s.45.38.51.43a12.73,12.73,0,0,1,1,1l.17.21c-.2-.26-.22-.29-.08-.11l.08.12c.14.19.27.38.39.58s.24.42.35.63a3.18,3.18,0,0,1,.16.32,1.24,1.24,0,0,1,.1.2h0c-.05-.29,0,0,0,.08s.1.28.15.42.15.53.21.8a2.18,2.18,0,0,0,4.21-1.16,12.19,12.19,0,0,0-3.24-5.79,14.81,14.81,0,0,0-5.84-3.45A18.24,18.24,0,0,0,1420,534a9.84,9.84,0,0,0-9.4,9.33,2.19,2.19,0,0,0,2.18,2.18,2.23,2.23,0,0,0,2.18-2.18Z"/></g><g id="pære"><path class="cls-19" d="M911.55,582.11c-.85,3-1.8,6-2.9,8.9-4.37,11.64-10.75,22.37-15.4,33.88s-7.32,23.75-4.21,36a26.88,26.88,0,0,0,7.34,12.87c5.16,5,12.84,7.4,19.38,8.88,19.49,4.43,40.93,5.27,60,.26,9.83-2.58,17.19-6.27,24.07-13.39,5.05-5.23,12-17.49,8-35-6-26.22-20.37-24.14-27.82-27.12-8.69-3.49-18.15-5.85-22.86-14.61-2-3.68-2.06-7.77-2.13-11.82a140.9,140.9,0,0,1,5.15-38.82c1.32-4.89,3.1-9.84.69-14.56-2.64-5.17-8.3-6.58-13.71-7.06s-10.77-.05-15.3,3.14c-3.67,2.58-5.7,6.47-7.41,10.55C918,549.5,916,566.18,911.55,582.11Z"/><path class="cls-30" d="M921.22,582.18c.27,2.58-2.06,4.53-4.34,3.23s.63-1.58-.25-2.78-1-2.57.94-3.09S921,579.6,921.22,582.18Z"/><path class="cls-30" d="M942.49,619.18c.26,2.58-2.06,4.53-4.34,3.23s.63-1.58-.26-2.77-1-2.57,1-3.1S942.22,616.6,942.49,619.18Z"/><path class="cls-30" d="M906.34,657.88c.26,2.58-2.07,4.54-4.34,3.24s.62-1.59-.26-2.78-1-2.57.94-3.1S906.07,655.3,906.34,657.88Z"/><path class="cls-30" d="M957.94,541c.26,2.58-2.07,4.53-4.34,3.23s.62-1.58-.26-2.77-1.05-2.58.94-3.1S957.67,538.38,957.94,541Z"/><path class="cls-30" d="M1005.57,649c.27,2.58-2.06,4.53-4.34,3.23s.63-1.58-.25-2.77-1.05-2.57.94-3.1S1005.31,646.41,1005.57,649Z"/><path class="cls-30" d="M940.06,583.72c.41,4-3.18,7-6.69,5s1-2.44-.4-4.28-1.61-4,1.46-4.78S939.65,579.74,940.06,583.72Z"/><path class="cls-30" d="M953.67,558.63c.41,4-3.18,7-6.69,5s1-2.44-.4-4.28-1.61-4,1.46-4.78S953.26,554.65,953.67,558.63Z"/><path class="cls-30" d="M978.77,612.22c.4,4-3.19,7-6.69,5s1-2.44-.4-4.28-1.62-4,1.45-4.78S978.36,608.24,978.77,612.22Z"/><path class="cls-30" d="M916.81,603.14c.27,2.58-2.06,4.53-4.34,3.23s.63-1.58-.25-2.78-1.05-2.57.94-3.09S916.55,600.56,916.81,603.14Z"/><path class="cls-30" d="M933,553.8c.27,2.58-2.06,4.53-4.34,3.23s.63-1.58-.25-2.77-1-2.57.94-3.1S932.71,551.22,933,553.8Z"/><path class="cls-14" d="M990.05,614.07a13.74,13.74,0,0,1,7.73,6,.54.54,0,0,0,.94-.55,14.78,14.78,0,0,0-8.38-6.5.54.54,0,0,0-.29,1.05Z"/><path class="cls-14" d="M959.4,530a9.33,9.33,0,0,0-5.81-6.22.55.55,0,0,0-.29,1.06,8.17,8.17,0,0,1,5,5.45.55.55,0,0,0,1.06-.29Z"/><path class="cls-25" d="M955.29,531.89c-3.3,3.66-7.21,2.93-11.65,1.85s-7.35-2.56-7.71-7.54c0,5.48,2,7.85,7.3,9.08S951.81,536.66,955.29,531.89Z"/><path class="cls-25" d="M955.46,510.06a24.16,24.16,0,0,0-5.53,6c-5,4.52-7.55,11.7-7.87,18.28,1.4-.07,2.8,0,4.2,0,.51-10.54,9.56-14.32,11.27-23.52A9.58,9.58,0,0,1,955.46,510.06Z"/><path class="cls-6" d="M943,653.86c0,5.58-5,10.11-11.19,10.11s-11.2-4.53-11.2-10.11,8.79-15.8,11.2-10.11C935.76,653.14,943,648.28,943,653.86Z"/><ellipse class="cls-14" cx="937.2" cy="657.06" rx="2.89" ry="3.3"/><rect class="cls-6" x="940.45" y="638.14" width="1.31" height="13.92" rx="0.66" transform="translate(-198.71 696.52) rotate(-37.01)"/><path class="cls-6" d="M954.78,652.67c0,5.4,4.85,9.78,10.83,9.78s10.82-4.38,10.82-9.78-8.49-15.28-10.82-9.77C961.77,652,954.78,647.27,954.78,652.67Z"/><ellipse class="cls-14" cx="968.56" cy="656.69" rx="2.99" ry="3.37"/><rect class="cls-27" x="955.08" y="637.79" width="1.31" height="13.92" rx="0.66" transform="translate(603.4 -452.97) rotate(38.2)"/><path class="cls-6" d="M941.45,671.64l0-.35c0-.3-.08.45,0,.15s.08-.41.14-.61a5.52,5.52,0,0,1,.16-.54c0-.11.08-.21.12-.32s-.21.43,0,.08a11.08,11.08,0,0,1,.6-1.06l.15-.22c.2-.3-.07.11-.1.13.16-.1.33-.4.47-.54s.57-.48.81-.74c-.29.33-.3.21-.14.11l.25-.17a5.89,5.89,0,0,1,.54-.32l.27-.13c.16-.09.14-.17-.15,0a2.29,2.29,0,0,1,.62-.22q.36-.11.72-.18l.4-.08c.42-.08-.3,0,0,0,.47,0,.92-.06,1.39-.05l.73.05a1.84,1.84,0,0,1,.41,0l-.25,0,.33,0a22.75,22.75,0,0,1,2.8.66c.42.12.83.26,1.24.42a1.42,1.42,0,0,1,.36.14s-.45-.21-.09,0l.7.34c.4.21.78.43,1.16.68l.32.23c.3.21-.09,0-.08-.06a5.3,5.3,0,0,1,.52.43,12.73,12.73,0,0,1,1,1l.18.21c-.2-.26-.23-.29-.09-.11l.08.12c.14.19.27.39.4.59s.24.41.35.62l.16.32.09.2c.08.18.08.18,0,0s0,0,0,.08l.15.42c.08.26.15.53.21.8a2.2,2.2,0,0,0,2.69,1.52,2.22,2.22,0,0,0,1.53-2.69,12.29,12.29,0,0,0-3.25-5.8,14.72,14.72,0,0,0-5.86-3.46,18.12,18.12,0,0,0-6.91-1.07,9.87,9.87,0,0,0-9.44,9.35,2.2,2.2,0,0,0,2.19,2.19,2.24,2.24,0,0,0,2.19-2.19Z"/></g><g id="Bloche"><path class="cls-31" d="M1255,242.84c10.35-5,20.72-3.39,23.16,3.5,1.36,3.86,0,8.56-3.38,12.83,8.37-.05,14.9,3.24,15.92,8.75.77,4.11-1.7,8.58-6.19,12.24,4.33,2.74,7,6.45,6.77,10.39-.24,5.4-5.71,9.73-13.38,11.4,4.15,4.05,6.24,8.92,5.11,13.17-1.88,7.12-12.08,9.78-22.78,5.95s-35.76-19.12-33.87-26.23c.39-1.47,1.9-2.48,4.15-3.11-2.66-1.7-4.26-3.47-4.18-5.22a3.11,3.11,0,0,1,.42-1.38,2.83,2.83,0,0,1-.4-1c-.45-2.41,2.45-5.51,7-8.69-5.2.26-9.13-.48-10-2.89C1220.93,265.68,1244.67,247.8,1255,242.84Z"/><path class="cls-4" d="M1230.83,271.73q17.06-5.24,34.28-9.89,4.89-1.32,9.79-2.6a.59.59,0,0,0-.31-1.14q-17.27,4.48-34.37,9.56-4.86,1.44-9.71,2.93c-.72.22-.41,1.37.32,1.14Z"/><path class="cls-4" d="M1232.69,280.13q10.07-.12,20.16-.08t20.15.23q5.7.11,11.4.26c.76,0,.76-1.16,0-1.19q-10.08-.27-20.15-.39t-20.16-.1q-5.7,0-11.4.08a.6.6,0,0,0,0,1.19Z"/><path class="cls-4" d="M1232.7,291.58q17.41,4.83,35.07,8.8,4.93,1.1,9.88,2.13c.74.16,1.06-1,.31-1.14q-17.7-3.71-35.19-8.3-4.89-1.27-9.76-2.64a.6.6,0,0,0-.31,1.15Z"/><path class="cls-31" d="M1064.87,241c-10.36-5-20.73-3.39-23.16,3.49-1.37,3.86,0,8.57,3.38,12.84-8.38,0-14.9,3.24-15.93,8.74-.77,4.12,1.7,8.59,6.19,12.25-4.33,2.74-6.95,6.45-6.77,10.38.25,5.4,5.71,9.73,13.38,11.4-4.14,4.06-6.23,8.93-5.11,13.17,1.89,7.12,12.09,9.78,22.79,6s35.75-19.11,33.87-26.23c-.39-1.47-1.9-2.47-4.15-3.11,2.66-1.7,4.26-3.47,4.18-5.21a2.93,2.93,0,0,0-.43-1.38,2.63,2.63,0,0,0,.4-1c.45-2.41-2.45-5.51-7-8.68,5.2.26,9.14-.49,10-2.89C1099,263.84,1075.22,246,1064.87,241Z"/><path class="cls-4" d="M1089.07,269.89q-17.05-5.24-34.28-9.89-4.89-1.32-9.8-2.59a.59.59,0,0,1,.32-1.14q17.26,4.49,34.37,9.55,4.86,1.44,9.7,2.93c.73.23.42,1.37-.31,1.14Z"/><path class="cls-4" d="M1087.21,278.29q-10.08-.1-20.16-.08t-20.16.23c-3.8.07-7.59.16-11.39.26a.59.59,0,0,1,0-1.18q10.07-.27,20.14-.4t20.16-.09c3.81,0,7.61,0,11.41.08a.59.59,0,0,1,0,1.18Z"/><path class="cls-4" d="M1087.2,289.74q-17.43,4.85-35.07,8.8-4.94,1.11-9.88,2.14c-.74.15-1.06-1-.32-1.14q17.7-3.71,35.19-8.3,4.89-1.29,9.76-2.64a.59.59,0,0,1,.32,1.14Z"/><path class="cls-16" d="M1213.24,240.55l-100.8,90.94a80.47,80.47,0,0,0,25.88,11.08l90.35-81.51A61.47,61.47,0,0,0,1213.24,240.55Z"/><path class="cls-16" d="M1084.25,283c0,1.08,0,2.16.11,3.23L1156.6,221C1116.44,222,1084.25,249.38,1084.25,283Z"/><path class="cls-16" d="M1177.46,222.94l-89.09,80.38a59.85,59.85,0,0,0,12.1,18.24l99.87-90.11A82.27,82.27,0,0,0,1177.46,222.94Z"/><path class="cls-16" d="M1233.2,277.7,1158.67,345h.19c41.21,0,74.61-27.74,74.61-62A51.28,51.28,0,0,0,1233.2,277.7Z"/><path class="cls-4" d="M1158.86,221c-.75,0-1.51,0-2.26,0l-72.24,65.18a52.36,52.36,0,0,0,4,17.11l89.09-80.38A89,89,0,0,0,1158.86,221Z"/><path class="cls-4" d="M1200.34,231.45l-99.87,90.11a70.21,70.21,0,0,0,12,9.93l100.8-90.94A73.21,73.21,0,0,0,1200.34,231.45Z"/><path class="cls-4" d="M1228.67,261.06l-90.35,81.51a88.38,88.38,0,0,0,20.35,2.38l74.53-67.25A52.9,52.9,0,0,0,1228.67,261.06Z"/><path class="cls-14" d="M1203.54,238.43a29.15,29.15,0,0,1,12.76,9.34,27,27,0,0,1,2.49,3.77c.37.67,1.4.07,1-.6a30.38,30.38,0,0,0-11.65-11.67,29,29,0,0,0-4.32-2c-.72-.27-1,.88-.31,1.14Z"/><circle class="cls-6" cx="1188.14" cy="310.42" r="12.74"/><circle class="cls-14" cx="1185.36" cy="315.02" r="4.15"/><circle class="cls-14" cx="1192.67" cy="308.87" r="2.11"/><path class="cls-6" d="M1199.42,307.87a7,7,0,0,0,5.4-6.13.87.87,0,1,0-1.73,0v.07a2.07,2.07,0,0,1,0,.22,3.48,3.48,0,0,1-.1.44c0,.14-.09.29-.14.43a1.8,1.8,0,0,1-.08.21c.07-.18,0,.05,0,.07a8.78,8.78,0,0,1-.44.79l-.13.18s-.16.21,0,.07c-.09.12-.19.23-.29.34a5.52,5.52,0,0,1-.65.63l-.07.05-.18.13c-.12.08-.25.17-.38.24a3,3,0,0,1-.4.21l-.17.08c-.06,0,0,0,0,0l-.1,0a5.81,5.81,0,0,1-.9.27.86.86,0,0,0-.61,1.06.9.9,0,0,0,1.07.61Z"/><path class="cls-6" d="M1201.23,310.36a7,7,0,0,0,5.4-6.13.87.87,0,0,0-1.73,0c0,.07,0,.23,0,.07a1.43,1.43,0,0,1,0,.22c0,.15-.06.3-.1.44s-.09.29-.14.43a1.8,1.8,0,0,1-.08.21l0,.07a6.69,6.69,0,0,1-.44.79l-.13.19s-.16.21,0,.06c-.09.12-.19.24-.29.35a5.56,5.56,0,0,1-.66.62l-.06.05-.18.13-.38.25-.4.21-.17.08h0l-.1,0a5.77,5.77,0,0,1-.9.26.87.87,0,0,0-.61,1.07.89.89,0,0,0,1.07.6Z"/><circle class="cls-6" cx="1125.39" cy="308.68" r="12.74"/><circle class="cls-14" cx="1122.61" cy="313.29" r="4.15"/><circle class="cls-14" cx="1129.91" cy="307.14" r="2.11"/><path class="cls-6" d="M1112.68,308.23a7,7,0,0,1-5.4-6.13.88.88,0,0,1,.87-.87.89.89,0,0,1,.86.87c0,.07,0,.23,0,.07a1.7,1.7,0,0,0,0,.22c0,.15.06.3.1.44s.09.29.14.43a1.8,1.8,0,0,0,.08.21c-.07-.18,0,0,0,.07a7.59,7.59,0,0,0,.44.79c0,.06.09.12.13.19s.16.21,0,.06c.09.12.19.24.29.35a5.56,5.56,0,0,0,.66.62l.06.05.18.13c.12.09.25.17.38.25l.4.21.17.08h0l.1,0a5.77,5.77,0,0,0,.9.26.87.87,0,0,1,.61,1.07.89.89,0,0,1-1.07.6Z"/><path class="cls-6" d="M1114.46,305a7,7,0,0,1-5.41-6.13.87.87,0,0,1,.87-.87.89.89,0,0,1,.87.87c0,.06,0,.22,0,.07,0,.07,0,.14,0,.22s.06.29.1.44.09.29.14.43l.08.21c-.07-.18,0,0,0,.07a7,7,0,0,0,.45.79l.12.18s.16.21,0,.07c.09.12.19.23.29.34a5.6,5.6,0,0,0,.66.63s.21.15.06.05l.18.13c.13.08.25.17.38.24a3.84,3.84,0,0,0,.4.21l.17.08c.06,0,0,0,0,0l.1,0a5.92,5.92,0,0,0,.91.27.87.87,0,0,1,.6,1.06.89.89,0,0,1-1.06.61Z"/><path class="cls-6" d="M1149.57,322a4.49,4.49,0,0,0,2.27,3.85,9.49,9.49,0,0,0,5.19,1,8.21,8.21,0,0,0,4.91-1.47,4.59,4.59,0,0,0,1.86-4.08c-.09-.75-1.28-.76-1.18,0a3.5,3.5,0,0,1-1.52,3.24,7,7,0,0,1-4.07,1.12,8.81,8.81,0,0,1-4.31-.71,3.36,3.36,0,0,1-2-3,.6.6,0,0,0-1.19,0Z"/></g><g id="candycorn"><path class="cls-32" d="M619.41,459.7l-10.75-25.84C574.12,442.51,519,445.51,490,432.09L478.49,459.7a26.64,26.64,0,0,0,24.61,36.87h91.7A26.64,26.64,0,0,0,619.41,459.7Z"/><path class="cls-4" d="M590.7,390.66l-17.15-41.24c-9.1-21.89-40.11-21.89-49.21,0l-17.75,42.69C533.79,396.33,574.74,395.3,590.7,390.66Z"/><path class="cls-17" d="M608.66,433.86l-16.82-40.45-1.14-2.75c-16,4.64-56.91,5.67-84.11,1.45l-.54,1.3L490,432.09C519,445.51,574.12,442.51,608.66,433.86Z"/><path class="cls-16" d="M595,481c0,1.77-3.74,3.2-8.34,3.2s-8.33-1.43-8.33-3.2,3.73-3.21,8.33-3.21S595,479.23,595,481Z"/><circle class="cls-6" cx="575.77" cy="467.17" r="14.14"/><circle class="cls-14" cx="572.69" cy="472.28" r="4.6"/><circle class="cls-14" cx="580.8" cy="465.45" r="2.34"/><path class="cls-16" d="M516.55,477.16c0,1.77-3.73,3.2-8.33,3.2s-8.33-1.43-8.33-3.2,3.73-3.21,8.33-3.21S516.55,475.39,516.55,477.16Z"/><circle class="cls-6" cx="519.73" cy="464.61" r="14.14"/><circle class="cls-14" cx="516.65" cy="469.72" r="4.6"/><circle class="cls-14" cx="524.76" cy="462.89" r="2.34"/><path class="cls-6" d="M538.6,479.07a4.83,4.83,0,0,0,2.46,4.17,10.29,10.29,0,0,0,5.6,1.11,8.78,8.78,0,0,0,5.31-1.58,5,5,0,0,0,2-4.41c-.1-.81-1.38-.82-1.28,0a3.8,3.8,0,0,1-1.64,3.5,7.64,7.64,0,0,1-4.4,1.21,9.51,9.51,0,0,1-4.66-.77,3.65,3.65,0,0,1-2.12-3.23c0-.83-1.25-.83-1.28,0Z"/><path class="cls-21" d="M615.58,469.27A21.22,21.22,0,0,1,609,485.79a19.56,19.56,0,0,1-4.22,3.07.66.66,0,0,0-.37.82.64.64,0,0,0,.83.37,22.51,22.51,0,0,0,11.26-15.37,21,21,0,0,0,.35-5.54c-.05-.82-1.32-.69-1.27.13Z"/><path class="cls-21" d="M558.58,339.16a15.69,15.69,0,0,1,9.07,12.37c.1.82,1.34.5,1.24-.31a16.79,16.79,0,0,0-9.64-13.15c-.75-.34-1.42.75-.67,1.09Z"/></g><g id="slikkepind"><rect class="cls-33" x="1585.7" y="195.85" width="4.52" height="80.11" rx="2.26"/><circle class="cls-34" cx="1587.96" cy="153.33" r="47.04"/><path class="cls-23" d="M1629.05,138.77c-11.36-29.19-34.54-30.91-42.16-31.48-8.59-.64-30.41,8.22-38.92,22.52-4.5,7.55-5.55,16.15-3.13,25.54,2.24,8.66,7,16.17,10.62,21,6.5,8.6,16.77,13.33,29.68,13.68,9.25.24,18-1.94,20.31-3.24l.62-.34c4.72-2.61,13.53-7.48,15.48-28.55a38.52,38.52,0,0,0-4.72-22.29c-3.32-6-7.53-10-10.37-11.66l-.69-.42c-7.91-4.81-14.74-9-32.93,0-17.46,8.63-17.84,26.42-16,31.93,5.94,17.8,23.06,24.21,35.91,24.29h.07c4.83,0,10-3.11,13.55-8.15,2.82-4,6.87-12.69,2.21-25.26-3.06-8.26-7.62-13.46-13.57-15.46-7.77-2.61-14.9,1.35-16.9,2.63a19.81,19.81,0,0,0-9.23,19c.66,6.57,4.36,12.08,9.43,14a18.65,18.65,0,0,0,14.77-.23,13.23,13.23,0,0,0,7-8,11.38,11.38,0,0,0-.79-9.41c-3.1-5.27-10.06-6.75-12.68-7.31l-.17,0a3.49,3.49,0,0,0-1.46,6.83l.18,0c1.63.35,6.57,1.4,8.11,4,.21.36.86,1.46.13,3.81A6.24,6.24,0,0,1,1590,160a11.92,11.92,0,0,1-9.21,0c-2.59-1-4.6-4.31-5-8.22a12.83,12.83,0,0,1,6-12.4c2.76-1.76,7.08-3.19,10.92-1.89s7,5.07,9.25,11.26c3.55,9.58.65,15.9-1.39,18.82-2.51,3.58-5.83,5.18-7.86,5.18-10.54-.07-24.55-5.22-29.33-19.52-.77-2.31-1.74-16.43,12.48-23.46,14.74-7.29,19.06-4.67,26.21-.32l.69.42c2.13,1.29,5.4,4.6,7.89,9.08a31.54,31.54,0,0,1,3.86,18.25c-1.61,17.4-7.8,20.82-11.9,23.09l-.63.35c-2.65,1.29-28.63,7.84-41-8.55-14.65-19.39-10.71-32.57-7.06-38.71,7.09-11.91,26.39-19.57,32.4-19.12,7.22.53,26.41,2,36.17,27,4.55,11.71,3.52,17.51,1.47,26-2.53,10.46-5.89,15.25-20.84,23.07-20.59,10.76-46.48-7.39-46.74-7.58a3.49,3.49,0,0,0-4.06,5.69,77.13,77.13,0,0,0,17.51,8.83,56.16,56.16,0,0,0,18.65,3.45,38.16,38.16,0,0,0,17.87-4.2c15.93-8.33,21.17-14.26,24.4-27.62C1633.11,159.38,1634.24,152.12,1629.05,138.77Z"/><path class="cls-14" d="M1613.27,119.77a14,14,0,0,1,5.16,4.91c.41.67,1.48,0,1.06-.63a15.23,15.23,0,0,0-5.59-5.34c-.7-.38-1.32.68-.63,1.06Z"/><path class="cls-14" d="M1552.65,186.08a9.19,9.19,0,0,0,5.58,4.29.62.62,0,0,0,.33-1.19,7.92,7.92,0,0,1-4.84-3.72.62.62,0,0,0-1.07.62Z"/><circle class="cls-6" cx="1603.37" cy="176.56" r="9.06"/><circle class="cls-14" cx="1601.4" cy="179.84" r="2.95"/><circle class="cls-14" cx="1606.59" cy="175.46" r="1.5"/><circle class="cls-6" cx="1570.3" cy="175.51" r="8.42"/><circle class="cls-14" cx="1568.46" cy="178.55" r="2.74"/><circle class="cls-14" cx="1573.29" cy="174.49" r="1.39"/><path class="cls-6" d="M1578.36,183.66a4.66,4.66,0,0,0,2.37,4,9.87,9.87,0,0,0,5.4,1.08,8.47,8.47,0,0,0,5.1-1.53,4.77,4.77,0,0,0,1.94-4.24c-.1-.78-1.33-.79-1.23,0a3.66,3.66,0,0,1-1.58,3.37,7.39,7.39,0,0,1-4.23,1.17,9.22,9.22,0,0,1-4.5-.75,3.5,3.5,0,0,1-2-3.11c0-.79-1.21-.79-1.24,0Z"/></g></g></svg>