<svg xmlns="http://www.w3.org/2000/svg" width="97" height="89" viewBox="0 0 97 89"><defs><style>.cls-1{fill:none;}.cls-2{fill:#f2d5cf;}.cls-3{fill:#fb8dc0;}</style></defs><g id="blomster"><path class="cls-1" d="M58.22,40.09l-.9.08a.36.36,0,0,0,0,.09Z"/><path class="cls-2" d="M90,42.33c0-1.81-8.22-3.28-18.36-3.28a85,85,0,0,0-10.81.63,81.63,81.63,0,0,0,11.65-3.34C82,32.89,89.21,28.72,88.6,27s-8.84-.29-18.38,3.15a76.64,76.64,0,0,0-12.13,5.46,84.26,84.26,0,0,0,6.81-9.1c5.56-8.47,8.84-16.15,7.33-17.14S65,14.46,59.42,22.94a73.53,73.53,0,0,0-6.58,12,75.09,75.09,0,0,0,1.08-13.61C53.92,11.22,52.45,3,50.64,3s-3.28,8.22-3.28,18.35a77.27,77.27,0,0,0,1,13A77.83,77.83,0,0,0,42,22.93C36.38,14.47,30.63,8.41,29.12,9.41s1.79,8.66,7.36,17.13A79.37,79.37,0,0,0,44,36.42a71.36,71.36,0,0,0-13-6C21.5,27,13.27,25.58,12.66,27.29s6.61,5.87,16.15,9.31a84.67,84.67,0,0,0,10.38,3.08,87.29,87.29,0,0,0-10.84-.63C18.22,39.05,10,40.52,10,42.33s8.22,3.28,18.35,3.28a76.09,76.09,0,0,0,13.31-1,81.66,81.66,0,0,0-11,5.4C21.87,55,15.49,60.42,16.39,62s8.76-1.27,17.53-6.34a87.13,87.13,0,0,0,9.09-6,84.39,84.39,0,0,0-6.65,8.92C30.8,67.07,27.52,74.75,29,75.74s7.25-5.07,12.81-13.55a77.39,77.39,0,0,0,6.28-11.31,83.44,83.44,0,0,0-.76,11.77C47.36,72.78,48.83,81,50.64,81s3.28-8.22,3.28-18.35a84.15,84.15,0,0,0-.73-11.53A80.24,80.24,0,0,0,58.54,62c5.07,8.78,10.45,15.16,12,14.26s-1.27-8.76-6.34-17.53a78,78,0,0,0-7.41-10.87A68,68,0,0,0,69,56.54c8.78,5.06,16.63,7.9,17.54,6.34s-5.48-7-14.26-12a71.13,71.13,0,0,0-13-6.11,80.16,80.16,0,0,0,12.34.86C81.75,45.61,90,44.14,90,42.33ZM50,50.85a7.87,7.87,0,1,1,7.34-10.68l.9-.08-.86.17A8,8,0,0,1,57.85,43,7.87,7.87,0,0,1,50,50.85Z"/><path class="cls-3" d="M57.36,40.26a.36.36,0,0,1,0-.09A7.85,7.85,0,1,0,57.85,43,8,8,0,0,0,57.36,40.26Z"/></g></svg>