<svg xmlns="http://www.w3.org/2000/svg" width="97" height="89" viewBox="0 0 97 89"><defs><style>.cls-1{fill:#ea1819;}.cls-2{fill:#fb8dc0;}</style></defs><g id="blomster"><path class="cls-1" d="M74,57a35.8,35.8,0,0,0-4.77-3.34,33.79,33.79,0,0,0,9.17-4.21c10.16-6.58,15.18-16.86,11.23-23s-15.39-5.71-25.55.87c-.8.51-1.56,1.05-2.29,1.6A35.57,35.57,0,0,0,62,24.91C62,12.81,56.14,3,48.87,3S35.7,12.81,35.7,24.91a36.45,36.45,0,0,0,.42,5.52q-1.11-1-2.34-1.86C24,21.44,12.6,20.42,8.32,26.3s.16,16.42,9.94,23.55a33.91,33.91,0,0,0,9.35,4.86,36.34,36.34,0,0,0-3.67,3.21c-8.56,8.56-11.33,19.66-6.18,24.81S34,85.1,42.56,76.54a33.75,33.75,0,0,0,6.53-9,32.72,32.72,0,0,0,8.14,9.8c9.33,7.72,20.64,9.43,25.28,3.83S83.35,64.73,74,57ZM51.33,59a9.87,9.87,0,0,1-2.56.33,10.05,10.05,0,0,1-10.05-9.84v-.21A10,10,0,0,1,48.77,39.19a9.93,9.93,0,0,1,4,.82,10,10,0,0,1,6.08,9.23c0,.26,0,.51,0,.76A10,10,0,0,1,51.33,59Z"/><path class="cls-2" d="M52.74,40a10.06,10.06,0,0,0-8.87.45,10.06,10.06,0,0,0-5.15,8.78v.21a10.05,10.05,0,0,0,10.05,9.84A9.87,9.87,0,0,0,51.33,59a10,10,0,0,0,7.46-9c0-.25,0-.5,0-.76A10,10,0,0,0,52.74,40Z"/></g></svg>