<svg xmlns="http://www.w3.org/2000/svg" width="336" height="83" viewBox="0 0 336 83"><defs><style>.cls-1{fill:#84d5d6;}.cls-2{fill:#ea1819;}.cls-3{fill:#f9cb51;}.cls-4{fill:#fb8dc0;}</style></defs><g id="knap"><rect class="cls-1" x="12" y="12.32" width="324" height="70.37" rx="35.18"/><rect class="cls-1" x="11" y="11.32" width="324" height="70.37" rx="35.18"/><rect class="cls-1" x="10" y="10.32" width="324" height="70.37" rx="35.18"/><rect class="cls-1" x="9" y="9.32" width="324" height="70.37" rx="35.18"/><rect class="cls-1" x="8" y="8.32" width="324" height="70.37" rx="35.18"/><rect class="cls-1" x="7" y="7.32" width="324" height="70.37" rx="35.18"/><rect class="cls-1" x="6" y="6.32" width="324" height="70.37" rx="35.18"/><rect class="cls-1" x="5" y="5.32" width="324" height="70.37" rx="35.18"/><rect class="cls-1" x="4" y="4.32" width="324" height="70.37" rx="35.18"/><rect class="cls-1" x="3" y="3.32" width="324" height="70.37" rx="35.18"/><rect class="cls-1" x="2" y="2.32" width="324" height="70.37" rx="35.18"/><rect class="cls-1" x="1" y="1.32" width="324" height="70.37" rx="35.18"/><rect class="cls-1" y="0.32" width="324" height="70.37" rx="35.18"/><rect class="cls-2" x="8" y="8.32" width="324" height="70.37" rx="35.18"/><rect class="cls-2" x="7" y="7.32" width="324" height="70.37" rx="35.18"/><rect class="cls-2" x="6" y="6.32" width="324" height="70.37" rx="35.18"/><rect class="cls-2" x="5" y="5.32" width="324" height="70.37" rx="35.18"/><rect class="cls-2" x="4" y="4.32" width="324" height="70.37" rx="35.18"/><rect class="cls-2" x="3" y="3.32" width="324" height="70.37" rx="35.18"/><rect class="cls-2" x="2" y="2.32" width="324" height="70.37" rx="35.18"/><rect class="cls-2" x="1" y="1.32" width="324" height="70.37" rx="35.18"/><rect class="cls-2" y="0.32" width="324" height="70.37" rx="35.18"/><rect class="cls-3" x="4" y="4.32" width="324" height="70.37" rx="35.18"/><rect class="cls-3" x="3" y="3.32" width="324" height="70.37" rx="35.18"/><rect class="cls-3" x="2" y="2.32" width="324" height="70.37" rx="35.18"/><rect class="cls-3" x="1" y="1.32" width="324" height="70.37" rx="35.18"/><rect class="cls-3" y="0.32" width="324" height="70.37" rx="35.18"/><rect class="cls-4" y="0.32" width="324" height="70.37" rx="35.18"/></g></svg>