<svg xmlns="http://www.w3.org/2000/svg" width="102" height="94" viewBox="0 0 102 94"><defs><style>.cls-1{fill:#84d5d6;}.cls-2{fill:#ea1819;}.cls-3{fill:#f9cb51;}.cls-4{fill:#fb8dc0;}.cls-5{fill:#293c78;}</style></defs><g id="knap_2" data-name="knap 2"><path class="cls-1" d="M54.5,15A37.5,37.5,0,1,0,92,52.5,37.5,37.5,0,0,0,54.5,15ZM69.18,53H59V78.46A1.54,1.54,0,0,1,57.46,80H53.54A1.54,1.54,0,0,1,52,78.46V53H40.92a1.36,1.36,0,0,1-1.18-2L46.8,38.72l7.07-12.24a1.37,1.37,0,0,1,2.36,0l7.06,12.24L70.36,51A1.36,1.36,0,0,1,69.18,53Z"/><path class="cls-1" d="M53.5,14A37.5,37.5,0,1,0,91,51.5,37.5,37.5,0,0,0,53.5,14ZM68.18,52H58V77.46A1.54,1.54,0,0,1,56.46,79H52.54A1.54,1.54,0,0,1,51,77.46V52H39.92a1.36,1.36,0,0,1-1.18-2L45.8,37.72l7.07-12.24a1.37,1.37,0,0,1,2.36,0l7.06,12.24L69.36,50A1.36,1.36,0,0,1,68.18,52Z"/><path class="cls-1" d="M52.5,13A37.5,37.5,0,1,0,90,50.5,37.5,37.5,0,0,0,52.5,13ZM67.18,51H57V76.46A1.54,1.54,0,0,1,55.46,78H51.54A1.54,1.54,0,0,1,50,76.46V51H38.92a1.36,1.36,0,0,1-1.18-2L44.8,36.72l7.07-12.24a1.37,1.37,0,0,1,2.36,0l7.06,12.24L68.36,49A1.36,1.36,0,0,1,67.18,51Z"/><path class="cls-1" d="M51.5,12A37.5,37.5,0,1,0,89,49.5,37.5,37.5,0,0,0,51.5,12ZM66.18,50H56V75.46A1.54,1.54,0,0,1,54.46,77H50.54A1.54,1.54,0,0,1,49,75.46V50H37.92a1.36,1.36,0,0,1-1.18-2L43.8,35.72l7.07-12.24a1.37,1.37,0,0,1,2.36,0l7.06,12.24L67.36,48A1.36,1.36,0,0,1,66.18,50Z"/><path class="cls-1" d="M50.5,11A37.5,37.5,0,1,0,88,48.5,37.5,37.5,0,0,0,50.5,11ZM65.18,49H55V74.46A1.54,1.54,0,0,1,53.46,76H49.54A1.54,1.54,0,0,1,48,74.46V49H36.92a1.36,1.36,0,0,1-1.18-2L42.8,34.72l7.07-12.24a1.37,1.37,0,0,1,2.36,0l7.06,12.24L66.36,47A1.36,1.36,0,0,1,65.18,49Z"/><path class="cls-1" d="M49.5,10A37.5,37.5,0,1,0,87,47.5,37.5,37.5,0,0,0,49.5,10ZM64.18,48H54V73.46A1.54,1.54,0,0,1,52.46,75H48.54A1.54,1.54,0,0,1,47,73.46V48H35.92a1.36,1.36,0,0,1-1.18-2L41.8,33.72l7.07-12.24a1.37,1.37,0,0,1,2.36,0l7.06,12.24L65.36,46A1.36,1.36,0,0,1,64.18,48Z"/><path class="cls-1" d="M48.5,9A37.5,37.5,0,1,0,86,46.5,37.5,37.5,0,0,0,48.5,9ZM63.18,47H53V72.46A1.54,1.54,0,0,1,51.46,74H47.54A1.54,1.54,0,0,1,46,72.46V47H34.92a1.36,1.36,0,0,1-1.18-2L40.8,32.72l7.07-12.24a1.37,1.37,0,0,1,2.36,0l7.06,12.24L64.36,45A1.36,1.36,0,0,1,63.18,47Z"/><path class="cls-1" d="M47.5,8A37.5,37.5,0,1,0,85,45.5,37.5,37.5,0,0,0,47.5,8ZM62.18,46H52V71.46A1.54,1.54,0,0,1,50.46,73H46.54A1.54,1.54,0,0,1,45,71.46V46H33.92a1.36,1.36,0,0,1-1.18-2L39.8,31.72l7.07-12.24a1.37,1.37,0,0,1,2.36,0l7.06,12.24L63.36,44A1.36,1.36,0,0,1,62.18,46Z"/><path class="cls-1" d="M46.5,7A37.5,37.5,0,1,0,84,44.5,37.5,37.5,0,0,0,46.5,7ZM61.18,45H51V70.46A1.54,1.54,0,0,1,49.46,72H45.54A1.54,1.54,0,0,1,44,70.46V45H32.92a1.36,1.36,0,0,1-1.18-2L38.8,30.72l7.07-12.24a1.37,1.37,0,0,1,2.36,0l7.06,12.24L62.36,43A1.36,1.36,0,0,1,61.18,45Z"/><path class="cls-1" d="M45.5,6A37.5,37.5,0,1,0,83,43.5,37.5,37.5,0,0,0,45.5,6ZM60.18,44H50V69.46A1.54,1.54,0,0,1,48.46,71H44.54A1.54,1.54,0,0,1,43,69.46V44H31.92a1.36,1.36,0,0,1-1.18-2L37.8,29.72l7.07-12.24a1.37,1.37,0,0,1,2.36,0l7.06,12.24L61.36,42A1.36,1.36,0,0,1,60.18,44Z"/><path class="cls-1" d="M44.5,5A37.5,37.5,0,1,0,82,42.5,37.5,37.5,0,0,0,44.5,5ZM59.18,43H49V68.46A1.54,1.54,0,0,1,47.46,70H43.54A1.54,1.54,0,0,1,42,68.46V43H30.92a1.36,1.36,0,0,1-1.18-2L36.8,28.72l7.07-12.24a1.37,1.37,0,0,1,2.36,0l7.06,12.24L60.36,41A1.36,1.36,0,0,1,59.18,43Z"/><path class="cls-1" d="M43.5,4A37.5,37.5,0,1,0,81,41.5,37.5,37.5,0,0,0,43.5,4ZM58.18,42H48V67.46A1.54,1.54,0,0,1,46.46,69H42.54A1.54,1.54,0,0,1,41,67.46V42H29.92a1.36,1.36,0,0,1-1.18-2L35.8,27.72l7.07-12.24a1.37,1.37,0,0,1,2.36,0l7.06,12.24L59.36,40A1.36,1.36,0,0,1,58.18,42Z"/><path class="cls-1" d="M42.5,3A37.5,37.5,0,1,0,80,40.5,37.5,37.5,0,0,0,42.5,3ZM57.18,41H47V66.46A1.54,1.54,0,0,1,45.46,68H41.54A1.54,1.54,0,0,1,40,66.46V41H28.92a1.36,1.36,0,0,1-1.18-2L34.8,26.72l7.07-12.24a1.37,1.37,0,0,1,2.36,0l7.06,12.24L58.36,39A1.36,1.36,0,0,1,57.18,41Z"/><path class="cls-2" d="M50.5,11A37.5,37.5,0,1,0,88,48.5,37.5,37.5,0,0,0,50.5,11ZM65.18,49H55V74.46A1.54,1.54,0,0,1,53.46,76H49.54A1.54,1.54,0,0,1,48,74.46V49H36.92a1.36,1.36,0,0,1-1.18-2L42.8,34.72l7.07-12.24a1.37,1.37,0,0,1,2.36,0l7.06,12.24L66.36,47A1.36,1.36,0,0,1,65.18,49Z"/><path class="cls-2" d="M49.5,10A37.5,37.5,0,1,0,87,47.5,37.5,37.5,0,0,0,49.5,10ZM64.18,48H54V73.46A1.54,1.54,0,0,1,52.46,75H48.54A1.54,1.54,0,0,1,47,73.46V48H35.92a1.36,1.36,0,0,1-1.18-2L41.8,33.72l7.07-12.24a1.37,1.37,0,0,1,2.36,0l7.06,12.24L65.36,46A1.36,1.36,0,0,1,64.18,48Z"/><path class="cls-2" d="M48.5,9A37.5,37.5,0,1,0,86,46.5,37.5,37.5,0,0,0,48.5,9ZM63.18,47H53V72.46A1.54,1.54,0,0,1,51.46,74H47.54A1.54,1.54,0,0,1,46,72.46V47H34.92a1.36,1.36,0,0,1-1.18-2L40.8,32.72l7.07-12.24a1.37,1.37,0,0,1,2.36,0l7.06,12.24L64.36,45A1.36,1.36,0,0,1,63.18,47Z"/><path class="cls-2" d="M47.5,8A37.5,37.5,0,1,0,85,45.5,37.5,37.5,0,0,0,47.5,8ZM62.18,46H52V71.46A1.54,1.54,0,0,1,50.46,73H46.54A1.54,1.54,0,0,1,45,71.46V46H33.92a1.36,1.36,0,0,1-1.18-2L39.8,31.72l7.07-12.24a1.37,1.37,0,0,1,2.36,0l7.06,12.24L63.36,44A1.36,1.36,0,0,1,62.18,46Z"/><path class="cls-2" d="M46.5,7A37.5,37.5,0,1,0,84,44.5,37.5,37.5,0,0,0,46.5,7ZM61.18,45H51V70.46A1.54,1.54,0,0,1,49.46,72H45.54A1.54,1.54,0,0,1,44,70.46V45H32.92a1.36,1.36,0,0,1-1.18-2L38.8,30.72l7.07-12.24a1.37,1.37,0,0,1,2.36,0l7.06,12.24L62.36,43A1.36,1.36,0,0,1,61.18,45Z"/><path class="cls-2" d="M45.5,6A37.5,37.5,0,1,0,83,43.5,37.5,37.5,0,0,0,45.5,6ZM60.18,44H50V69.46A1.54,1.54,0,0,1,48.46,71H44.54A1.54,1.54,0,0,1,43,69.46V44H31.92a1.36,1.36,0,0,1-1.18-2L37.8,29.72l7.07-12.24a1.37,1.37,0,0,1,2.36,0l7.06,12.24L61.36,42A1.36,1.36,0,0,1,60.18,44Z"/><path class="cls-2" d="M44.5,5A37.5,37.5,0,1,0,82,42.5,37.5,37.5,0,0,0,44.5,5ZM59.18,43H49V68.46A1.54,1.54,0,0,1,47.46,70H43.54A1.54,1.54,0,0,1,42,68.46V43H30.92a1.36,1.36,0,0,1-1.18-2L36.8,28.72l7.07-12.24a1.37,1.37,0,0,1,2.36,0l7.06,12.24L60.36,41A1.36,1.36,0,0,1,59.18,43Z"/><path class="cls-2" d="M43.5,4A37.5,37.5,0,1,0,81,41.5,37.5,37.5,0,0,0,43.5,4ZM58.18,42H48V67.46A1.54,1.54,0,0,1,46.46,69H42.54A1.54,1.54,0,0,1,41,67.46V42H29.92a1.36,1.36,0,0,1-1.18-2L35.8,27.72l7.07-12.24a1.37,1.37,0,0,1,2.36,0l7.06,12.24L59.36,40A1.36,1.36,0,0,1,58.18,42Z"/><path class="cls-2" d="M42.5,3A37.5,37.5,0,1,0,80,40.5,37.5,37.5,0,0,0,42.5,3ZM57.18,41H47V66.46A1.54,1.54,0,0,1,45.46,68H41.54A1.54,1.54,0,0,1,40,66.46V41H28.92a1.36,1.36,0,0,1-1.18-2L34.8,26.72l7.07-12.24a1.37,1.37,0,0,1,2.36,0l7.06,12.24L58.36,39A1.36,1.36,0,0,1,57.18,41Z"/><path class="cls-3" d="M46.5,7A37.5,37.5,0,1,0,84,44.5,37.5,37.5,0,0,0,46.5,7ZM61.18,45H51V70.46A1.54,1.54,0,0,1,49.46,72H45.54A1.54,1.54,0,0,1,44,70.46V45H32.92a1.36,1.36,0,0,1-1.18-2L38.8,30.72l7.07-12.24a1.37,1.37,0,0,1,2.36,0l7.06,12.24L62.36,43A1.36,1.36,0,0,1,61.18,45Z"/><path class="cls-3" d="M45.5,6A37.5,37.5,0,1,0,83,43.5,37.5,37.5,0,0,0,45.5,6ZM60.18,44H50V69.46A1.54,1.54,0,0,1,48.46,71H44.54A1.54,1.54,0,0,1,43,69.46V44H31.92a1.36,1.36,0,0,1-1.18-2L37.8,29.72l7.07-12.24a1.37,1.37,0,0,1,2.36,0l7.06,12.24L61.36,42A1.36,1.36,0,0,1,60.18,44Z"/><path class="cls-3" d="M44.5,5A37.5,37.5,0,1,0,82,42.5,37.5,37.5,0,0,0,44.5,5ZM59.18,43H49V68.46A1.54,1.54,0,0,1,47.46,70H43.54A1.54,1.54,0,0,1,42,68.46V43H30.92a1.36,1.36,0,0,1-1.18-2L36.8,28.72l7.07-12.24a1.37,1.37,0,0,1,2.36,0l7.06,12.24L60.36,41A1.36,1.36,0,0,1,59.18,43Z"/><path class="cls-3" d="M43.5,4A37.5,37.5,0,1,0,81,41.5,37.5,37.5,0,0,0,43.5,4ZM58.18,42H48V67.46A1.54,1.54,0,0,1,46.46,69H42.54A1.54,1.54,0,0,1,41,67.46V42H29.92a1.36,1.36,0,0,1-1.18-2L35.8,27.72l7.07-12.24a1.37,1.37,0,0,1,2.36,0l7.06,12.24L59.36,40A1.36,1.36,0,0,1,58.18,42Z"/><path class="cls-3" d="M42.5,3A37.5,37.5,0,1,0,80,40.5,37.5,37.5,0,0,0,42.5,3ZM57.18,41H47V66.46A1.54,1.54,0,0,1,45.46,68H41.54A1.54,1.54,0,0,1,40,66.46V41H28.92a1.36,1.36,0,0,1-1.18-2L34.8,26.72l7.07-12.24a1.37,1.37,0,0,1,2.36,0l7.06,12.24L58.36,39A1.36,1.36,0,0,1,57.18,41Z"/><path class="cls-4" d="M42.5,3A37.5,37.5,0,1,0,80,40.5,37.5,37.5,0,0,0,42.5,3ZM57.18,41H47V66.46A1.54,1.54,0,0,1,45.46,68H41.54A1.54,1.54,0,0,1,40,66.46V41H28.92a1.36,1.36,0,0,1-1.18-2L34.8,26.72l7.07-12.24a1.37,1.37,0,0,1,2.36,0l7.06,12.24L58.36,39A1.36,1.36,0,0,1,57.18,41Z"/><path class="cls-5" d="M51.29,26.72,44.23,14.48a1.37,1.37,0,0,0-2.36,0L34.8,26.72,27.74,39a1.36,1.36,0,0,0,1.18,2H40V66.46A1.54,1.54,0,0,0,41.54,68h3.92A1.54,1.54,0,0,0,47,66.46V41H57.18a1.36,1.36,0,0,0,1.18-2Z"/></g></svg>