<svg xmlns="http://www.w3.org/2000/svg" width="97" height="89" viewBox="0 0 97 89"><defs><style>.cls-1{fill:#fb8dc0;}.cls-2{fill:#84d5d6;}.cls-3{fill:#ea1819;}.cls-4{fill:#f9cb51;}</style></defs><g id="logo_3" data-name="logo 3"><path class="cls-1" d="M39.18,16c3.85,0,5.9,2.6,5.9,6.05,0,4-2.15,10-2.15,18.75,0,8,2.35,9.65,2.35,11.3,0,.8-1.05,1.35-2.1,1.35-2.15,0-5.15-1.65-7.5-4-4.95-5-6.95-18.5-11.6-18.5-1.65,0-2.25,1.5-2.25,3,0,7.4,5.05,9.3,5.05,14.4,0,3.15-3.55,4.9-6.4,4.9-3.95,0-5.75-2.15-5.75-4.35,0-2,1.1-4.35,2.15-6.3.95-1.7,2.35-4.4,2.35-10.8a32.38,32.38,0,0,0-.45-5.25c-.8-5.4-3.45-6-3.45-8,0-1.25,1.45-2,3.15-2,4.85,0,9.75,4,14.45,15.3,1.1,2.65,2.1,6.3,4.8,6.3,1.2,0,2.05-1,2.05-3.6,0-5.5-6.75-6.6-6.75-13C33,18,35.88,16,39.18,16Z"/><path class="cls-2" d="M51.18,28c3.85,0,5.9,2.6,5.9,6,0,4-2.15,10-2.15,18.75,0,8,2.35,9.65,2.35,11.3,0,.8-1.05,1.35-2.1,1.35-2.15,0-5.15-1.65-7.5-4-5-5-7-18.5-11.6-18.5-1.65,0-2.25,1.5-2.25,3,0,7.4,5.05,9.3,5.05,14.4,0,3.15-3.55,4.9-6.4,4.9-3.95,0-5.75-2.15-5.75-4.35,0-2,1.1-4.35,2.15-6.3.95-1.7,2.35-4.4,2.35-10.8a32.38,32.38,0,0,0-.45-5.25c-.8-5.4-3.45-5.95-3.45-8,0-1.25,1.45-2,3.15-2,4.85,0,9.75,3.95,14.45,15.3,1.1,2.65,2.1,6.3,4.8,6.3,1.2,0,2.05-1,2.05-3.6,0-5.5-6.75-6.6-6.75-13C45,30,47.88,28,51.18,28Z"/><path class="cls-2" d="M50.18,27c3.85,0,5.9,2.6,5.9,6,0,4-2.15,10-2.15,18.75,0,8,2.35,9.65,2.35,11.3,0,.8-1.05,1.35-2.1,1.35-2.15,0-5.15-1.65-7.5-4-5-5-7-18.5-11.6-18.5-1.65,0-2.25,1.5-2.25,3,0,7.4,5.05,9.3,5.05,14.4,0,3.15-3.55,4.9-6.4,4.9-3.95,0-5.75-2.15-5.75-4.35,0-2,1.1-4.35,2.15-6.3.95-1.7,2.35-4.4,2.35-10.8a32.38,32.38,0,0,0-.45-5.25c-.8-5.4-3.45-5.95-3.45-8,0-1.25,1.45-2,3.15-2,4.85,0,9.75,4,14.45,15.3,1.1,2.65,2.1,6.3,4.8,6.3,1.2,0,2.05-1,2.05-3.6,0-5.5-6.75-6.6-6.75-13C44,29,46.88,27,50.18,27Z"/><path class="cls-2" d="M49.18,26c3.85,0,5.9,2.6,5.9,6,0,4-2.15,10-2.15,18.75,0,8,2.35,9.65,2.35,11.3,0,.8-1.05,1.35-2.1,1.35-2.15,0-5.15-1.65-7.5-4-5-5-7-18.5-11.6-18.5-1.65,0-2.25,1.5-2.25,3,0,7.4,5.05,9.3,5.05,14.4,0,3.15-3.55,4.9-6.4,4.9-3.95,0-5.75-2.15-5.75-4.35,0-2,1.1-4.35,2.15-6.3.95-1.7,2.35-4.4,2.35-10.8a32.38,32.38,0,0,0-.45-5.25c-.8-5.4-3.45-5.95-3.45-8,0-1.25,1.45-2,3.15-2,4.85,0,9.75,4,14.45,15.3,1.1,2.65,2.1,6.3,4.8,6.3,1.2,0,2.05-1,2.05-3.6,0-5.5-6.75-6.6-6.75-13C43,28,45.88,26,49.18,26Z"/><path class="cls-2" d="M48.18,25c3.85,0,5.9,2.6,5.9,6.05,0,4-2.15,10-2.15,18.75,0,8,2.35,9.65,2.35,11.3,0,.8-1.05,1.35-2.1,1.35-2.15,0-5.15-1.65-7.5-4-5-5-7-18.5-11.6-18.5-1.65,0-2.25,1.5-2.25,3,0,7.4,5.05,9.3,5.05,14.4,0,3.15-3.55,4.9-6.4,4.9-3.95,0-5.75-2.15-5.75-4.35,0-2,1.1-4.35,2.15-6.3.95-1.7,2.35-4.4,2.35-10.8a32.38,32.38,0,0,0-.45-5.25c-.8-5.4-3.45-5.95-3.45-8,0-1.25,1.45-2,3.15-2,4.85,0,9.75,4,14.45,15.3,1.1,2.65,2.1,6.3,4.8,6.3,1.2,0,2.05-1,2.05-3.6,0-5.5-6.75-6.6-6.75-13C42,27,44.88,25,48.18,25Z"/><path class="cls-2" d="M47.18,24c3.85,0,5.9,2.6,5.9,6.05,0,4-2.15,10-2.15,18.75,0,8,2.35,9.65,2.35,11.3,0,.8-1.05,1.35-2.1,1.35-2.15,0-5.15-1.65-7.5-4-5-5-7-18.5-11.6-18.5-1.65,0-2.25,1.5-2.25,3,0,7.4,5.05,9.3,5.05,14.4,0,3.15-3.55,4.9-6.4,4.9-3.95,0-5.75-2.15-5.75-4.35,0-2,1.1-4.35,2.15-6.3.95-1.7,2.35-4.4,2.35-10.8a32.38,32.38,0,0,0-.45-5.25c-.8-5.4-3.45-5.95-3.45-8,0-1.25,1.45-2,3.15-2,4.85,0,9.75,4,14.45,15.3,1.1,2.65,2.1,6.3,4.8,6.3,1.2,0,2.05-1,2.05-3.6,0-5.5-6.75-6.6-6.75-13C41,26,43.88,24,47.18,24Z"/><path class="cls-2" d="M46.18,23c3.85,0,5.9,2.6,5.9,6.05,0,4-2.15,10-2.15,18.75,0,8,2.35,9.65,2.35,11.3,0,.8-1.05,1.35-2.1,1.35-2.15,0-5.15-1.65-7.5-4-5-5-7-18.5-11.6-18.5-1.65,0-2.25,1.5-2.25,3,0,7.4,5.05,9.3,5.05,14.4,0,3.15-3.55,4.9-6.4,4.9-3.95,0-5.75-2.15-5.75-4.35,0-2,1.1-4.35,2.15-6.3.95-1.7,2.35-4.4,2.35-10.8a32.38,32.38,0,0,0-.45-5.25c-.8-5.4-3.45-5.95-3.45-8,0-1.25,1.45-2,3.15-2,4.85,0,9.75,4,14.45,15.3,1.1,2.65,2.1,6.3,4.8,6.3,1.2,0,2.05-1,2.05-3.6,0-5.5-6.75-6.6-6.75-13C40,25,42.88,23,46.18,23Z"/><path class="cls-2" d="M45.18,22c3.85,0,5.9,2.6,5.9,6.05,0,4-2.15,10-2.15,18.75,0,8,2.35,9.65,2.35,11.3,0,.8-1.05,1.35-2.1,1.35-2.15,0-5.15-1.65-7.5-4-5-5-7-18.5-11.6-18.5-1.65,0-2.25,1.5-2.25,3,0,7.4,5.05,9.3,5.05,14.4,0,3.15-3.55,4.9-6.4,4.9-3.95,0-5.75-2.15-5.75-4.35,0-2,1.1-4.35,2.15-6.3.95-1.7,2.35-4.4,2.35-10.8a32.38,32.38,0,0,0-.45-5.25c-.8-5.4-3.45-5.95-3.45-8,0-1.25,1.45-2,3.15-2,4.85,0,9.75,4,14.45,15.3,1.1,2.65,2.1,6.3,4.8,6.3,1.2,0,2.05-1,2.05-3.6,0-5.5-6.75-6.6-6.75-13C39,24,41.88,22,45.18,22Z"/><path class="cls-2" d="M44.18,21c3.85,0,5.9,2.6,5.9,6.05,0,4-2.15,10-2.15,18.75,0,8,2.35,9.65,2.35,11.3,0,.8-1.05,1.35-2.1,1.35-2.15,0-5.15-1.65-7.5-4-5-5-7-18.5-11.6-18.5-1.65,0-2.25,1.5-2.25,3,0,7.4,5.05,9.3,5.05,14.4,0,3.15-3.55,4.9-6.4,4.9-3.95,0-5.75-2.15-5.75-4.35,0-2,1.1-4.35,2.15-6.3.95-1.7,2.35-4.4,2.35-10.8a32.38,32.38,0,0,0-.45-5.25c-.8-5.4-3.45-6-3.45-8,0-1.25,1.45-2,3.15-2,4.85,0,9.75,4,14.45,15.3,1.1,2.65,2.1,6.3,4.8,6.3,1.2,0,2.05-1,2.05-3.6,0-5.5-6.75-6.6-6.75-13C38,23,40.88,21,44.18,21Z"/><path class="cls-2" d="M43.18,20c3.85,0,5.9,2.6,5.9,6.05,0,4-2.15,10-2.15,18.75,0,8,2.35,9.65,2.35,11.3,0,.8-1.05,1.35-2.1,1.35-2.15,0-5.15-1.65-7.5-4-5-5-7-18.5-11.6-18.5-1.65,0-2.25,1.5-2.25,3,0,7.4,5.05,9.3,5.05,14.4,0,3.15-3.55,4.9-6.4,4.9-3.95,0-5.75-2.15-5.75-4.35,0-2,1.1-4.35,2.15-6.3.95-1.7,2.35-4.4,2.35-10.8a32.38,32.38,0,0,0-.45-5.25c-.8-5.4-3.45-6-3.45-8,0-1.25,1.45-2,3.15-2,4.85,0,9.75,4,14.45,15.3,1.1,2.65,2.1,6.3,4.8,6.3,1.2,0,2.05-1,2.05-3.6,0-5.5-6.75-6.6-6.75-13C37,22,39.88,20,43.18,20Z"/><path class="cls-2" d="M42.18,19c3.85,0,5.9,2.6,5.9,6.05,0,4-2.15,10-2.15,18.75,0,8,2.35,9.65,2.35,11.3,0,.8-1.05,1.35-2.1,1.35-2.15,0-5.15-1.65-7.5-4-5-5-6.95-18.5-11.6-18.5-1.65,0-2.25,1.5-2.25,3,0,7.4,5.05,9.3,5.05,14.4,0,3.15-3.55,4.9-6.4,4.9-3.95,0-5.75-2.15-5.75-4.35,0-2,1.1-4.35,2.15-6.3.95-1.7,2.35-4.4,2.35-10.8a32.38,32.38,0,0,0-.45-5.25c-.8-5.4-3.45-6-3.45-8,0-1.25,1.45-2,3.15-2,4.85,0,9.75,4,14.45,15.3,1.1,2.65,2.1,6.3,4.8,6.3,1.2,0,2.05-1,2.05-3.6,0-5.5-6.75-6.6-6.75-13C36,21,38.88,19,42.18,19Z"/><path class="cls-2" d="M41.18,18c3.85,0,5.9,2.6,5.9,6.05,0,4-2.15,10-2.15,18.75,0,8,2.35,9.65,2.35,11.3,0,.8-1.05,1.35-2.1,1.35-2.15,0-5.15-1.65-7.5-4-5-5-6.95-18.5-11.6-18.5-1.65,0-2.25,1.5-2.25,3,0,7.4,5.05,9.3,5.05,14.4,0,3.15-3.55,4.9-6.4,4.9-3.95,0-5.75-2.15-5.75-4.35,0-2,1.1-4.35,2.15-6.3.95-1.7,2.35-4.4,2.35-10.8a32.38,32.38,0,0,0-.45-5.25c-.8-5.4-3.45-6-3.45-8,0-1.25,1.45-2,3.15-2,4.85,0,9.75,4,14.45,15.3,1.1,2.65,2.1,6.3,4.8,6.3,1.2,0,2.05-1,2.05-3.6,0-5.5-6.75-6.6-6.75-13C35,20,37.88,18,41.18,18Z"/><path class="cls-2" d="M40.18,17c3.85,0,5.9,2.6,5.9,6.05,0,4-2.15,10-2.15,18.75,0,8,2.35,9.65,2.35,11.3,0,.8-1.05,1.35-2.1,1.35-2.15,0-5.15-1.65-7.5-4-4.95-5-6.95-18.5-11.6-18.5-1.65,0-2.25,1.5-2.25,3,0,7.4,5.05,9.3,5.05,14.4,0,3.15-3.55,4.9-6.4,4.9-3.95,0-5.75-2.15-5.75-4.35,0-2,1.1-4.35,2.15-6.3.95-1.7,2.35-4.4,2.35-10.8a32.38,32.38,0,0,0-.45-5.25c-.8-5.4-3.45-6-3.45-8,0-1.25,1.45-2,3.15-2,4.85,0,9.75,4,14.45,15.3,1.1,2.65,2.1,6.3,4.8,6.3,1.2,0,2.05-1,2.05-3.6,0-5.5-6.75-6.6-6.75-13C34,19,36.88,17,40.18,17Z"/><path class="cls-2" d="M39.18,16c3.85,0,5.9,2.6,5.9,6.05,0,4-2.15,10-2.15,18.75,0,8,2.35,9.65,2.35,11.3,0,.8-1.05,1.35-2.1,1.35-2.15,0-5.15-1.65-7.5-4-4.95-5-6.95-18.5-11.6-18.5-1.65,0-2.25,1.5-2.25,3,0,7.4,5.05,9.3,5.05,14.4,0,3.15-3.55,4.9-6.4,4.9-3.95,0-5.75-2.15-5.75-4.35,0-2,1.1-4.35,2.15-6.3.95-1.7,2.35-4.4,2.35-10.8a32.38,32.38,0,0,0-.45-5.25c-.8-5.4-3.45-6-3.45-8,0-1.25,1.45-2,3.15-2,4.85,0,9.75,4,14.45,15.3,1.1,2.65,2.1,6.3,4.8,6.3,1.2,0,2.05-1,2.05-3.6,0-5.5-6.75-6.6-6.75-13C33,18,35.88,16,39.18,16Z"/><path class="cls-3" d="M47.18,24c3.85,0,5.9,2.6,5.9,6.05,0,4-2.15,10-2.15,18.75,0,8,2.35,9.65,2.35,11.3,0,.8-1.05,1.35-2.1,1.35-2.15,0-5.15-1.65-7.5-4-5-5-7-18.5-11.6-18.5-1.65,0-2.25,1.5-2.25,3,0,7.4,5.05,9.3,5.05,14.4,0,3.15-3.55,4.9-6.4,4.9-3.95,0-5.75-2.15-5.75-4.35,0-2,1.1-4.35,2.15-6.3.95-1.7,2.35-4.4,2.35-10.8a32.38,32.38,0,0,0-.45-5.25c-.8-5.4-3.45-5.95-3.45-8,0-1.25,1.45-2,3.15-2,4.85,0,9.75,4,14.45,15.3,1.1,2.65,2.1,6.3,4.8,6.3,1.2,0,2.05-1,2.05-3.6,0-5.5-6.75-6.6-6.75-13C41,26,43.88,24,47.18,24Z"/><path class="cls-3" d="M46.18,23c3.85,0,5.9,2.6,5.9,6.05,0,4-2.15,10-2.15,18.75,0,8,2.35,9.65,2.35,11.3,0,.8-1.05,1.35-2.1,1.35-2.15,0-5.15-1.65-7.5-4-5-5-7-18.5-11.6-18.5-1.65,0-2.25,1.5-2.25,3,0,7.4,5.05,9.3,5.05,14.4,0,3.15-3.55,4.9-6.4,4.9-3.95,0-5.75-2.15-5.75-4.35,0-2,1.1-4.35,2.15-6.3.95-1.7,2.35-4.4,2.35-10.8a32.38,32.38,0,0,0-.45-5.25c-.8-5.4-3.45-5.95-3.45-8,0-1.25,1.45-2,3.15-2,4.85,0,9.75,4,14.45,15.3,1.1,2.65,2.1,6.3,4.8,6.3,1.2,0,2.05-1,2.05-3.6,0-5.5-6.75-6.6-6.75-13C40,25,42.88,23,46.18,23Z"/><path class="cls-3" d="M45.18,22c3.85,0,5.9,2.6,5.9,6.05,0,4-2.15,10-2.15,18.75,0,8,2.35,9.65,2.35,11.3,0,.8-1.05,1.35-2.1,1.35-2.15,0-5.15-1.65-7.5-4-5-5-7-18.5-11.6-18.5-1.65,0-2.25,1.5-2.25,3,0,7.4,5.05,9.3,5.05,14.4,0,3.15-3.55,4.9-6.4,4.9-3.95,0-5.75-2.15-5.75-4.35,0-2,1.1-4.35,2.15-6.3.95-1.7,2.35-4.4,2.35-10.8a32.38,32.38,0,0,0-.45-5.25c-.8-5.4-3.45-5.95-3.45-8,0-1.25,1.45-2,3.15-2,4.85,0,9.75,4,14.45,15.3,1.1,2.65,2.1,6.3,4.8,6.3,1.2,0,2.05-1,2.05-3.6,0-5.5-6.75-6.6-6.75-13C39,24,41.88,22,45.18,22Z"/><path class="cls-3" d="M44.18,21c3.85,0,5.9,2.6,5.9,6.05,0,4-2.15,10-2.15,18.75,0,8,2.35,9.65,2.35,11.3,0,.8-1.05,1.35-2.1,1.35-2.15,0-5.15-1.65-7.5-4-5-5-7-18.5-11.6-18.5-1.65,0-2.25,1.5-2.25,3,0,7.4,5.05,9.3,5.05,14.4,0,3.15-3.55,4.9-6.4,4.9-3.95,0-5.75-2.15-5.75-4.35,0-2,1.1-4.35,2.15-6.3.95-1.7,2.35-4.4,2.35-10.8a32.38,32.38,0,0,0-.45-5.25c-.8-5.4-3.45-6-3.45-8,0-1.25,1.45-2,3.15-2,4.85,0,9.75,4,14.45,15.3,1.1,2.65,2.1,6.3,4.8,6.3,1.2,0,2.05-1,2.05-3.6,0-5.5-6.75-6.6-6.75-13C38,23,40.88,21,44.18,21Z"/><path class="cls-3" d="M43.18,20c3.85,0,5.9,2.6,5.9,6.05,0,4-2.15,10-2.15,18.75,0,8,2.35,9.65,2.35,11.3,0,.8-1.05,1.35-2.1,1.35-2.15,0-5.15-1.65-7.5-4-5-5-7-18.5-11.6-18.5-1.65,0-2.25,1.5-2.25,3,0,7.4,5.05,9.3,5.05,14.4,0,3.15-3.55,4.9-6.4,4.9-3.95,0-5.75-2.15-5.75-4.35,0-2,1.1-4.35,2.15-6.3.95-1.7,2.35-4.4,2.35-10.8a32.38,32.38,0,0,0-.45-5.25c-.8-5.4-3.45-6-3.45-8,0-1.25,1.45-2,3.15-2,4.85,0,9.75,4,14.45,15.3,1.1,2.65,2.1,6.3,4.8,6.3,1.2,0,2.05-1,2.05-3.6,0-5.5-6.75-6.6-6.75-13C37,22,39.88,20,43.18,20Z"/><path class="cls-3" d="M42.18,19c3.85,0,5.9,2.6,5.9,6.05,0,4-2.15,10-2.15,18.75,0,8,2.35,9.65,2.35,11.3,0,.8-1.05,1.35-2.1,1.35-2.15,0-5.15-1.65-7.5-4-5-5-6.95-18.5-11.6-18.5-1.65,0-2.25,1.5-2.25,3,0,7.4,5.05,9.3,5.05,14.4,0,3.15-3.55,4.9-6.4,4.9-3.95,0-5.75-2.15-5.75-4.35,0-2,1.1-4.35,2.15-6.3.95-1.7,2.35-4.4,2.35-10.8a32.38,32.38,0,0,0-.45-5.25c-.8-5.4-3.45-6-3.45-8,0-1.25,1.45-2,3.15-2,4.85,0,9.75,4,14.45,15.3,1.1,2.65,2.1,6.3,4.8,6.3,1.2,0,2.05-1,2.05-3.6,0-5.5-6.75-6.6-6.75-13C36,21,38.88,19,42.18,19Z"/><path class="cls-3" d="M41.18,18c3.85,0,5.9,2.6,5.9,6.05,0,4-2.15,10-2.15,18.75,0,8,2.35,9.65,2.35,11.3,0,.8-1.05,1.35-2.1,1.35-2.15,0-5.15-1.65-7.5-4-5-5-6.95-18.5-11.6-18.5-1.65,0-2.25,1.5-2.25,3,0,7.4,5.05,9.3,5.05,14.4,0,3.15-3.55,4.9-6.4,4.9-3.95,0-5.75-2.15-5.75-4.35,0-2,1.1-4.35,2.15-6.3.95-1.7,2.35-4.4,2.35-10.8a32.38,32.38,0,0,0-.45-5.25c-.8-5.4-3.45-6-3.45-8,0-1.25,1.45-2,3.15-2,4.85,0,9.75,4,14.45,15.3,1.1,2.65,2.1,6.3,4.8,6.3,1.2,0,2.05-1,2.05-3.6,0-5.5-6.75-6.6-6.75-13C35,20,37.88,18,41.18,18Z"/><path class="cls-3" d="M40.18,17c3.85,0,5.9,2.6,5.9,6.05,0,4-2.15,10-2.15,18.75,0,8,2.35,9.65,2.35,11.3,0,.8-1.05,1.35-2.1,1.35-2.15,0-5.15-1.65-7.5-4-4.95-5-6.95-18.5-11.6-18.5-1.65,0-2.25,1.5-2.25,3,0,7.4,5.05,9.3,5.05,14.4,0,3.15-3.55,4.9-6.4,4.9-3.95,0-5.75-2.15-5.75-4.35,0-2,1.1-4.35,2.15-6.3.95-1.7,2.35-4.4,2.35-10.8a32.38,32.38,0,0,0-.45-5.25c-.8-5.4-3.45-6-3.45-8,0-1.25,1.45-2,3.15-2,4.85,0,9.75,4,14.45,15.3,1.1,2.65,2.1,6.3,4.8,6.3,1.2,0,2.05-1,2.05-3.6,0-5.5-6.75-6.6-6.75-13C34,19,36.88,17,40.18,17Z"/><path class="cls-3" d="M39.18,16c3.85,0,5.9,2.6,5.9,6.05,0,4-2.15,10-2.15,18.75,0,8,2.35,9.65,2.35,11.3,0,.8-1.05,1.35-2.1,1.35-2.15,0-5.15-1.65-7.5-4-4.95-5-6.95-18.5-11.6-18.5-1.65,0-2.25,1.5-2.25,3,0,7.4,5.05,9.3,5.05,14.4,0,3.15-3.55,4.9-6.4,4.9-3.95,0-5.75-2.15-5.75-4.35,0-2,1.1-4.35,2.15-6.3.95-1.7,2.35-4.4,2.35-10.8a32.38,32.38,0,0,0-.45-5.25c-.8-5.4-3.45-6-3.45-8,0-1.25,1.45-2,3.15-2,4.85,0,9.75,4,14.45,15.3,1.1,2.65,2.1,6.3,4.8,6.3,1.2,0,2.05-1,2.05-3.6,0-5.5-6.75-6.6-6.75-13C33,18,35.88,16,39.18,16Z"/><path class="cls-4" d="M43.18,20c3.85,0,5.9,2.6,5.9,6.05,0,4-2.15,10-2.15,18.75,0,8,2.35,9.65,2.35,11.3,0,.8-1.05,1.35-2.1,1.35-2.15,0-5.15-1.65-7.5-4-5-5-7-18.5-11.6-18.5-1.65,0-2.25,1.5-2.25,3,0,7.4,5.05,9.3,5.05,14.4,0,3.15-3.55,4.9-6.4,4.9-3.95,0-5.75-2.15-5.75-4.35,0-2,1.1-4.35,2.15-6.3.95-1.7,2.35-4.4,2.35-10.8a32.38,32.38,0,0,0-.45-5.25c-.8-5.4-3.45-6-3.45-8,0-1.25,1.45-2,3.15-2,4.85,0,9.75,4,14.45,15.3,1.1,2.65,2.1,6.3,4.8,6.3,1.2,0,2.05-1,2.05-3.6,0-5.5-6.75-6.6-6.75-13C37,22,39.88,20,43.18,20Z"/><path class="cls-4" d="M42.18,19c3.85,0,5.9,2.6,5.9,6.05,0,4-2.15,10-2.15,18.75,0,8,2.35,9.65,2.35,11.3,0,.8-1.05,1.35-2.1,1.35-2.15,0-5.15-1.65-7.5-4-5-5-6.95-18.5-11.6-18.5-1.65,0-2.25,1.5-2.25,3,0,7.4,5.05,9.3,5.05,14.4,0,3.15-3.55,4.9-6.4,4.9-3.95,0-5.75-2.15-5.75-4.35,0-2,1.1-4.35,2.15-6.3.95-1.7,2.35-4.4,2.35-10.8a32.38,32.38,0,0,0-.45-5.25c-.8-5.4-3.45-6-3.45-8,0-1.25,1.45-2,3.15-2,4.85,0,9.75,4,14.45,15.3,1.1,2.65,2.1,6.3,4.8,6.3,1.2,0,2.05-1,2.05-3.6,0-5.5-6.75-6.6-6.75-13C36,21,38.88,19,42.18,19Z"/><path class="cls-4" d="M41.18,18c3.85,0,5.9,2.6,5.9,6.05,0,4-2.15,10-2.15,18.75,0,8,2.35,9.65,2.35,11.3,0,.8-1.05,1.35-2.1,1.35-2.15,0-5.15-1.65-7.5-4-5-5-6.95-18.5-11.6-18.5-1.65,0-2.25,1.5-2.25,3,0,7.4,5.05,9.3,5.05,14.4,0,3.15-3.55,4.9-6.4,4.9-3.95,0-5.75-2.15-5.75-4.35,0-2,1.1-4.35,2.15-6.3.95-1.7,2.35-4.4,2.35-10.8a32.38,32.38,0,0,0-.45-5.25c-.8-5.4-3.45-6-3.45-8,0-1.25,1.45-2,3.15-2,4.85,0,9.75,4,14.45,15.3,1.1,2.65,2.1,6.3,4.8,6.3,1.2,0,2.05-1,2.05-3.6,0-5.5-6.75-6.6-6.75-13C35,20,37.88,18,41.18,18Z"/><path class="cls-4" d="M40.18,17c3.85,0,5.9,2.6,5.9,6.05,0,4-2.15,10-2.15,18.75,0,8,2.35,9.65,2.35,11.3,0,.8-1.05,1.35-2.1,1.35-2.15,0-5.15-1.65-7.5-4-4.95-5-6.95-18.5-11.6-18.5-1.65,0-2.25,1.5-2.25,3,0,7.4,5.05,9.3,5.05,14.4,0,3.15-3.55,4.9-6.4,4.9-3.95,0-5.75-2.15-5.75-4.35,0-2,1.1-4.35,2.15-6.3.95-1.7,2.35-4.4,2.35-10.8a32.38,32.38,0,0,0-.45-5.25c-.8-5.4-3.45-6-3.45-8,0-1.25,1.45-2,3.15-2,4.85,0,9.75,4,14.45,15.3,1.1,2.65,2.1,6.3,4.8,6.3,1.2,0,2.05-1,2.05-3.6,0-5.5-6.75-6.6-6.75-13C34,19,36.88,17,40.18,17Z"/><path class="cls-4" d="M39.18,16c3.85,0,5.9,2.6,5.9,6.05,0,4-2.15,10-2.15,18.75,0,8,2.35,9.65,2.35,11.3,0,.8-1.05,1.35-2.1,1.35-2.15,0-5.15-1.65-7.5-4-4.95-5-6.95-18.5-11.6-18.5-1.65,0-2.25,1.5-2.25,3,0,7.4,5.05,9.3,5.05,14.4,0,3.15-3.55,4.9-6.4,4.9-3.95,0-5.75-2.15-5.75-4.35,0-2,1.1-4.35,2.15-6.3.95-1.7,2.35-4.4,2.35-10.8a32.38,32.38,0,0,0-.45-5.25c-.8-5.4-3.45-6-3.45-8,0-1.25,1.45-2,3.15-2,4.85,0,9.75,4,14.45,15.3,1.1,2.65,2.1,6.3,4.8,6.3,1.2,0,2.05-1,2.05-3.6,0-5.5-6.75-6.6-6.75-13C33,18,35.88,16,39.18,16Z"/><path class="cls-1" d="M39.18,16c3.85,0,5.9,2.6,5.9,6.05,0,4-2.15,10-2.15,18.75,0,8,2.35,9.65,2.35,11.3,0,.8-1.05,1.35-2.1,1.35-2.15,0-5.15-1.65-7.5-4-4.95-5-6.95-18.5-11.6-18.5-1.65,0-2.25,1.5-2.25,3,0,7.4,5.05,9.3,5.05,14.4,0,3.15-3.55,4.9-6.4,4.9-3.95,0-5.75-2.15-5.75-4.35,0-2,1.1-4.35,2.15-6.3.95-1.7,2.35-4.4,2.35-10.8a32.38,32.38,0,0,0-.45-5.25c-.8-5.4-3.45-6-3.45-8,0-1.25,1.45-2,3.15-2,4.85,0,9.75,4,14.45,15.3,1.1,2.65,2.1,6.3,4.8,6.3,1.2,0,2.05-1,2.05-3.6,0-5.5-6.75-6.6-6.75-13C33,18,35.88,16,39.18,16Z"/><path d="M67.16,37.78c.75,0,1.75-.25,2.6-.25s1.55.3,1.55,1.45c0,3.1-8.15,2.05-8.15,10.3,0,2.75,1.2,3.8,2.35,3.8,1.4,0,2.7-1.7,3.8-1.7S71,53.23,71,54.48c0,6-4.6,7.75-9.55,7.75-7.45,0-10-2.8-10-6.45,0-4.4,3.35-9.75,3.35-12.4s-3.5-.65-3.5-3.25,6,.5,9-7.8a3.18,3.18,0,0,1,3-2.45C67.11,30.28,63.76,37.78,67.16,37.78Z"/><path class="cls-2" d="M79.16,49.78c.75,0,1.75-.25,2.6-.25s1.55.3,1.55,1.45c0,3.1-8.15,2.05-8.15,10.3,0,2.75,1.2,3.8,2.35,3.8,1.4,0,2.7-1.7,3.8-1.7S83,65.23,83,66.48c0,6-4.6,7.75-9.55,7.75-7.45,0-10-2.8-10-6.45,0-4.4,3.35-9.75,3.35-12.4s-3.5-.65-3.5-3.25,5.95.5,9-7.8a3.18,3.18,0,0,1,3-2.45C79.11,42.28,75.76,49.78,79.16,49.78Z"/><path class="cls-2" d="M78.16,48.78c.75,0,1.75-.25,2.6-.25s1.55.3,1.55,1.45c0,3.1-8.15,2.05-8.15,10.3,0,2.75,1.2,3.8,2.35,3.8,1.4,0,2.7-1.7,3.8-1.7S82,64.23,82,65.48c0,6-4.6,7.75-9.55,7.75-7.45,0-10-2.8-10-6.45,0-4.4,3.35-9.75,3.35-12.4s-3.5-.65-3.5-3.25,5.95.5,9-7.8a3.18,3.18,0,0,1,3-2.45C78.11,41.28,74.76,48.78,78.16,48.78Z"/><path class="cls-2" d="M77.16,47.78c.75,0,1.75-.25,2.6-.25s1.55.3,1.55,1.45c0,3.1-8.15,2.05-8.15,10.3,0,2.75,1.2,3.8,2.35,3.8,1.4,0,2.7-1.7,3.8-1.7S81,63.23,81,64.48c0,6-4.6,7.75-9.55,7.75-7.45,0-10-2.8-10-6.45,0-4.4,3.35-9.75,3.35-12.4s-3.5-.65-3.5-3.25,5.95.5,9-7.8a3.18,3.18,0,0,1,3-2.45C77.11,40.28,73.76,47.78,77.16,47.78Z"/><path class="cls-2" d="M76.16,46.78c.75,0,1.75-.25,2.6-.25s1.55.3,1.55,1.45c0,3.1-8.15,2.05-8.15,10.3,0,2.75,1.2,3.8,2.35,3.8,1.4,0,2.7-1.7,3.8-1.7S80,62.23,80,63.48c0,6-4.6,7.75-9.55,7.75-7.45,0-10-2.8-10-6.45,0-4.4,3.35-9.75,3.35-12.4s-3.5-.65-3.5-3.25,5.95.5,9-7.8a3.18,3.18,0,0,1,3-2.45C76.11,39.28,72.76,46.78,76.16,46.78Z"/><path class="cls-2" d="M75.16,45.78c.75,0,1.75-.25,2.6-.25s1.55.3,1.55,1.45c0,3.1-8.15,2.05-8.15,10.3,0,2.75,1.2,3.8,2.35,3.8,1.4,0,2.7-1.7,3.8-1.7S79,61.23,79,62.48c0,6-4.6,7.75-9.55,7.75-7.45,0-10-2.8-10-6.45,0-4.4,3.35-9.75,3.35-12.4s-3.5-.65-3.5-3.25,5.95.5,9-7.8a3.18,3.18,0,0,1,3-2.45C75.11,38.28,71.76,45.78,75.16,45.78Z"/><path class="cls-2" d="M74.16,44.78c.75,0,1.75-.25,2.6-.25s1.55.3,1.55,1.45c0,3.1-8.15,2.05-8.15,10.3,0,2.75,1.2,3.8,2.35,3.8,1.4,0,2.7-1.7,3.8-1.7S78,60.23,78,61.48c0,6-4.6,7.75-9.55,7.75-7.45,0-10-2.8-10-6.45,0-4.4,3.35-9.75,3.35-12.4s-3.5-.65-3.5-3.25,5.95.5,9-7.8a3.18,3.18,0,0,1,3-2.45C74.11,37.28,70.76,44.78,74.16,44.78Z"/><path class="cls-2" d="M73.16,43.78c.75,0,1.75-.25,2.6-.25s1.55.3,1.55,1.45c0,3.1-8.15,2.05-8.15,10.3,0,2.75,1.2,3.8,2.35,3.8,1.4,0,2.7-1.7,3.8-1.7S77,59.23,77,60.48c0,6-4.6,7.75-9.55,7.75-7.45,0-10-2.8-10-6.45,0-4.4,3.35-9.75,3.35-12.4s-3.5-.65-3.5-3.25,6,.5,9-7.8a3.18,3.18,0,0,1,3-2.45C73.11,36.28,69.76,43.78,73.16,43.78Z"/><path class="cls-2" d="M72.16,42.78c.75,0,1.75-.25,2.6-.25s1.55.3,1.55,1.45c0,3.1-8.15,2.05-8.15,10.3,0,2.75,1.2,3.8,2.35,3.8,1.4,0,2.7-1.7,3.8-1.7S76,58.23,76,59.48c0,6-4.6,7.75-9.55,7.75-7.45,0-10-2.8-10-6.45,0-4.4,3.35-9.75,3.35-12.4s-3.5-.65-3.5-3.25,6,.5,9-7.8a3.18,3.18,0,0,1,3-2.45C72.11,35.28,68.76,42.78,72.16,42.78Z"/><path class="cls-2" d="M71.16,41.78c.75,0,1.75-.25,2.6-.25s1.55.3,1.55,1.45c0,3.1-8.15,2.05-8.15,10.3,0,2.75,1.2,3.8,2.35,3.8,1.4,0,2.7-1.7,3.8-1.7S75,57.23,75,58.48c0,6-4.6,7.75-9.55,7.75-7.45,0-10-2.8-10-6.45,0-4.4,3.35-9.75,3.35-12.4s-3.5-.65-3.5-3.25,6,.5,9-7.8a3.18,3.18,0,0,1,3-2.45C71.11,34.28,67.76,41.78,71.16,41.78Z"/><path class="cls-2" d="M70.16,40.78c.75,0,1.75-.25,2.6-.25s1.55.3,1.55,1.45c0,3.1-8.15,2.05-8.15,10.3,0,2.75,1.2,3.8,2.35,3.8,1.4,0,2.7-1.7,3.8-1.7S74,56.23,74,57.48c0,6-4.6,7.75-9.55,7.75-7.45,0-10-2.8-10-6.45,0-4.4,3.35-9.75,3.35-12.4s-3.5-.65-3.5-3.25,6,.5,9-7.8a3.18,3.18,0,0,1,3-2.45C70.11,33.28,66.76,40.78,70.16,40.78Z"/><path class="cls-2" d="M69.16,39.78c.75,0,1.75-.25,2.6-.25s1.55.3,1.55,1.45c0,3.1-8.15,2.05-8.15,10.3,0,2.75,1.2,3.8,2.35,3.8,1.4,0,2.7-1.7,3.8-1.7S73,55.23,73,56.48c0,6-4.6,7.75-9.55,7.75-7.45,0-10-2.8-10-6.45,0-4.4,3.35-9.75,3.35-12.4s-3.5-.65-3.5-3.25,6,.5,9-7.8a3.18,3.18,0,0,1,3-2.45C69.11,32.28,65.76,39.78,69.16,39.78Z"/><path class="cls-2" d="M68.16,38.78c.75,0,1.75-.25,2.6-.25s1.55.3,1.55,1.45c0,3.1-8.15,2.05-8.15,10.3,0,2.75,1.2,3.8,2.35,3.8,1.4,0,2.7-1.7,3.8-1.7S72,54.23,72,55.48c0,6-4.6,7.75-9.55,7.75-7.45,0-10-2.8-10-6.45,0-4.4,3.35-9.75,3.35-12.4s-3.5-.65-3.5-3.25,6,.5,9-7.8a3.18,3.18,0,0,1,3-2.45C68.11,31.28,64.76,38.78,68.16,38.78Z"/><path class="cls-2" d="M67.16,37.78c.75,0,1.75-.25,2.6-.25s1.55.3,1.55,1.45c0,3.1-8.15,2.05-8.15,10.3,0,2.75,1.2,3.8,2.35,3.8,1.4,0,2.7-1.7,3.8-1.7S71,53.23,71,54.48c0,6-4.6,7.75-9.55,7.75-7.45,0-10-2.8-10-6.45,0-4.4,3.35-9.75,3.35-12.4s-3.5-.65-3.5-3.25,6,.5,9-7.8a3.18,3.18,0,0,1,3-2.45C67.11,30.28,63.76,37.78,67.16,37.78Z"/><path class="cls-3" d="M75.16,45.78c.75,0,1.75-.25,2.6-.25s1.55.3,1.55,1.45c0,3.1-8.15,2.05-8.15,10.3,0,2.75,1.2,3.8,2.35,3.8,1.4,0,2.7-1.7,3.8-1.7S79,61.23,79,62.48c0,6-4.6,7.75-9.55,7.75-7.45,0-10-2.8-10-6.45,0-4.4,3.35-9.75,3.35-12.4s-3.5-.65-3.5-3.25,5.95.5,9-7.8a3.18,3.18,0,0,1,3-2.45C75.11,38.28,71.76,45.78,75.16,45.78Z"/><path class="cls-3" d="M74.16,44.78c.75,0,1.75-.25,2.6-.25s1.55.3,1.55,1.45c0,3.1-8.15,2.05-8.15,10.3,0,2.75,1.2,3.8,2.35,3.8,1.4,0,2.7-1.7,3.8-1.7S78,60.23,78,61.48c0,6-4.6,7.75-9.55,7.75-7.45,0-10-2.8-10-6.45,0-4.4,3.35-9.75,3.35-12.4s-3.5-.65-3.5-3.25,5.95.5,9-7.8a3.18,3.18,0,0,1,3-2.45C74.11,37.28,70.76,44.78,74.16,44.78Z"/><path class="cls-3" d="M73.16,43.78c.75,0,1.75-.25,2.6-.25s1.55.3,1.55,1.45c0,3.1-8.15,2.05-8.15,10.3,0,2.75,1.2,3.8,2.35,3.8,1.4,0,2.7-1.7,3.8-1.7S77,59.23,77,60.48c0,6-4.6,7.75-9.55,7.75-7.45,0-10-2.8-10-6.45,0-4.4,3.35-9.75,3.35-12.4s-3.5-.65-3.5-3.25,6,.5,9-7.8a3.18,3.18,0,0,1,3-2.45C73.11,36.28,69.76,43.78,73.16,43.78Z"/><path class="cls-3" d="M72.16,42.78c.75,0,1.75-.25,2.6-.25s1.55.3,1.55,1.45c0,3.1-8.15,2.05-8.15,10.3,0,2.75,1.2,3.8,2.35,3.8,1.4,0,2.7-1.7,3.8-1.7S76,58.23,76,59.48c0,6-4.6,7.75-9.55,7.75-7.45,0-10-2.8-10-6.45,0-4.4,3.35-9.75,3.35-12.4s-3.5-.65-3.5-3.25,6,.5,9-7.8a3.18,3.18,0,0,1,3-2.45C72.11,35.28,68.76,42.78,72.16,42.78Z"/><path class="cls-3" d="M71.16,41.78c.75,0,1.75-.25,2.6-.25s1.55.3,1.55,1.45c0,3.1-8.15,2.05-8.15,10.3,0,2.75,1.2,3.8,2.35,3.8,1.4,0,2.7-1.7,3.8-1.7S75,57.23,75,58.48c0,6-4.6,7.75-9.55,7.75-7.45,0-10-2.8-10-6.45,0-4.4,3.35-9.75,3.35-12.4s-3.5-.65-3.5-3.25,6,.5,9-7.8a3.18,3.18,0,0,1,3-2.45C71.11,34.28,67.76,41.78,71.16,41.78Z"/><path class="cls-3" d="M70.16,40.78c.75,0,1.75-.25,2.6-.25s1.55.3,1.55,1.45c0,3.1-8.15,2.05-8.15,10.3,0,2.75,1.2,3.8,2.35,3.8,1.4,0,2.7-1.7,3.8-1.7S74,56.23,74,57.48c0,6-4.6,7.75-9.55,7.75-7.45,0-10-2.8-10-6.45,0-4.4,3.35-9.75,3.35-12.4s-3.5-.65-3.5-3.25,6,.5,9-7.8a3.18,3.18,0,0,1,3-2.45C70.11,33.28,66.76,40.78,70.16,40.78Z"/><path class="cls-3" d="M69.16,39.78c.75,0,1.75-.25,2.6-.25s1.55.3,1.55,1.45c0,3.1-8.15,2.05-8.15,10.3,0,2.75,1.2,3.8,2.35,3.8,1.4,0,2.7-1.7,3.8-1.7S73,55.23,73,56.48c0,6-4.6,7.75-9.55,7.75-7.45,0-10-2.8-10-6.45,0-4.4,3.35-9.75,3.35-12.4s-3.5-.65-3.5-3.25,6,.5,9-7.8a3.18,3.18,0,0,1,3-2.45C69.11,32.28,65.76,39.78,69.16,39.78Z"/><path class="cls-3" d="M68.16,38.78c.75,0,1.75-.25,2.6-.25s1.55.3,1.55,1.45c0,3.1-8.15,2.05-8.15,10.3,0,2.75,1.2,3.8,2.35,3.8,1.4,0,2.7-1.7,3.8-1.7S72,54.23,72,55.48c0,6-4.6,7.75-9.55,7.75-7.45,0-10-2.8-10-6.45,0-4.4,3.35-9.75,3.35-12.4s-3.5-.65-3.5-3.25,6,.5,9-7.8a3.18,3.18,0,0,1,3-2.45C68.11,31.28,64.76,38.78,68.16,38.78Z"/><path class="cls-3" d="M67.16,37.78c.75,0,1.75-.25,2.6-.25s1.55.3,1.55,1.45c0,3.1-8.15,2.05-8.15,10.3,0,2.75,1.2,3.8,2.35,3.8,1.4,0,2.7-1.7,3.8-1.7S71,53.23,71,54.48c0,6-4.6,7.75-9.55,7.75-7.45,0-10-2.8-10-6.45,0-4.4,3.35-9.75,3.35-12.4s-3.5-.65-3.5-3.25,6,.5,9-7.8a3.18,3.18,0,0,1,3-2.45C67.11,30.28,63.76,37.78,67.16,37.78Z"/><path class="cls-4" d="M71.16,41.78c.75,0,1.75-.25,2.6-.25s1.55.3,1.55,1.45c0,3.1-8.15,2.05-8.15,10.3,0,2.75,1.2,3.8,2.35,3.8,1.4,0,2.7-1.7,3.8-1.7S75,57.23,75,58.48c0,6-4.6,7.75-9.55,7.75-7.45,0-10-2.8-10-6.45,0-4.4,3.35-9.75,3.35-12.4s-3.5-.65-3.5-3.25,6,.5,9-7.8a3.18,3.18,0,0,1,3-2.45C71.11,34.28,67.76,41.78,71.16,41.78Z"/><path class="cls-4" d="M70.16,40.78c.75,0,1.75-.25,2.6-.25s1.55.3,1.55,1.45c0,3.1-8.15,2.05-8.15,10.3,0,2.75,1.2,3.8,2.35,3.8,1.4,0,2.7-1.7,3.8-1.7S74,56.23,74,57.48c0,6-4.6,7.75-9.55,7.75-7.45,0-10-2.8-10-6.45,0-4.4,3.35-9.75,3.35-12.4s-3.5-.65-3.5-3.25,6,.5,9-7.8a3.18,3.18,0,0,1,3-2.45C70.11,33.28,66.76,40.78,70.16,40.78Z"/><path class="cls-4" d="M69.16,39.78c.75,0,1.75-.25,2.6-.25s1.55.3,1.55,1.45c0,3.1-8.15,2.05-8.15,10.3,0,2.75,1.2,3.8,2.35,3.8,1.4,0,2.7-1.7,3.8-1.7S73,55.23,73,56.48c0,6-4.6,7.75-9.55,7.75-7.45,0-10-2.8-10-6.45,0-4.4,3.35-9.75,3.35-12.4s-3.5-.65-3.5-3.25,6,.5,9-7.8a3.18,3.18,0,0,1,3-2.45C69.11,32.28,65.76,39.78,69.16,39.78Z"/><path class="cls-4" d="M68.16,38.78c.75,0,1.75-.25,2.6-.25s1.55.3,1.55,1.45c0,3.1-8.15,2.05-8.15,10.3,0,2.75,1.2,3.8,2.35,3.8,1.4,0,2.7-1.7,3.8-1.7S72,54.23,72,55.48c0,6-4.6,7.75-9.55,7.75-7.45,0-10-2.8-10-6.45,0-4.4,3.35-9.75,3.35-12.4s-3.5-.65-3.5-3.25,6,.5,9-7.8a3.18,3.18,0,0,1,3-2.45C68.11,31.28,64.76,38.78,68.16,38.78Z"/><path class="cls-4" d="M67.16,37.78c.75,0,1.75-.25,2.6-.25s1.55.3,1.55,1.45c0,3.1-8.15,2.05-8.15,10.3,0,2.75,1.2,3.8,2.35,3.8,1.4,0,2.7-1.7,3.8-1.7S71,53.23,71,54.48c0,6-4.6,7.75-9.55,7.75-7.45,0-10-2.8-10-6.45,0-4.4,3.35-9.75,3.35-12.4s-3.5-.65-3.5-3.25,6,.5,9-7.8a3.18,3.18,0,0,1,3-2.45C67.11,30.28,63.76,37.78,67.16,37.78Z"/><path class="cls-1" d="M67.16,37.78c.75,0,1.75-.25,2.6-.25s1.55.3,1.55,1.45c0,3.1-8.15,2.05-8.15,10.3,0,2.75,1.2,3.8,2.35,3.8,1.4,0,2.7-1.7,3.8-1.7S71,53.23,71,54.48c0,6-4.6,7.75-9.55,7.75-7.45,0-10-2.8-10-6.45,0-4.4,3.35-9.75,3.35-12.4s-3.5-.65-3.5-3.25,6,.5,9-7.8a3.18,3.18,0,0,1,3-2.45C67.11,30.28,63.76,37.78,67.16,37.78Z"/></g></svg>